<svg width="34" height="33" viewBox="0 0 34 33" fill="none" xmlns="http://www.w3.org/2000/svg">
<path d="M17.0002 0.458008C20.1729 0.458008 23.2744 1.39884 25.9124 3.16152C28.5505 4.9242 30.6066 7.42956 31.8207 10.3608C33.0349 13.292 33.3526 16.5175 32.7336 19.6292C32.1146 22.741 30.5868 25.5994 28.3433 27.8428C26.0999 30.0863 23.2415 31.6141 20.1297 32.2331C17.018 32.8521 13.7925 32.5344 10.8613 31.3202C7.93005 30.1061 5.42469 28.05 3.662 25.4119C1.89932 22.7739 0.958496 19.6724 0.958496 16.4997C0.963513 12.2467 2.65523 8.16935 5.66253 5.16205C8.66984 2.15474 12.7472 0.463025 17.0002 0.458008ZM9.7085 17.958H15.5418V23.7913C15.5418 24.1781 15.6955 24.549 15.969 24.8225C16.2425 25.096 16.6134 25.2497 17.0002 25.2497C17.3869 25.2497 17.7579 25.096 18.0314 24.8225C18.3049 24.549 18.4585 24.1781 18.4585 23.7913V17.958H24.2918C24.6786 17.958 25.0495 17.8044 25.323 17.5309C25.5965 17.2574 25.7502 16.8864 25.7502 16.4997C25.7502 16.1129 25.5965 15.742 25.323 15.4685C25.0495 15.195 24.6786 15.0413 24.2918 15.0413H18.4585V9.20801C18.4585 8.82123 18.3049 8.4503 18.0314 8.17681C17.7579 7.90332 17.3869 7.74967 17.0002 7.74967C16.6134 7.74967 16.2425 7.90332 15.969 8.17681C15.6955 8.4503 15.5418 8.82123 15.5418 9.20801V15.0413H9.7085C9.32172 15.0413 8.95079 15.195 8.6773 15.4685C8.40381 15.742 8.25016 16.1129 8.25016 16.4997C8.25016 16.8864 8.40381 17.2574 8.6773 17.5309C8.95079 17.8044 9.32172 17.958 9.7085 17.958Z" fill="url(#paint0_linear_394_55775)"/>
<defs>
<linearGradient id="paint0_linear_394_55775" x1="1.86225" y1="0.458008" x2="4.5641" y2="34.462" gradientUnits="userSpaceOnUse">
<stop stop-color="#5197FF"/>
<stop offset="1" stop-color="#2C54E5"/>
</linearGradient>
</defs>
</svg>
