<svg width="15" height="15" viewBox="0 0 15 15" fill="none" xmlns="http://www.w3.org/2000/svg">
<path d="M14.1418 5.97656L13.2009 5.80078C13.0833 5.44922 12.9657 5.09766 12.7305 4.74609L13.3185 3.98438C13.4949 3.75 13.4361 3.45703 13.2597 3.22266L11.9073 1.875C11.7309 1.69922 11.3781 1.64062 11.1429 1.81641L10.3785 2.34375C10.0257 2.16797 9.61411 1.99219 9.2025 1.875L9.0261 0.9375C8.9673 0.644531 8.73209 0.46875 8.43809 0.46875H6.49767C6.20367 0.46875 5.96846 0.703125 5.90966 0.9375L5.79206 1.875C5.43926 1.93359 5.02765 2.10938 4.67485 2.34375L3.96924 1.81641C3.73404 1.64062 3.44003 1.64062 3.20483 1.875L1.85242 3.22266C1.67601 3.39844 1.61721 3.75 1.79361 3.98438L2.32282 4.6875C2.08762 5.03906 1.97002 5.44922 1.85242 5.85937L0.970405 5.97656C0.676402 6.03516 0.5 6.26953 0.5 6.5625V8.49609C0.5 8.78906 0.735203 9.02344 0.970405 9.08203L1.85242 9.19922C1.97002 9.60937 2.14642 9.96094 2.32282 10.3711L1.85242 11.0742C1.67601 11.3086 1.67601 11.6016 1.91122 11.8359L3.26363 13.1836C3.44003 13.3594 3.79284 13.418 4.02804 13.2422L4.73365 12.7148C5.08645 12.8906 5.43926 13.0664 5.79206 13.1836L5.90966 14.0625C5.96846 14.3555 6.20367 14.5312 6.49767 14.5312H8.43809C8.73209 14.5312 8.9673 14.2969 9.0261 14.0625L9.1437 13.1836C9.5553 13.0664 9.90811 12.8906 10.2609 12.7148L11.0253 13.2422C11.2605 13.418 11.6133 13.3594 11.7897 13.1836L13.1421 11.8359C13.3185 11.6602 13.3773 11.3086 13.2009 11.0742L12.6717 10.3125C12.8481 9.96094 13.0245 9.60937 13.1421 9.25781L14.083 9.08203C14.377 9.02344 14.5534 8.78906 14.5534 8.49609V6.5625C14.6122 6.26953 14.377 6.03516 14.1418 5.97656ZM10.9665 10.2539C10.4373 9.60938 9.79051 9.14062 8.9673 8.84766C8.8497 8.78906 8.73209 8.84766 8.67329 8.84766C8.32049 8.96484 7.96769 9.08203 7.61488 9.08203C7.26208 9.08203 6.85047 9.02344 6.55647 8.84766C6.43887 8.78906 6.32127 8.78906 6.26247 8.84766C5.43926 9.14062 4.73365 9.60938 4.26324 10.2539C3.67524 9.49219 3.32243 8.55469 3.32243 7.55859C3.32243 5.15625 5.26286 3.16406 7.73248 3.16406C10.1433 3.16406 12.0837 5.09766 12.0837 7.55859C11.9073 8.55469 11.5545 9.49219 10.9665 10.2539Z" fill="white"/>
<path d="M7.55608 4.62891C6.55647 4.62891 5.79206 5.44922 5.79206 6.38672C5.79206 7.38281 6.55647 8.14453 7.55608 8.14453C8.49689 8.14453 9.3201 7.38281 9.3201 6.38672C9.3201 5.39062 8.55569 4.62891 7.55608 4.62891Z" fill="white"/>
</svg>
