<svg width="15" height="15" viewBox="0 0 15 15" fill="none" xmlns="http://www.w3.org/2000/svg">
<path fill-rule="evenodd" clip-rule="evenodd" d="M4.28438 8.5738H3.75C3.6083 8.57483 3.47239 8.6302 3.37031 8.72849C3.27118 8.83002 3.21567 8.96628 3.21562 9.10818V10.0457H4.82344V9.10818C4.82344 9.03761 4.80946 8.96774 4.78232 8.9026C4.75517 8.83745 4.71539 8.77834 4.66527 8.72865C4.61515 8.67897 4.55569 8.63971 4.49031 8.61313C4.42494 8.58655 4.35494 8.57319 4.28438 8.5738Z" fill="white"/>
<path fill-rule="evenodd" clip-rule="evenodd" d="M0 4.8238V12.8582C0.00123831 13.4259 0.22733 13.9701 0.6288 14.3716C1.03027 14.773 1.57442 14.9991 2.14219 15.0004H12.8578C13.4256 14.9991 13.9697 14.773 14.3712 14.3716C14.7727 13.9701 14.9988 13.4259 15 12.8582V4.8238H0ZM5.89219 11.7847C5.89219 11.9265 5.83589 12.0624 5.73567 12.1626C5.63546 12.2628 5.49954 12.3191 5.35781 12.3191C5.21609 12.3191 5.08017 12.2628 4.97995 12.1626C4.87974 12.0624 4.82344 11.9265 4.82344 11.7847V11.1379H3.21562V11.7847C3.22261 11.8594 3.21393 11.9348 3.19014 12.0059C3.16634 12.0771 3.12796 12.1425 3.07744 12.1979C3.02692 12.2534 2.96538 12.2977 2.89675 12.328C2.82813 12.3584 2.75393 12.374 2.67891 12.374C2.60388 12.374 2.52968 12.3584 2.46106 12.328C2.39243 12.2977 2.33089 12.2534 2.28037 12.1979C2.22985 12.1425 2.19147 12.0771 2.16767 12.0059C2.14388 11.9348 2.1352 11.8594 2.14219 11.7847V9.10818C2.14219 8.68176 2.31158 8.27281 2.6131 7.97128C2.91463 7.66976 3.32358 7.50037 3.75 7.50037H4.28438C4.49586 7.49912 4.7055 7.53986 4.90113 7.62022C5.09676 7.70058 5.2745 7.81896 5.42404 7.96851C5.57359 8.11806 5.69197 8.2958 5.77233 8.49143C5.85269 8.68706 5.89343 8.89669 5.89219 9.10818V11.7847ZM10.7812 9.53006C10.7812 9.95647 10.6119 10.3654 10.3103 10.667C10.0088 10.9685 9.59986 11.1379 9.17344 11.1379H8.03437V11.7847C8.03437 11.9265 7.97807 12.0624 7.87786 12.1626C7.77764 12.2628 7.64173 12.3191 7.5 12.3191C7.35827 12.3191 7.22236 12.2628 7.12214 12.1626C7.02193 12.0624 6.96563 11.9265 6.96563 11.7847V8.03474C6.96563 7.89302 7.02193 7.7571 7.12214 7.65688C7.22236 7.55667 7.35827 7.50037 7.5 7.50037H9.18281C9.39351 7.50036 9.60214 7.54202 9.79668 7.62293C9.99123 7.70385 10.1679 7.82242 10.3164 7.97185C10.465 8.12127 10.5825 8.29859 10.6623 8.4936C10.7421 8.68862 10.7825 8.89748 10.7812 9.10818V9.53006ZM12.8484 11.7847C12.8554 11.8594 12.8467 11.9348 12.823 12.0059C12.7992 12.0771 12.7608 12.1425 12.7103 12.1979C12.6597 12.2534 12.5982 12.2977 12.5296 12.328C12.4609 12.3584 12.3867 12.374 12.3117 12.374C12.2367 12.374 12.1625 12.3584 12.0939 12.328C12.0252 12.2977 11.9637 12.2534 11.9132 12.1979C11.8627 12.1425 11.8243 12.0771 11.8005 12.0059C11.7767 11.9348 11.768 11.8594 11.775 11.7847V8.03474C11.7875 7.90105 11.8495 7.77684 11.9487 7.68642C12.048 7.59601 12.1774 7.54589 12.3117 7.54589C12.446 7.54589 12.5754 7.59601 12.6747 7.68642C12.774 7.77684 12.8359 7.90105 12.8484 8.03474V11.7847Z" fill="white"/>
<path fill-rule="evenodd" clip-rule="evenodd" d="M15 3.75037V2.14255C14.9988 1.57479 14.7727 1.03064 14.3712 0.629166C13.9697 0.227696 13.4256 0.00160452 12.8578 0.000366211H2.14219C1.57442 0.00160452 1.03027 0.227696 0.6288 0.629166C0.22733 1.03064 0.00123831 1.57479 0 2.14255V3.75037H15ZM4.82344 1.60818C4.92892 1.6091 5.03177 1.64123 5.11903 1.70051C5.20629 1.75978 5.27405 1.84356 5.31378 1.94128C5.35351 2.03901 5.36342 2.1463 5.34228 2.24965C5.32113 2.353 5.26987 2.44777 5.19496 2.52204C5.12004 2.59631 5.02482 2.64674 4.92129 2.66698C4.81776 2.68722 4.71056 2.67637 4.61319 2.63579C4.51581 2.59521 4.43263 2.52672 4.37412 2.43894C4.31561 2.35117 4.28438 2.24804 4.28438 2.14255C4.28437 2.07198 4.29835 2.00211 4.3255 1.93697C4.35264 1.87183 4.39242 1.81271 4.44254 1.76303C4.49266 1.71334 4.55213 1.67408 4.6175 1.6475C4.68288 1.62092 4.75287 1.60756 4.82344 1.60818ZM2.67656 1.60818C2.78225 1.60818 2.88557 1.63952 2.97345 1.69824C3.06132 1.75696 3.12982 1.84041 3.17026 1.93806C3.21071 2.0357 3.22129 2.14315 3.20067 2.24681C3.18005 2.35046 3.12916 2.44568 3.05442 2.52041C2.97969 2.59515 2.88447 2.64604 2.78081 2.66666C2.67716 2.68728 2.56971 2.6767 2.47207 2.63625C2.37442 2.59581 2.29096 2.52731 2.23225 2.43944C2.17353 2.35156 2.14219 2.24824 2.14219 2.14255C2.14219 2.00083 2.19849 1.86491 2.2987 1.76469C2.39892 1.66448 2.53484 1.60818 2.67656 1.60818Z" fill="white"/>
<path fill-rule="evenodd" clip-rule="evenodd" d="M9.18281 8.57381H8.03437V10.0644H9.18281C9.32454 10.0644 9.46046 10.0081 9.56067 9.90792C9.66089 9.8077 9.71719 9.67178 9.71719 9.53006V9.10818C9.71781 9.03783 9.70442 8.96806 9.67778 8.90295C9.65115 8.83783 9.61181 8.77867 9.56207 8.72893C9.51232 8.67918 9.45316 8.63984 9.38805 8.61321C9.32293 8.58657 9.25316 8.57318 9.18281 8.57381Z" fill="white"/>
</svg>
