<svg width="15" height="15" viewBox="0 0 15 15" fill="none" xmlns="http://www.w3.org/2000/svg">
<path d="M13.5955 1.48148C11.726 -0.493828 8.68397 -0.493828 6.81418 1.48148L1.00144 7.62302C-0.333886 9.03404 -0.333798 11.3299 1.00161 12.7408C1.66938 13.4463 2.54623 13.7991 3.42344 13.799C4.30042 13.7989 5.17774 13.4463 5.84539 12.7408L11.1736 7.11107C11.5617 6.70099 11.7756 6.15573 11.7756 5.57577C11.7756 4.99578 11.5619 4.45055 11.1736 4.04035C10.3723 3.19378 9.06849 3.19381 8.26734 4.0405L4.78291 7.72195C4.5154 8.00456 4.5154 8.46284 4.78285 8.74551C5.05033 9.02822 5.48407 9.02812 5.75161 8.74551L9.23607 5.06403C9.50317 4.78182 9.9377 4.78176 10.2048 5.06397C10.3342 5.20067 10.4055 5.38243 10.4055 5.57574C10.4055 5.76905 10.3342 5.95075 10.2048 6.0875L4.87663 11.7172C4.07533 12.5637 2.77162 12.5639 1.97037 11.7173C1.16913 10.8706 1.16907 9.49312 1.97023 8.64649L7.78294 2.50505C9.11847 1.09403 11.2914 1.09403 12.6267 2.50505C13.2737 3.18852 13.63 4.0973 13.63 5.06391C13.63 6.03052 13.2737 6.9393 12.6267 7.62283L6.81409 13.7645C6.54661 14.0471 6.54661 14.5054 6.81415 14.788C6.94792 14.9294 7.12323 15 7.29852 15C7.47383 15 7.64914 14.9293 7.78291 14.788L13.5954 8.64643C14.5012 7.68954 15 6.41726 15 5.06394C15 3.71065 14.5012 2.43837 13.5955 1.48148Z" fill="#222B45"/>
</svg>
