<svg width="16" height="16" viewBox="0 0 16 16" fill="none" xmlns="http://www.w3.org/2000/svg">
<path d="M10.6667 6.09309C10.6267 5.29976 9.96667 4.66642 9.16667 4.66642H8.66667V3.33309C8.66667 1.49509 7.17133 -0.000244141 5.33333 -0.000244141C3.49533 -0.000244141 2 1.49509 2 3.33309V4.66642H1.5C0.673333 4.66642 0 5.33976 0 6.16642V11.8331C0 12.6598 0.673333 13.3331 1.5 13.3331H6.24667C6.08667 12.8064 6 12.2464 6 11.6664C6 8.87976 8.01333 6.55976 10.6667 6.09309ZM3.33333 4.66642V3.33309C3.33333 2.23042 4.23067 1.33309 5.33333 1.33309C6.436 1.33309 7.33333 2.23042 7.33333 3.33309V4.66642H3.33333Z" fill="white"/>
<path d="M11.6667 7.33309C9.27733 7.33309 7.33333 9.27709 7.33333 11.6664C7.33333 14.0558 9.27733 15.9998 11.6667 15.9998C14.056 15.9998 16 14.0558 16 11.6664C16 9.27709 14.056 7.33309 11.6667 7.33309ZM11.6667 8.66642C12.2527 8.66642 12.7953 8.84176 13.2573 9.13309L9.13333 13.2571C8.842 12.7944 8.66667 12.2518 8.66667 11.6664C8.66667 10.0124 10.0127 8.66642 11.6667 8.66642ZM11.6667 14.6664C11.0807 14.6664 10.538 14.4911 10.076 14.1998L14.2007 10.0758C14.492 10.5378 14.6673 11.0804 14.6673 11.6664C14.6667 13.3204 13.3207 14.6664 11.6667 14.6664Z" fill="white"/>
</svg>
