<svg width="16" height="15" viewBox="0 0 16 15" fill="none" xmlns="http://www.w3.org/2000/svg">
<path d="M6.68152 4.54088C3.28915 4.54088 0.500031 6.87375 0.500031 9.74136C0.500031 10.8876 0.94464 12.0526 1.76 12.9555L0.608605 14.2713C0.495314 14.4009 0.467834 14.585 0.539523 14.7421C0.610773 14.8991 0.766984 15 0.939484 15H7.12097C9.62571 15 12.863 12.8431 12.863 9.74136C12.863 6.87375 10.0739 4.54088 6.68152 4.54088ZM4.01556 10.5469C3.53105 10.5469 3.13669 10.1525 3.13669 9.66797C3.13669 9.18345 3.53108 8.78908 4.01556 8.78908C4.50005 8.78908 4.89444 9.18348 4.89444 9.66797C4.89447 10.1525 4.50008 10.5469 4.01556 10.5469ZM6.68152 10.5469C6.19701 10.5469 5.80264 10.1525 5.80264 9.66797C5.80264 9.18345 6.19704 8.78908 6.68152 8.78908C7.166 8.78908 7.56039 9.18348 7.56039 9.66797C7.56039 10.1525 7.16603 10.5469 6.68152 10.5469ZM9.34747 10.5469C8.86296 10.5469 8.4686 10.1525 8.4686 9.66797C8.4686 9.18345 8.86299 8.78908 9.34747 8.78908C9.83195 8.78908 10.2263 9.18348 10.2263 9.66797C10.2263 10.1525 9.83198 10.5469 9.34747 10.5469Z" fill="white"/>
<path d="M15.3937 8.94224L14.359 7.73504C15.0976 6.90164 15.4997 5.88537 15.4997 4.83397C15.4997 2.16851 12.9368 0 9.78693 0C6.93854 0 4.51859 1.77511 4.0913 4.08554C4.88606 3.81547 5.77736 3.66195 6.68155 3.66195C10.5298 3.66195 13.6914 6.34985 13.7376 9.66794H15.0602C15.4356 9.66797 15.6372 9.22593 15.3937 8.94224Z" fill="white"/>
</svg>
