<svg width="15" height="15" viewBox="0 0 15 15" fill="none" xmlns="http://www.w3.org/2000/svg">
<path d="M0.732335 15C0.328077 15 -1.57389e-05 14.6719 -1.57389e-05 14.2677C-1.57389e-05 14.0743 0.0761488 13.8868 0.213831 13.7492L13.7477 0.215311C14.0348 -0.0717704 14.4976 -0.0717704 14.7847 0.215311C15.0718 0.502393 15.0718 0.965239 14.7847 1.25232L1.25084 14.7862C1.11316 14.9238 0.925676 15 0.732335 15Z" fill="white"/>
<path d="M14.2646 15C14.0713 15 13.8838 14.9238 13.7461 14.7862L0.212259 1.25232C-0.0748222 0.965239 -0.0748222 0.502393 0.212259 0.215311C0.499341 -0.0717704 0.962187 -0.0717704 1.24927 0.215311L14.7831 13.7492C15.0702 14.0362 15.0702 14.4991 14.7831 14.7862C14.6454 14.9238 14.4579 15 14.2646 15Z" fill="white"/>
</svg>
