<svg width="16" height="15" viewBox="0 0 16 15" fill="none" xmlns="http://www.w3.org/2000/svg">
<path d="M8.5 10C8.5 8.89543 9.39543 8 10.5 8H13.5C14.6046 8 15.5 8.89543 15.5 10V13C15.5 14.1046 14.6046 15 13.5 15H10.5C9.39543 15 8.5 14.1046 8.5 13V10Z" fill="white"/>
<path d="M8.5 2C8.5 0.89543 9.39543 0 10.5 0H13.5C14.6046 0 15.5 0.895431 15.5 2V5C15.5 6.10457 14.6046 7 13.5 7H10.5C9.39543 7 8.5 6.10457 8.5 5V2Z" fill="white"/>
<path d="M0.5 2C0.5 0.89543 1.39543 0 2.5 0H5.5C6.60457 0 7.5 0.895431 7.5 2V5C7.5 6.10457 6.60457 7 5.5 7H2.5C1.39543 7 0.5 6.10457 0.5 5V2Z" fill="white"/>
<path d="M0.5 10C0.5 8.89543 1.39543 8 2.5 8H5.5C6.60457 8 7.5 8.89543 7.5 10V13C7.5 14.1046 6.60457 15 5.5 15H2.5C1.39543 15 0.5 14.1046 0.5 13V10Z" fill="white"/>
</svg>
