<svg width="14" height="15" viewBox="0 0 14 15" fill="none" xmlns="http://www.w3.org/2000/svg">
<path d="M8.62452 0H5.37548C5.01743 0 4.72414 0.281982 4.72414 0.626221V2.18994C4.72414 2.53418 5.01743 2.81616 5.37548 2.81616H8.62452C8.98257 2.81616 9.27586 2.53418 9.27586 2.18994V0.626221C9.27586 0.281982 8.98257 0 8.62452 0Z" fill="white"/>
<path d="M12.2011 1.24878H10.251V2.49756C10.251 3.18603 9.66437 3.74634 8.9521 3.74634H5.05171C4.33563 3.74634 3.75286 3.18237 3.75286 2.49756V1.24878H1.79886C1.08658 1.24878 0.5 1.81274 0.5 2.50122V13.7512C0.5 14.4397 1.08658 15 1.79886 15H12.2011C12.9172 15 13.5 14.436 13.5 13.7512V2.50122C13.5 1.81274 12.9172 1.24878 12.2011 1.24878ZM3.10152 6.25122H7.0019V7.5H3.10152V6.25122ZM3.10152 12.4988V11.25H9.60343V12.4988H3.10152ZM10.9023 10.0012H3.10152V8.75244H10.9023V10.0012Z" fill="white"/>
</svg>
