<svg width="15" height="15" viewBox="0 0 15 15" fill="none" xmlns="http://www.w3.org/2000/svg">
<path d="M9.96814 5.46753C7.46927 5.46753 5.43628 7.50052 5.43628 9.99939C5.43628 12.4983 7.46927 14.5312 9.96814 14.5312C12.467 14.5312 14.5 12.4983 14.5 9.99939C14.5 7.50052 12.467 5.46753 9.96814 5.46753ZM9.96814 9.5874C10.6497 9.5874 11.2041 10.1418 11.2041 10.8234C11.2041 11.3598 10.8586 11.8128 10.3801 11.9834V12.8833H9.55615V11.9834C9.07764 11.8128 8.73218 11.3598 8.73218 10.8234H9.55615C9.55615 11.0507 9.74083 11.2354 9.96814 11.2354C10.1954 11.2354 10.3801 11.0507 10.3801 10.8234C10.3801 10.5961 10.1954 10.4114 9.96814 10.4114C9.2866 10.4114 8.73218 9.85695 8.73218 9.17542C8.73218 8.63901 9.07764 8.18599 9.55615 8.01534V7.11548H10.3801V8.01534C10.8586 8.18599 11.2041 8.63901 11.2041 9.17542H10.3801C10.3801 8.94811 10.1954 8.76343 9.96814 8.76343C9.74083 8.76343 9.55615 8.94811 9.55615 9.17542C9.55615 9.40272 9.74083 9.5874 9.96814 9.5874Z" fill="white"/>
<path d="M5.02429 5.46753C7.56543 5.46753 9.55615 4.38164 9.55615 2.99561C9.55615 1.60957 7.56543 0.46875 5.02429 0.46875C2.48315 0.46875 0.4375 1.60957 0.4375 2.99561C0.4375 4.38164 2.48315 5.46753 5.02429 5.46753Z" fill="white"/>
<path d="M0.4375 9.74008V10.4114C0.4375 11.7974 2.48315 12.8833 5.02429 12.8833C5.16843 12.8833 5.3081 12.87 5.45001 12.8631C5.13399 12.3662 4.89831 11.8149 4.75952 11.2254C2.92192 11.1747 1.32635 10.61 0.4375 9.74008Z" fill="white"/>
<path d="M4.63211 10.3904C4.62266 10.2608 4.6123 10.1314 4.6123 9.99939C4.6123 9.56991 4.66858 9.15424 4.76455 8.75373C2.92467 8.70388 1.32715 8.13891 0.4375 7.26816V7.93945C0.4375 9.25196 2.28491 10.2834 4.63211 10.3904Z" fill="white"/>
<path d="M5.02429 7.93945C5.02473 7.93945 5.02509 7.9394 5.02556 7.9394C5.29728 7.29 5.69226 6.70459 6.18277 6.21411C5.81069 6.26113 5.42617 6.2915 5.02429 6.2915C3.06826 6.2915 1.36931 5.70821 0.4375 4.79624V5.46753C0.4375 6.85356 2.48315 7.93945 5.02429 7.93945Z" fill="white"/>
</svg>
