<svg width="15" height="15" viewBox="0 0 15 15" fill="none" xmlns="http://www.w3.org/2000/svg">
<g opacity="0.5">
<path d="M9.375 8.12402C9.0293 8.12402 8.75098 8.40527 8.75098 8.74805V11.25C8.75098 11.5957 8.46973 11.874 8.12695 11.874H6.25195V2.49902C6.25195 1.96582 5.91211 1.48828 5.39941 1.30957L5.21484 1.24805H8.12695C8.47266 1.24805 8.75098 1.5293 8.75098 1.87207V3.74707C8.75098 4.09277 9.0293 4.37109 9.375 4.37109C9.7207 4.37109 9.99902 4.08984 9.99902 3.74707V1.875C9.99902 0.84082 9.1582 0 8.12402 0H1.40625C1.38281 0 1.3623 0.0117188 1.33887 0.0146484C1.30957 0.0117188 1.28027 0 1.24805 0C0.55957 0 0 0.55957 0 1.25098V12.501C0 13.0342 0.339844 13.5117 0.852539 13.6904L4.61133 14.9414C4.74023 14.9795 4.86621 15 4.99805 15C5.68652 15 6.24902 14.4404 6.24902 13.749V13.125H8.12402C9.1582 13.125 9.99902 12.2842 9.99902 11.25V8.75098C9.99902 8.40527 9.7207 8.12402 9.375 8.12402Z" fill="white"/>
<path d="M14.8156 5.80714L12.3166 3.30812C12.1379 3.12941 11.8683 3.07667 11.6369 3.17335C11.4025 3.27003 11.2502 3.49855 11.2502 3.7505V5.6255H8.75116C8.40546 5.6255 8.12714 5.90675 8.12714 6.24953C8.12714 6.5923 8.40839 6.87355 8.75116 6.87355H11.2502V8.74855C11.2502 9.0005 11.4025 9.22902 11.6369 9.3257C11.8713 9.42238 12.1408 9.36964 12.3166 9.19093L14.8156 6.69191C15.0617 6.44874 15.0617 6.05324 14.8156 5.80714Z" fill="white"/>
</g>
</svg>
