<svg width="18" height="12" viewBox="0 0 18 12" fill="none" xmlns="http://www.w3.org/2000/svg">
<path d="M9.00003 8.77264C10.5305 8.77264 11.7712 7.53196 11.7712 6.00151C11.7712 4.47105 10.5305 3.23038 9.00003 3.23038C7.46958 3.23038 6.2289 4.47105 6.2289 6.00151C6.2289 7.53196 7.46958 8.77264 9.00003 8.77264Z" fill="#7D91AE"/>
<path d="M17.7239 5.2339C15.5938 2.65987 12.3694 0.182129 9.00004 0.182129C5.62999 0.182129 2.40484 2.6616 0.276161 5.2339C-0.0920536 5.67867 -0.0920536 6.32435 0.276161 6.76911C0.811336 7.41583 1.9333 8.66422 3.43179 9.75501C7.20569 12.5023 10.7861 12.5084 14.5683 9.75501C16.0668 8.66422 17.1887 7.41583 17.7239 6.76911C18.0911 6.32521 18.093 5.68013 17.7239 5.2339ZM9.00004 2.12192C11.1393 2.12192 12.8796 3.86219 12.8796 6.00151C12.8796 8.14082 11.1393 9.88109 9.00004 9.88109C6.86072 9.88109 5.12045 8.14082 5.12045 6.00151C5.12045 3.86219 6.86072 2.12192 9.00004 2.12192Z" fill="#7D91AE"/>
</svg>
