<svg width="17" height="9" viewBox="0 0 17 9" fill="none" xmlns="http://www.w3.org/2000/svg">
<path d="M0.194778 4.95668L0.195375 4.95729L3.66523 8.31213C3.92518 8.56345 4.34563 8.56252 4.60438 8.30994C4.8631 8.05739 4.86211 7.64891 4.60216 7.39755L2.27249 5.14516L16.3359 5.14516C16.7027 5.14516 17 4.85632 17 4.5C17 4.14368 16.7027 3.85484 16.3359 3.85484L2.27253 3.85484L4.60213 1.60245C4.86207 1.35109 4.86307 0.942609 4.60435 0.690061C4.3456 0.437448 3.92511 0.436577 3.6652 0.687868L0.195343 4.04271L0.194744 4.04332C-0.0653366 4.29552 -0.064505 4.70532 0.194778 4.95668Z" fill="#222B45"/>
</svg>
