<svg width="17" height="9" viewBox="0 0 17 9" fill="none" xmlns="http://www.w3.org/2000/svg">
<path d="M16.8052 3.85192L16.8046 3.85131L13.3348 0.496465C13.0748 0.245142 12.6544 0.246077 12.3956 0.498658C12.1369 0.751207 12.1379 1.15969 12.3978 1.41105L14.7275 3.66344L0.664062 3.66343C0.2973 3.66343 -6.37081e-07 3.95227 -6.99382e-07 4.30859C-7.61684e-07 4.66492 0.2973 4.95376 0.664061 4.95376L14.7275 4.95376L12.3979 7.20615C12.1379 7.4575 12.1369 7.86599 12.3956 8.11854C12.6544 8.37115 13.0749 8.37202 13.3348 8.12073L16.8047 4.76589L16.8053 4.76528C17.0653 4.51308 17.0645 4.10328 16.8052 3.85192Z" fill="#4477FB"/>
</svg>
