<svg width="15" height="14" viewBox="0 0 15 14" fill="none" xmlns="http://www.w3.org/2000/svg">
<path d="M10.9091 2.1C10.9091 1.68466 11.0291 1.27865 11.2538 0.933303C11.4786 0.58796 11.798 0.318798 12.1718 0.159854C12.5455 0.000909906 12.9568 -0.0406771 13.3536 0.0403518C13.7504 0.121381 14.1148 0.321386 14.4009 0.615077C14.687 0.908767 14.8818 1.28295 14.9607 1.69031C15.0396 2.09767 14.9991 2.51991 14.8443 2.90364C14.6895 3.28736 14.4273 3.61533 14.0909 3.84609C13.7546 4.07684 13.3591 4.2 12.9545 4.2C12.4121 4.2 11.8918 3.97875 11.5082 3.58492C11.1246 3.1911 10.9091 2.65695 10.9091 2.1ZM0.681818 2.8H8.86364C9.04447 2.8 9.21789 2.72625 9.34575 2.59497C9.47362 2.4637 9.54545 2.28565 9.54545 2.1C9.54545 1.91435 9.47362 1.7363 9.34575 1.60503C9.21789 1.47375 9.04447 1.4 8.86364 1.4H0.681818C0.500989 1.4 0.327566 1.47375 0.1997 1.60503C0.0718342 1.7363 0 1.91435 0 2.1C0 2.28565 0.0718342 2.4637 0.1997 2.59497C0.327566 2.72625 0.500989 2.8 0.681818 2.8ZM4.77273 4.9C4.35072 4.90122 3.93941 5.03641 3.59518 5.28706C3.25096 5.5377 2.99067 5.89151 2.85 6.3H0.681818C0.500989 6.3 0.327566 6.37375 0.1997 6.50502C0.0718342 6.6363 0 6.81435 0 7C0 7.18565 0.0718342 7.3637 0.1997 7.49497C0.327566 7.62625 0.500989 7.7 0.681818 7.7H2.85C2.97508 8.06321 3.19507 8.3841 3.48589 8.62755C3.77672 8.871 4.12716 9.02762 4.49888 9.08028C4.8706 9.13294 5.24927 9.0796 5.59344 8.92611C5.93761 8.77261 6.23402 8.52488 6.45023 8.21001C6.66645 7.89515 6.79413 7.52529 6.81931 7.14091C6.84449 6.75653 6.7662 6.37245 6.593 6.03069C6.4198 5.68894 6.15837 5.40268 5.83732 5.20326C5.51626 5.00383 5.14797 4.89892 4.77273 4.9ZM14.3182 6.3H8.86364C8.68281 6.3 8.50938 6.37375 8.38152 6.50502C8.25365 6.6363 8.18182 6.81435 8.18182 7C8.18182 7.18565 8.25365 7.3637 8.38152 7.49497C8.50938 7.62625 8.68281 7.7 8.86364 7.7H14.3182C14.499 7.7 14.6724 7.62625 14.8003 7.49497C14.9282 7.3637 15 7.18565 15 7C15 6.81435 14.9282 6.6363 14.8003 6.50502C14.6724 6.37375 14.499 6.3 14.3182 6.3ZM6.13636 11.2H0.681818C0.500989 11.2 0.327566 11.2737 0.1997 11.405C0.0718342 11.5363 0 11.7143 0 11.9C0 12.0856 0.0718342 12.2637 0.1997 12.395C0.327566 12.5262 0.500989 12.6 0.681818 12.6H6.13636C6.31719 12.6 6.49062 12.5262 6.61848 12.395C6.74635 12.2637 6.81818 12.0856 6.81818 11.9C6.81818 11.7143 6.74635 11.5363 6.61848 11.405C6.49062 11.2737 6.31719 11.2 6.13636 11.2ZM14.3182 11.2H12.15C11.9892 10.7329 11.6727 10.3393 11.2565 10.0887C10.8403 9.838 10.3512 9.74647 9.87564 9.83024C9.40007 9.91401 8.96866 10.1677 8.65765 10.5464C8.34665 10.9252 8.17607 11.4046 8.17607 11.9C8.17607 12.3954 8.34665 12.8748 8.65765 13.2536C8.96866 13.6323 9.40007 13.886 9.87564 13.9698C10.3512 14.0535 10.8403 13.962 11.2565 13.7113C11.6727 13.4607 11.9892 13.067 12.15 12.6H14.3182C14.499 12.6 14.6724 12.5262 14.8003 12.395C14.9282 12.2637 15 12.0856 15 11.9C15 11.7143 14.9282 11.5363 14.8003 11.405C14.6724 11.2737 14.499 11.2 14.3182 11.2Z" fill="#222B45"/>
</svg>
