<svg width="15" height="15" viewBox="0 0 15 15" fill="none" xmlns="http://www.w3.org/2000/svg">
<path d="M6.2184 11.4329L4.45088 13.2004C3.7181 13.9332 2.53143 13.9332 1.79926 13.2006C1.06695 12.4683 1.06695 11.2815 1.79912 10.5493L5.33477 7.01364C6.06694 6.28145 7.25373 6.28145 7.98589 7.01364C8.22997 7.25771 8.62571 7.25771 8.86978 7.01364C9.11386 6.76957 9.11386 6.37382 8.86978 6.12975C7.64944 4.90941 5.67122 4.90941 4.45088 6.12975L0.915254 9.66537C-0.305085 10.8857 -0.305085 12.8639 0.915254 14.0843C2.13545 15.3053 4.11382 15.3053 5.3348 14.0843L7.10232 12.3168C7.3464 12.0727 7.3464 11.6769 7.10232 11.4329C6.85825 11.1888 6.46247 11.1888 6.2184 11.4329Z" fill="#222B45"/>
<path d="M14.0844 0.915254C12.8641 -0.305085 10.8852 -0.305085 9.66485 0.915254L7.54421 3.03589C7.30014 3.27997 7.30014 3.67571 7.54421 3.91978C7.78828 4.16386 8.18403 4.16386 8.4281 3.91978L10.5487 1.79915C11.2809 1.06695 12.4683 1.06695 13.2005 1.79915C13.9327 2.53131 13.9327 3.7181 13.2005 4.45026L9.31173 8.33907C8.57954 9.07126 7.39277 9.07126 6.66061 8.33907C6.41654 8.09499 6.02079 8.09499 5.77672 8.33907C5.53264 8.58314 5.53264 8.97888 5.77672 9.22296C6.99706 10.4433 8.97528 10.4433 10.1956 9.22296L14.0844 5.33419C15.3047 4.11385 15.3047 2.13559 14.0844 0.915254Z" fill="#222B45"/>
</svg>
