<svg width="118" height="118" viewBox="0 0 118 118" fill="none" xmlns="http://www.w3.org/2000/svg">
<g clip-path="url(#clip0_87_10617)">
<path d="M59 111.614C88.0581 111.614 111.614 88.0581 111.614 59C111.614 29.942 88.0581 6.38574 59 6.38574C29.942 6.38574 6.38574 29.942 6.38574 59C6.38574 88.0581 29.942 111.614 59 111.614Z" fill="white"/>
<path d="M59 0C47.3309 0 35.9239 3.46029 26.2214 9.94329C16.5189 16.4263 8.9567 25.6408 4.49113 36.4217C0.0255636 47.2025 -1.14283 59.0655 1.1337 70.5103C3.41022 81.9552 9.02943 92.468 17.2807 100.719C25.532 108.971 36.0448 114.59 47.4897 116.866C58.9346 119.143 70.7975 117.974 81.5783 113.509C92.3592 109.043 101.574 101.481 108.057 91.7786C114.54 82.0761 118 70.6691 118 59C118.023 51.2745 116.523 43.6202 113.588 36.4742C110.652 29.3282 106.338 22.8303 100.891 17.3516C95.444 11.873 88.9714 7.52079 81.8426 4.54359C74.7138 1.5664 67.0684 0.0224795 59.3429 0H59ZM60 61L53.8572 81.7143H86.7143C86.932 81.7067 87.149 81.742 87.353 81.8183C87.5569 81.8946 87.7439 82.0103 87.9031 82.1589C88.0623 82.3075 88.1907 82.4861 88.2808 82.6843C88.371 82.8826 88.4212 83.0966 88.4286 83.3143V83.8571L85.5715 93.7143C85.4455 94.1804 85.1647 94.5899 84.7754 94.8755C84.386 95.161 83.9111 95.3057 83.4286 95.2857H33.1429L41.5715 66.5714L32.1429 69.4286L34.2857 62.8571L43.7143 60L55.5715 19.7143C55.702 19.2508 55.9839 18.8442 56.3722 18.5594C56.7605 18.2747 57.233 18.128 57.7143 18.1429H70.4286C70.6462 18.1352 70.8633 18.1706 71.0672 18.2469C71.2712 18.3232 71.4582 18.4389 71.6174 18.5875C71.7766 18.7361 71.905 18.9146 71.9951 19.1129C72.0853 19.3111 72.1355 19.5252 72.1429 19.7429V20.2857L62.1429 54.2857L71.5714 51.4286L69.5715 58.2857L60 61Z" fill="#345D9D"/>
</g>
<defs>
<clipPath id="clip0_87_10617">
<rect width="118" height="118" fill="white"/>
</clipPath>
</defs>
</svg>
