<svg width="12" height="15" viewBox="0 0 12 15" fill="none" xmlns="http://www.w3.org/2000/svg">
<path d="M5.9111 7.22441C6.86312 7.22441 7.68597 6.867 8.35996 6.16682C9.03396 5.46372 9.37377 4.60534 9.37377 3.61221C9.37377 2.61907 9.03116 1.76069 8.35996 1.05759C7.68597 0.354482 6.86312 0 5.9111 0C4.95907 0 4.13623 0.357412 3.46223 1.05759C2.78823 1.75776 2.44562 2.61907 2.44562 3.61221C2.44562 4.60534 2.78823 5.46372 3.45943 6.16682C4.13343 6.86993 4.95907 7.22441 5.9111 7.22441Z" fill="white"/>
<path d="M11.9691 11.5343C11.9494 11.2413 11.9101 10.922 11.854 10.5851C11.795 10.2452 11.7192 9.92592 11.6293 9.63296C11.5366 9.33121 11.4102 9.02946 11.253 8.74529C11.0901 8.44647 10.8991 8.18866 10.6857 7.9748C10.461 7.75215 10.1886 7.57344 9.87128 7.44161C9.55675 7.31271 9.20571 7.24533 8.8322 7.24533C8.68617 7.24533 8.54294 7.30685 8.27054 7.49434C8.10204 7.6086 7.90545 7.74043 7.68359 7.88984C7.49544 8.01581 7.23988 8.133 6.92534 8.23847C6.61924 8.341 6.3047 8.39373 5.9986 8.39373C5.69249 8.39373 5.37795 8.341 5.07185 8.23847C4.75731 8.133 4.50175 8.01581 4.3136 7.88984C4.09455 7.74336 3.89796 7.61153 3.72666 7.49434C3.45144 7.30685 3.31102 7.24533 3.16499 7.24533C2.79148 7.24533 2.44044 7.31271 2.12591 7.44161C1.80857 7.57344 1.53616 7.75215 1.31149 7.9748C1.09806 8.18866 0.907091 8.44647 0.744208 8.74529C0.586941 9.03239 0.460566 9.33121 0.367891 9.63296C0.278025 9.92592 0.2022 10.2452 0.143225 10.5851C0.0842499 10.922 0.0449333 11.2413 0.0280833 11.5343C0.00842499 11.8214 0 12.1202 0 12.419C0 13.2012 0.238708 13.8369 0.707699 14.3028C1.17669 14.7656 1.79172 15 2.53873 15H9.46127C10.2083 15 10.8233 14.7656 11.2895 14.3057C11.7613 13.8399 12 13.2042 12 12.4219C12 12.1173 11.9888 11.8214 11.9691 11.5343Z" fill="white"/>
</svg>
