<svg width="36" height="35" viewBox="0 0 36 35" fill="none" xmlns="http://www.w3.org/2000/svg">
<path d="M31.8518 6.87803C29.5784 3.90453 26.3559 1.69966 22.7761 0.674812L22.0364 0.461903V5.72688H22.0688V8.91329H15.0681C13.6571 8.91329 12.3328 9.47263 11.344 10.483C10.3553 11.4971 9.8284 12.8323 9.86088 14.2468C9.89336 15.6001 10.4707 16.8811 11.492 17.8482C12.5024 18.8081 13.8051 19.335 15.1656 19.335H20.4089C21.3219 19.335 22.0652 20.0459 22.0724 20.9192C22.0761 21.3486 21.9101 21.7528 21.6069 22.0559C21.3038 22.359 20.9033 22.525 20.4774 22.525H15.0681C12.7911 22.525 10.6584 21.6265 9.06337 19.9918C7.46836 18.357 6.61673 16.2027 6.67086 13.9221C6.77912 9.40406 10.6223 5.72688 15.2377 5.72688C17.2152 5.72688 18.8211 4.11743 18.8211 2.14352V0.0144345L18.2545 0C18.1499 0 18.0452 0 17.9406 0C8.29113 0 0.442383 7.84875 0.442383 17.4982C0.442383 21.3702 1.68014 25.0366 4.02213 28.1075C6.28835 31.0774 9.50363 33.2823 13.0726 34.3144L13.8123 34.5273V26.0867H20.7228C22.0833 26.0867 23.386 25.5599 24.3964 24.6C25.4176 23.6292 25.995 22.3518 26.0275 20.9986C26.06 19.584 25.5331 18.2488 24.5444 17.2348C23.5556 16.2207 22.2312 15.665 20.8203 15.665H15.4795C15.032 15.665 14.5954 15.4846 14.2778 15.167C13.9783 14.8675 13.8159 14.4778 13.8159 14.0664C13.8159 13.6406 13.9819 13.2436 14.2814 12.9441C14.581 12.6446 14.9851 12.4786 15.4109 12.4786H20.647C25.2625 12.4786 29.1056 16.1558 29.2139 20.6738C29.268 22.9508 28.4164 25.1052 26.8214 26.7399C25.2264 28.3746 23.0937 29.2731 20.8166 29.2731C18.7309 29.2731 17.0312 30.9692 17.0312 33.0586V34.9711L17.5869 34.9964C17.7096 35 17.8287 35 17.9406 35C27.59 35 35.4388 27.1476 35.4388 17.4982C35.4424 13.6225 34.201 9.94896 31.8518 6.87803Z" fill="white"/>
</svg>
