<svg width="247" height="36" viewBox="0 0 247 36" fill="none" xmlns="http://www.w3.org/2000/svg">
<g clip-path="url(#clip0_1_7008)">
<path d="M31.8518 6.87803C29.5784 3.90453 26.3559 1.69966 22.7761 0.674812L22.0364 0.461903V5.72688H22.0688V8.91329H15.0681C13.6571 8.91329 12.3328 9.47263 11.344 10.483C10.3553 11.4971 9.8284 12.8323 9.86088 14.2468C9.89336 15.6001 10.4707 16.8811 11.492 17.8482C12.5024 18.8081 13.8051 19.335 15.1656 19.335H20.4089C21.3219 19.335 22.0652 20.0459 22.0724 20.9192C22.0761 21.3486 21.9101 21.7528 21.6069 22.0559C21.3038 22.359 20.9033 22.525 20.4774 22.525H15.0681C12.7911 22.525 10.6584 21.6265 9.06337 19.9918C7.46836 18.357 6.61673 16.2027 6.67086 13.9221C6.77912 9.40406 10.6223 5.72688 15.2377 5.72688C17.2152 5.72688 18.8211 4.11743 18.8211 2.14352V0.0144345L18.2545 0C18.1499 0 18.0452 0 17.9406 0C8.29113 0 0.442383 7.84875 0.442383 17.4982C0.442383 21.3702 1.68014 25.0366 4.02213 28.1075C6.28835 31.0774 9.50363 33.2823 13.0726 34.3144L13.8123 34.5273V26.0867H20.7228C22.0833 26.0867 23.386 25.5599 24.3964 24.6C25.4176 23.6292 25.995 22.3518 26.0275 20.9986C26.06 19.584 25.5331 18.2488 24.5444 17.2348C23.5556 16.2207 22.2312 15.665 20.8203 15.665H15.4795C15.032 15.665 14.5954 15.4846 14.2778 15.167C13.9783 14.8675 13.8159 14.4778 13.8159 14.0664C13.8159 13.6406 13.9819 13.2436 14.2814 12.9441C14.581 12.6446 14.9851 12.4786 15.4109 12.4786H20.647C25.2625 12.4786 29.1056 16.1558 29.2139 20.6738C29.268 22.9508 28.4164 25.1052 26.8214 26.7399C25.2264 28.3746 23.0937 29.2731 20.8166 29.2731C18.7309 29.2731 17.0312 30.9692 17.0312 33.0586V34.9711L17.5869 34.9964C17.7096 35 17.8287 35 17.9406 35C27.59 35 35.4388 27.1476 35.4388 17.4982C35.4424 13.6225 34.201 9.94896 31.8518 6.87803Z" fill="white"/>
</g>
<path d="M53.6824 3.44V7.14H60.1624V9.74H53.6824V14.84H50.4424V0.84H61.0224V3.44H53.6824Z" fill="white"/>
<path d="M65.7805 5.5C66.1538 4.98 66.6538 4.58667 67.2805 4.32C67.9205 4.05333 68.6538 3.92 69.4805 3.92V6.8C69.1338 6.77333 68.9005 6.76 68.7805 6.76C67.8872 6.76 67.1872 7.01333 66.6805 7.52C66.1738 8.01333 65.9205 8.76 65.9205 9.76V14.84H62.8005V4.08H65.7805V5.5Z" fill="white"/>
<path d="M81.778 9.5C81.778 9.54 81.758 9.82 81.718 10.34H73.578C73.7247 11.0067 74.0713 11.5333 74.618 11.92C75.1647 12.3067 75.8447 12.5 76.658 12.5C77.218 12.5 77.7113 12.42 78.138 12.26C78.578 12.0867 78.9847 11.82 79.358 11.46L81.018 13.26C80.0047 14.42 78.5247 15 76.578 15C75.3647 15 74.2913 14.7667 73.358 14.3C72.4247 13.82 71.7047 13.16 71.198 12.32C70.6913 11.48 70.438 10.5267 70.438 9.46C70.438 8.40667 70.6847 7.46 71.178 6.62C71.6847 5.76667 72.3713 5.10667 73.238 4.64C74.118 4.16 75.098 3.92 76.178 3.92C77.2313 3.92 78.1847 4.14667 79.038 4.6C79.8913 5.05333 80.558 5.70667 81.038 6.56C81.5313 7.4 81.778 8.38 81.778 9.5ZM76.198 6.28C75.4913 6.28 74.898 6.48 74.418 6.88C73.938 7.28 73.6447 7.82667 73.538 8.52H78.838C78.7313 7.84 78.438 7.3 77.958 6.9C77.478 6.48667 76.8913 6.28 76.198 6.28Z" fill="white"/>
<path d="M94.3952 9.5C94.3952 9.54 94.3752 9.82 94.3352 10.34H86.1952C86.3419 11.0067 86.6885 11.5333 87.2352 11.92C87.7819 12.3067 88.4619 12.5 89.2752 12.5C89.8352 12.5 90.3285 12.42 90.7552 12.26C91.1952 12.0867 91.6019 11.82 91.9752 11.46L93.6352 13.26C92.6219 14.42 91.1419 15 89.1952 15C87.9819 15 86.9085 14.7667 85.9752 14.3C85.0419 13.82 84.3219 13.16 83.8152 12.32C83.3085 11.48 83.0552 10.5267 83.0552 9.46C83.0552 8.40667 83.3019 7.46 83.7952 6.62C84.3019 5.76667 84.9885 5.10667 85.8552 4.64C86.7352 4.16 87.7152 3.92 88.7952 3.92C89.8485 3.92 90.8019 4.14667 91.6552 4.6C92.5085 5.05333 93.1752 5.70667 93.6552 6.56C94.1485 7.4 94.3952 8.38 94.3952 9.5ZM88.8152 6.28C88.1085 6.28 87.5152 6.48 87.0352 6.88C86.5552 7.28 86.2619 7.82667 86.1552 8.52H91.4552C91.3485 7.84 91.0552 7.3 90.5752 6.9C90.0952 6.48667 89.5085 6.28 88.8152 6.28Z" fill="white"/>
<path d="M103.392 15.08C101.966 15.08 100.672 14.7733 99.5124 14.16C98.3657 13.5333 97.459 12.6733 96.7924 11.58C96.139 10.4733 95.8124 9.22667 95.8124 7.84C95.8124 6.45333 96.139 5.21333 96.7924 4.12C97.459 3.01333 98.3657 2.15333 99.5124 1.54C100.672 0.913334 101.972 0.600001 103.412 0.600001C104.626 0.600001 105.719 0.813334 106.692 1.24C107.679 1.66667 108.506 2.28 109.172 3.08L107.092 5C106.146 3.90667 104.972 3.36 103.572 3.36C102.706 3.36 101.932 3.55333 101.252 3.94C100.572 4.31333 100.039 4.84 99.6524 5.52C99.279 6.2 99.0924 6.97333 99.0924 7.84C99.0924 8.70667 99.279 9.48 99.6524 10.16C100.039 10.84 100.572 11.3733 101.252 11.76C101.932 12.1333 102.706 12.32 103.572 12.32C104.972 12.32 106.146 11.7667 107.092 10.66L109.172 12.58C108.506 13.3933 107.679 14.0133 106.692 14.44C105.706 14.8667 104.606 15.08 103.392 15.08Z" fill="white"/>
<path d="M113.964 5.5C114.337 4.98 114.837 4.58667 115.464 4.32C116.104 4.05333 116.837 3.92 117.664 3.92V6.8C117.317 6.77333 117.084 6.76 116.964 6.76C116.071 6.76 115.371 7.01333 114.864 7.52C114.357 8.01333 114.104 8.76 114.104 9.76V14.84H110.984V4.08H113.964V5.5Z" fill="white"/>
<path d="M130.57 4.08L125.71 15.5C125.217 16.74 124.604 17.6133 123.87 18.12C123.15 18.6267 122.277 18.88 121.25 18.88C120.69 18.88 120.137 18.7933 119.59 18.62C119.044 18.4467 118.597 18.2067 118.25 17.9L119.39 15.68C119.63 15.8933 119.904 16.06 120.21 16.18C120.53 16.3 120.844 16.36 121.15 16.36C121.577 16.36 121.924 16.2533 122.19 16.04C122.457 15.84 122.697 15.5 122.91 15.02L122.95 14.92L118.29 4.08H121.51L124.53 11.38L127.57 4.08H130.57Z" fill="white"/>
<path d="M138.203 3.92C139.203 3.92 140.11 4.15333 140.923 4.62C141.75 5.07333 142.397 5.72 142.863 6.56C143.33 7.38667 143.563 8.35333 143.563 9.46C143.563 10.5667 143.33 11.54 142.863 12.38C142.397 13.2067 141.75 13.8533 140.923 14.32C140.11 14.7733 139.203 15 138.203 15C136.83 15 135.75 14.5667 134.963 13.7V18.72H131.843V4.08H134.823V5.32C135.597 4.38667 136.723 3.92 138.203 3.92ZM137.663 12.44C138.463 12.44 139.117 12.1733 139.623 11.64C140.143 11.0933 140.403 10.3667 140.403 9.46C140.403 8.55333 140.143 7.83333 139.623 7.3C139.117 6.75333 138.463 6.48 137.663 6.48C136.863 6.48 136.203 6.75333 135.683 7.3C135.177 7.83333 134.923 8.55333 134.923 9.46C134.923 10.3667 135.177 11.0933 135.683 11.64C136.203 12.1733 136.863 12.44 137.663 12.44Z" fill="white"/>
<path d="M152.592 14.32C152.285 14.5467 151.905 14.72 151.452 14.84C151.012 14.9467 150.545 15 150.052 15C148.772 15 147.779 14.6733 147.072 14.02C146.379 13.3667 146.032 12.4067 146.032 11.14V6.72H144.372V4.32H146.032V1.7H149.152V4.32H151.832V6.72H149.152V11.1C149.152 11.5533 149.265 11.9067 149.492 12.16C149.732 12.4 150.065 12.52 150.492 12.52C150.985 12.52 151.405 12.3867 151.752 12.12L152.592 14.32Z" fill="white"/>
<path d="M159.131 15C157.998 15 156.978 14.7667 156.071 14.3C155.178 13.82 154.478 13.16 153.971 12.32C153.465 11.48 153.211 10.5267 153.211 9.46C153.211 8.39333 153.465 7.44 153.971 6.6C154.478 5.76 155.178 5.10667 156.071 4.64C156.978 4.16 157.998 3.92 159.131 3.92C160.265 3.92 161.278 4.16 162.171 4.64C163.065 5.10667 163.765 5.76 164.271 6.6C164.778 7.44 165.031 8.39333 165.031 9.46C165.031 10.5267 164.778 11.48 164.271 12.32C163.765 13.16 163.065 13.82 162.171 14.3C161.278 14.7667 160.265 15 159.131 15ZM159.131 12.44C159.931 12.44 160.585 12.1733 161.091 11.64C161.611 11.0933 161.871 10.3667 161.871 9.46C161.871 8.55333 161.611 7.83333 161.091 7.3C160.585 6.75333 159.931 6.48 159.131 6.48C158.331 6.48 157.671 6.75333 157.151 7.3C156.631 7.83333 156.371 8.55333 156.371 9.46C156.371 10.3667 156.631 11.0933 157.151 11.64C157.671 12.1733 158.331 12.44 159.131 12.44Z" fill="white"/>
<path d="M180.177 0.84V14.84H177.517L170.537 6.34V14.84H167.337V0.84H170.017L176.977 9.34V0.84H180.177Z" fill="white"/>
<path d="M188.389 15C187.256 15 186.236 14.7667 185.329 14.3C184.436 13.82 183.736 13.16 183.229 12.32C182.723 11.48 182.469 10.5267 182.469 9.46C182.469 8.39333 182.723 7.44 183.229 6.6C183.736 5.76 184.436 5.10667 185.329 4.64C186.236 4.16 187.256 3.92 188.389 3.92C189.523 3.92 190.536 4.16 191.429 4.64C192.323 5.10667 193.023 5.76 193.529 6.6C194.036 7.44 194.289 8.39333 194.289 9.46C194.289 10.5267 194.036 11.48 193.529 12.32C193.023 13.16 192.323 13.82 191.429 14.3C190.536 14.7667 189.523 15 188.389 15ZM188.389 12.44C189.189 12.44 189.843 12.1733 190.349 11.64C190.869 11.0933 191.129 10.3667 191.129 9.46C191.129 8.55333 190.869 7.83333 190.349 7.3C189.843 6.75333 189.189 6.48 188.389 6.48C187.589 6.48 186.929 6.75333 186.409 7.3C185.889 7.83333 185.629 8.55333 185.629 9.46C185.629 10.3667 185.889 11.0933 186.409 11.64C186.929 12.1733 187.589 12.44 188.389 12.44Z" fill="white"/>
<path d="M207.335 0V14.84H204.355V13.6C203.581 14.5333 202.461 15 200.995 15C199.981 15 199.061 14.7733 198.235 14.32C197.421 13.8667 196.781 13.22 196.315 12.38C195.848 11.54 195.615 10.5667 195.615 9.46C195.615 8.35333 195.848 7.38 196.315 6.54C196.781 5.7 197.421 5.05333 198.235 4.6C199.061 4.14667 199.981 3.92 200.995 3.92C202.368 3.92 203.441 4.35333 204.215 5.22V0H207.335ZM201.535 12.44C202.321 12.44 202.975 12.1733 203.495 11.64C204.015 11.0933 204.275 10.3667 204.275 9.46C204.275 8.55333 204.015 7.83333 203.495 7.3C202.975 6.75333 202.321 6.48 201.535 6.48C200.735 6.48 200.075 6.75333 199.555 7.3C199.035 7.83333 198.775 8.55333 198.775 9.46C198.775 10.3667 199.035 11.0933 199.555 11.64C200.075 12.1733 200.735 12.44 201.535 12.44Z" fill="white"/>
<path d="M220.762 9.5C220.762 9.54 220.742 9.82 220.702 10.34H212.562C212.709 11.0067 213.056 11.5333 213.602 11.92C214.149 12.3067 214.829 12.5 215.642 12.5C216.202 12.5 216.696 12.42 217.122 12.26C217.562 12.0867 217.969 11.82 218.342 11.46L220.002 13.26C218.989 14.42 217.509 15 215.562 15C214.349 15 213.276 14.7667 212.342 14.3C211.409 13.82 210.689 13.16 210.182 12.32C209.676 11.48 209.422 10.5267 209.422 9.46C209.422 8.40667 209.669 7.46 210.162 6.62C210.669 5.76667 211.356 5.10667 212.222 4.64C213.102 4.16 214.082 3.92 215.162 3.92C216.216 3.92 217.169 4.14667 218.022 4.6C218.876 5.05333 219.542 5.70667 220.022 6.56C220.516 7.4 220.762 8.38 220.762 9.5ZM215.182 6.28C214.476 6.28 213.882 6.48 213.402 6.88C212.922 7.28 212.629 7.82667 212.522 8.52H217.822C217.716 7.84 217.422 7.3 216.942 6.9C216.462 6.48667 215.876 6.28 215.182 6.28Z" fill="white"/>
<path d="M50.4424 26.6299H51.1724V32.4299L55.6524 26.6299H56.3224V33.6299H55.5924V27.8399L51.1124 33.6299H50.4424V26.6299Z" fill="white"/>
<path d="M60.7146 33.6799C60.1946 33.6799 59.7279 33.5665 59.3146 33.3399C58.9079 33.1132 58.5879 32.7965 58.3546 32.3899C58.1212 31.9765 58.0046 31.5132 58.0046 30.9999C58.0046 30.4865 58.1212 30.0265 58.3546 29.6199C58.5879 29.2132 58.9079 28.8965 59.3146 28.6699C59.7279 28.4432 60.1946 28.3299 60.7146 28.3299C61.1679 28.3299 61.5712 28.4199 61.9246 28.5999C62.2846 28.7732 62.5679 29.0299 62.7746 29.3699L62.2446 29.7299C62.0712 29.4699 61.8512 29.2765 61.5846 29.1499C61.3179 29.0165 61.0279 28.9499 60.7146 28.9499C60.3346 28.9499 59.9912 29.0365 59.6846 29.2099C59.3846 29.3765 59.1479 29.6165 58.9746 29.9299C58.8079 30.2432 58.7246 30.5999 58.7246 30.9999C58.7246 31.4065 58.8079 31.7665 58.9746 32.0799C59.1479 32.3865 59.3846 32.6265 59.6846 32.7999C59.9912 32.9665 60.3346 33.0499 60.7146 33.0499C61.0279 33.0499 61.3179 32.9865 61.5846 32.8599C61.8512 32.7332 62.0712 32.5399 62.2446 32.2799L62.7746 32.6399C62.5679 32.9799 62.2846 33.2399 61.9246 33.4199C61.5646 33.5932 61.1612 33.6799 60.7146 33.6799Z" fill="white"/>
<path d="M68.8693 28.3699V33.6299H68.1593V28.9999H64.8593V33.6299H64.1493V28.3699H68.8693Z" fill="white"/>
<path d="M73.0576 33.6799C72.551 33.6799 72.0943 33.5665 71.6876 33.3399C71.281 33.1066 70.961 32.7866 70.7276 32.3799C70.4943 31.9732 70.3776 31.5132 70.3776 30.9999C70.3776 30.4865 70.4943 30.0265 70.7276 29.6199C70.961 29.2132 71.281 28.8965 71.6876 28.6699C72.0943 28.4432 72.551 28.3299 73.0576 28.3299C73.5643 28.3299 74.021 28.4432 74.4276 28.6699C74.8343 28.8965 75.1509 29.2132 75.3776 29.6199C75.611 30.0265 75.7276 30.4865 75.7276 30.9999C75.7276 31.5132 75.611 31.9732 75.3776 32.3799C75.1509 32.7866 74.8343 33.1066 74.4276 33.3399C74.021 33.5665 73.5643 33.6799 73.0576 33.6799ZM73.0576 33.0499C73.431 33.0499 73.7643 32.9665 74.0576 32.7999C74.3576 32.6265 74.591 32.3832 74.7576 32.0699C74.9243 31.7565 75.0076 31.3999 75.0076 30.9999C75.0076 30.5999 74.9243 30.2432 74.7576 29.9299C74.591 29.6165 74.3576 29.3765 74.0576 29.2099C73.7643 29.0365 73.431 28.9499 73.0576 28.9499C72.6843 28.9499 72.3476 29.0365 72.0476 29.2099C71.7543 29.3765 71.521 29.6165 71.3476 29.9299C71.181 30.2432 71.0976 30.5999 71.0976 30.9999C71.0976 31.3999 71.181 31.7565 71.3476 32.0699C71.521 32.3832 71.7543 32.6265 72.0476 32.7999C72.3476 32.9665 72.6843 33.0499 73.0576 33.0499Z" fill="white"/>
<path d="M81.5157 28.3699V33.6299H80.8057V28.9999H78.2857L78.2157 30.2999C78.1624 31.3932 78.0357 32.2332 77.8357 32.8199C77.6357 33.4065 77.2791 33.6999 76.7657 33.6999C76.6257 33.6999 76.4557 33.6732 76.2557 33.6199L76.3057 33.0099C76.4257 33.0365 76.5091 33.0499 76.5557 33.0499C76.8291 33.0499 77.0357 32.9232 77.1757 32.6699C77.3157 32.4165 77.4091 32.1032 77.4557 31.7299C77.5024 31.3565 77.5424 30.8632 77.5757 30.2499L77.6657 28.3699H81.5157Z" fill="white"/>
<path d="M85.7941 30.2299C86.4541 30.2365 86.9541 30.3832 87.2941 30.6699C87.6408 30.9565 87.8141 31.3699 87.8141 31.9099C87.8141 32.4699 87.6274 32.8999 87.2541 33.1999C86.8874 33.4999 86.3541 33.6465 85.6541 33.6399L83.5341 33.6299V28.3699H84.2441V30.2099L85.7941 30.2299ZM85.6141 33.0999C86.1008 33.1065 86.4674 33.0099 86.7141 32.8099C86.9674 32.6032 87.0941 32.3032 87.0941 31.9099C87.0941 31.5232 86.9708 31.2365 86.7241 31.0499C86.4774 30.8632 86.1074 30.7665 85.6141 30.7599L84.2441 30.7399V33.0799L85.6141 33.0999Z" fill="white"/>
<path d="M91.68 30.8899C92.0534 30.9765 92.34 31.1265 92.54 31.3399C92.7467 31.5532 92.85 31.8132 92.85 32.1199C92.85 32.4265 92.7434 32.6999 92.53 32.9399C92.3234 33.1799 92.04 33.3665 91.68 33.4999C91.32 33.6265 90.9234 33.6899 90.49 33.6899C90.11 33.6899 89.7367 33.6365 89.37 33.5299C89.0034 33.4166 88.6834 33.2532 88.41 33.0399L88.65 32.5099C88.89 32.6899 89.17 32.8299 89.49 32.9299C89.81 33.0299 90.1334 33.0799 90.46 33.0799C90.9467 33.0799 91.3434 32.9899 91.65 32.8099C91.9634 32.6232 92.12 32.3732 92.12 32.0599C92.12 31.7799 91.9934 31.5632 91.74 31.4099C91.4867 31.2499 91.14 31.1699 90.7 31.1699H89.8V30.6499H90.66C91.0534 30.6499 91.37 30.5765 91.61 30.4299C91.85 30.2765 91.97 30.0732 91.97 29.8199C91.97 29.5399 91.8334 29.3199 91.56 29.1599C91.2934 28.9999 90.9434 28.9199 90.51 28.9199C89.9434 28.9199 89.3834 29.0632 88.83 29.3499L88.63 28.7999C89.2567 28.4732 89.9067 28.3099 90.58 28.3099C90.98 28.3099 91.34 28.3699 91.66 28.4899C91.9867 28.6032 92.24 28.7665 92.42 28.9799C92.6067 29.1932 92.7 29.4399 92.7 29.7199C92.7 29.9865 92.6067 30.2232 92.42 30.4299C92.24 30.6365 91.9934 30.7899 91.68 30.8899Z" fill="white"/>
<path d="M98.9318 28.3699L96.3018 34.2599C96.0885 34.7532 95.8418 35.1032 95.5618 35.3099C95.2818 35.5166 94.9452 35.6199 94.5518 35.6199C94.2985 35.6199 94.0618 35.5799 93.8418 35.4999C93.6218 35.4199 93.4318 35.2999 93.2718 35.1399L93.6018 34.6099C93.8685 34.8765 94.1885 35.0099 94.5618 35.0099C94.8018 35.0099 95.0052 34.9432 95.1718 34.8099C95.3452 34.6765 95.5052 34.4499 95.6518 34.1299L95.8818 33.6199L93.5318 28.3699H94.2718L96.2518 32.8399L98.2318 28.3699H98.9318Z" fill="white"/>
<path d="M100.038 28.3699H100.748V32.5499L104.258 28.3699H104.888V33.6299H104.178V29.4499L100.678 33.6299H100.038V28.3699ZM102.428 27.6099C101.975 27.6099 101.615 27.4965 101.348 27.2699C101.081 27.0432 100.945 26.7232 100.938 26.3099H101.448C101.455 26.5699 101.548 26.7799 101.728 26.9399C101.908 27.0932 102.141 27.1699 102.428 27.1699C102.715 27.1699 102.948 27.0932 103.128 26.9399C103.315 26.7799 103.411 26.5699 103.418 26.3099H103.928C103.921 26.7232 103.781 27.0432 103.508 27.2699C103.241 27.4965 102.881 27.6099 102.428 27.6099Z" fill="white"/>
<path d="M109.54 28.3699H110.25V32.5499L113.76 28.3699H114.39V33.6299H113.68V29.4499L110.18 33.6299H109.54V28.3699Z" fill="white"/>
<path d="M122.332 33.6299L120.662 31.4299L118.982 33.6299H118.182L120.262 30.9299L118.282 28.3699H119.082L120.662 30.4299L122.242 28.3699H123.022L121.042 30.9299L123.142 33.6299H122.332Z" fill="white"/>
<path d="M127.016 28.3299C127.509 28.3299 127.956 28.4432 128.356 28.6699C128.756 28.8899 129.069 29.2032 129.296 29.6099C129.522 30.0165 129.636 30.4799 129.636 30.9999C129.636 31.5265 129.522 31.9932 129.296 32.3999C129.069 32.8066 128.756 33.1232 128.356 33.3499C127.962 33.5699 127.516 33.6799 127.016 33.6799C126.589 33.6799 126.202 33.5932 125.856 33.4199C125.516 33.2399 125.236 32.9799 125.016 32.6399V35.5699H124.306V28.3699H124.986V29.4099C125.199 29.0632 125.479 28.7965 125.826 28.6099C126.179 28.4232 126.576 28.3299 127.016 28.3299ZM126.966 33.0499C127.332 33.0499 127.666 32.9665 127.966 32.7999C128.266 32.6265 128.499 32.3832 128.666 32.0699C128.839 31.7565 128.926 31.3999 128.926 30.9999C128.926 30.5999 128.839 30.2466 128.666 29.9399C128.499 29.6265 128.266 29.3832 127.966 29.2099C127.666 29.0365 127.332 28.9499 126.966 28.9499C126.592 28.9499 126.256 29.0365 125.956 29.2099C125.662 29.3832 125.429 29.6265 125.256 29.9399C125.089 30.2466 125.006 30.5999 125.006 30.9999C125.006 31.3999 125.089 31.7565 125.256 32.0699C125.429 32.3832 125.662 32.6265 125.956 32.7999C126.256 32.9665 126.592 33.0499 126.966 33.0499Z" fill="white"/>
<path d="M132.942 28.3299C133.628 28.3299 134.155 28.5032 134.522 28.8499C134.888 29.1899 135.072 29.6965 135.072 30.3699V33.6299H134.392V32.8099C134.232 33.0832 133.995 33.2965 133.682 33.4499C133.375 33.6032 133.008 33.6799 132.582 33.6799C131.995 33.6799 131.528 33.5399 131.182 33.2599C130.835 32.9799 130.662 32.6099 130.662 32.1499C130.662 31.7032 130.822 31.3432 131.142 31.0699C131.468 30.7965 131.985 30.6599 132.692 30.6599H134.362V30.3399C134.362 29.8865 134.235 29.5432 133.982 29.3099C133.728 29.0699 133.358 28.9499 132.872 28.9499C132.538 28.9499 132.218 29.0065 131.912 29.1199C131.605 29.2265 131.342 29.3765 131.122 29.5699L130.802 29.0399C131.068 28.8132 131.388 28.6399 131.762 28.5199C132.135 28.3932 132.528 28.3299 132.942 28.3299ZM132.692 33.1199C133.092 33.1199 133.435 33.0299 133.722 32.8499C134.008 32.6632 134.222 32.3965 134.362 32.0499V31.1899H132.712C131.812 31.1899 131.362 31.5032 131.362 32.1299C131.362 32.4366 131.478 32.6799 131.712 32.8599C131.945 33.0332 132.272 33.1199 132.692 33.1199Z" fill="white"/>
<path d="M136.962 28.3699H137.672V30.6999H140.982V28.3699H141.692V33.6299H140.982V31.3099H137.672V33.6299H136.962V28.3699Z" fill="white"/>
<path d="M143.71 28.3699H144.42V32.5499L147.93 28.3699H148.56V33.6299H147.85V29.4499L144.35 33.6299H143.71V28.3699Z" fill="white"/>
<path d="M155.122 31.2899H153.922V33.6299H153.212V28.3699H153.922V30.6799H155.132L156.982 28.3699H157.752L155.682 30.9199L157.902 33.6299H157.062L155.122 31.2899Z" fill="white"/>
<path d="M161.732 28.3299C162.226 28.3299 162.672 28.4432 163.072 28.6699C163.472 28.8899 163.786 29.2032 164.012 29.6099C164.239 30.0165 164.352 30.4799 164.352 30.9999C164.352 31.5265 164.239 31.9932 164.012 32.3999C163.786 32.8066 163.472 33.1232 163.072 33.3499C162.679 33.5699 162.232 33.6799 161.732 33.6799C161.306 33.6799 160.919 33.5932 160.572 33.4199C160.232 33.2399 159.952 32.9799 159.732 32.6399V35.5699H159.022V28.3699H159.702V29.4099C159.916 29.0632 160.196 28.7965 160.542 28.6099C160.896 28.4232 161.292 28.3299 161.732 28.3299ZM161.682 33.0499C162.049 33.0499 162.382 32.9665 162.682 32.7999C162.982 32.6265 163.216 32.3832 163.382 32.0699C163.556 31.7565 163.642 31.3999 163.642 30.9999C163.642 30.5999 163.556 30.2466 163.382 29.9399C163.216 29.6265 162.982 29.3832 162.682 29.2099C162.382 29.0365 162.049 28.9499 161.682 28.9499C161.309 28.9499 160.972 29.0365 160.672 29.2099C160.379 29.3832 160.146 29.6265 159.972 29.9399C159.806 30.2466 159.722 30.5999 159.722 30.9999C159.722 31.3999 159.806 31.7565 159.972 32.0699C160.146 32.3832 160.379 32.6265 160.672 32.7999C160.972 32.9665 161.309 33.0499 161.682 33.0499Z" fill="white"/>
<path d="M165.878 28.3699H166.588V32.5499L170.098 28.3699H170.728V33.6299H170.018V29.4499L166.518 33.6299H165.878V28.3699Z" fill="white"/>
<path d="M177.483 28.3699V33.6299H176.773V28.9999H173.473V33.6299H172.763V28.3699H177.483Z" fill="white"/>
<path d="M183.201 28.9999H181.211V33.6299H180.501V28.9999H178.511V28.3699H183.201V28.9999Z" fill="white"/>
<path d="M188.717 28.3699L186.087 34.2599C185.874 34.7532 185.627 35.1032 185.347 35.3099C185.067 35.5166 184.73 35.6199 184.337 35.6199C184.084 35.6199 183.847 35.5799 183.627 35.4999C183.407 35.4199 183.217 35.2999 183.057 35.1399L183.387 34.6099C183.654 34.8765 183.974 35.0099 184.347 35.0099C184.587 35.0099 184.79 34.9432 184.957 34.8099C185.13 34.6765 185.29 34.4499 185.437 34.1299L185.667 33.6199L183.317 28.3699H184.057L186.037 32.8399L188.017 28.3699H188.717Z" fill="white"/>
<path d="M194.99 28.4999C195.477 28.4999 195.91 28.6099 196.29 28.8299C196.677 29.0432 196.977 29.3465 197.19 29.7399C197.404 30.1265 197.51 30.5699 197.51 31.0699C197.51 31.5832 197.397 32.0399 197.17 32.4399C196.95 32.8332 196.64 33.1399 196.24 33.3599C195.84 33.5799 195.38 33.6899 194.86 33.6899C193.987 33.6899 193.31 33.3832 192.83 32.7699C192.35 32.1565 192.11 31.3099 192.11 30.2299C192.11 29.1032 192.324 28.2399 192.75 27.6399C193.184 27.0399 193.857 26.6332 194.77 26.4199L197.13 25.8799L197.25 26.5299L195.03 27.0399C194.277 27.2065 193.724 27.5032 193.37 27.9299C193.017 28.3499 192.824 28.9732 192.79 29.7999C193.004 29.3932 193.3 29.0765 193.68 28.8499C194.06 28.6165 194.497 28.4999 194.99 28.4999ZM194.88 33.0999C195.247 33.0999 195.574 33.0165 195.86 32.8499C196.154 32.6765 196.38 32.4366 196.54 32.1299C196.707 31.8232 196.79 31.4765 196.79 31.0899C196.79 30.7032 196.71 30.3632 196.55 30.0699C196.39 29.7766 196.164 29.5499 195.87 29.3899C195.584 29.2232 195.254 29.1399 194.88 29.1399C194.507 29.1399 194.174 29.2232 193.88 29.3899C193.594 29.5499 193.367 29.7766 193.2 30.0699C193.04 30.3632 192.96 30.7032 192.96 31.0899C192.96 31.4765 193.04 31.8232 193.2 32.1299C193.367 32.4366 193.597 32.6765 193.89 32.8499C194.184 33.0165 194.514 33.0999 194.88 33.0999Z" fill="white"/>
<path d="M203.632 31.2199H199.232C199.272 31.7665 199.482 32.2099 199.862 32.5499C200.242 32.8832 200.722 33.0499 201.302 33.0499C201.629 33.0499 201.929 32.9932 202.202 32.8799C202.475 32.7599 202.712 32.5865 202.912 32.3599L203.312 32.8199C203.079 33.0999 202.785 33.3132 202.432 33.4599C202.085 33.6065 201.702 33.6799 201.282 33.6799C200.742 33.6799 200.262 33.5665 199.842 33.3399C199.429 33.1066 199.105 32.7866 198.872 32.3799C198.639 31.9732 198.522 31.5132 198.522 30.9999C198.522 30.4865 198.632 30.0265 198.852 29.6199C199.079 29.2132 199.385 28.8965 199.772 28.6699C200.165 28.4432 200.605 28.3299 201.092 28.3299C201.579 28.3299 202.015 28.4432 202.402 28.6699C202.789 28.8965 203.092 29.2132 203.312 29.6199C203.532 30.0199 203.642 30.4799 203.642 30.9999L203.632 31.2199ZM201.092 28.9399C200.585 28.9399 200.159 29.1032 199.812 29.4299C199.472 29.7499 199.279 30.1699 199.232 30.6899H202.962C202.915 30.1699 202.719 29.7499 202.372 29.4299C202.032 29.1032 201.605 28.9399 201.092 28.9399Z" fill="white"/>
<path d="M207.627 30.8899C208.001 30.9765 208.287 31.1265 208.487 31.3399C208.694 31.5532 208.797 31.8132 208.797 32.1199C208.797 32.4265 208.691 32.6999 208.477 32.9399C208.271 33.1799 207.987 33.3665 207.627 33.4999C207.267 33.6265 206.871 33.6899 206.437 33.6899C206.057 33.6899 205.684 33.6365 205.317 33.5299C204.951 33.4166 204.631 33.2532 204.357 33.0399L204.597 32.5099C204.837 32.6899 205.117 32.8299 205.437 32.9299C205.757 33.0299 206.081 33.0799 206.407 33.0799C206.894 33.0799 207.291 32.9899 207.597 32.8099C207.911 32.6232 208.067 32.3732 208.067 32.0599C208.067 31.7799 207.941 31.5632 207.687 31.4099C207.434 31.2499 207.087 31.1699 206.647 31.1699H205.747V30.6499H206.607C207.001 30.6499 207.317 30.5765 207.557 30.4299C207.797 30.2765 207.917 30.0732 207.917 29.8199C207.917 29.5399 207.781 29.3199 207.507 29.1599C207.241 28.9999 206.891 28.9199 206.457 28.9199C205.891 28.9199 205.331 29.0632 204.777 29.3499L204.577 28.7999C205.204 28.4732 205.854 28.3099 206.527 28.3099C206.927 28.3099 207.287 28.3699 207.607 28.4899C207.934 28.6032 208.187 28.7665 208.367 28.9799C208.554 29.1932 208.647 29.4399 208.647 29.7199C208.647 29.9865 208.554 30.2232 208.367 30.4299C208.187 30.6365 207.941 30.7899 207.627 30.8899Z" fill="white"/>
<path d="M212.579 33.6799C212.072 33.6799 211.616 33.5665 211.209 33.3399C210.802 33.1066 210.482 32.7866 210.249 32.3799C210.016 31.9732 209.899 31.5132 209.899 30.9999C209.899 30.4865 210.016 30.0265 210.249 29.6199C210.482 29.2132 210.802 28.8965 211.209 28.6699C211.616 28.4432 212.072 28.3299 212.579 28.3299C213.086 28.3299 213.542 28.4432 213.949 28.6699C214.356 28.8965 214.672 29.2132 214.899 29.6199C215.132 30.0265 215.249 30.4865 215.249 30.9999C215.249 31.5132 215.132 31.9732 214.899 32.3799C214.672 32.7866 214.356 33.1066 213.949 33.3399C213.542 33.5665 213.086 33.6799 212.579 33.6799ZM212.579 33.0499C212.952 33.0499 213.286 32.9665 213.579 32.7999C213.879 32.6265 214.112 32.3832 214.279 32.0699C214.446 31.7565 214.529 31.3999 214.529 30.9999C214.529 30.5999 214.446 30.2432 214.279 29.9299C214.112 29.6165 213.879 29.3765 213.579 29.2099C213.286 29.0365 212.952 28.9499 212.579 28.9499C212.206 28.9499 211.869 29.0365 211.569 29.2099C211.276 29.3765 211.042 29.6165 210.869 29.9299C210.702 30.2432 210.619 30.5999 210.619 30.9999C210.619 31.3999 210.702 31.7565 210.869 32.0699C211.042 32.3832 211.276 32.6265 211.569 32.7999C211.869 32.9665 212.206 33.0499 212.579 33.0499Z" fill="white"/>
<path d="M221.487 28.3699V33.6299H220.777V28.9999H217.477V33.6299H216.767V28.3699H221.487Z" fill="white"/>
<path d="M225.315 28.3299C226.001 28.3299 226.528 28.5032 226.895 28.8499C227.261 29.1899 227.445 29.6965 227.445 30.3699V33.6299H226.765V32.8099C226.605 33.0832 226.368 33.2965 226.055 33.4499C225.748 33.6032 225.381 33.6799 224.955 33.6799C224.368 33.6799 223.901 33.5399 223.555 33.2599C223.208 32.9799 223.035 32.6099 223.035 32.1499C223.035 31.7032 223.195 31.3432 223.515 31.0699C223.841 30.7965 224.358 30.6599 225.065 30.6599H226.735V30.3399C226.735 29.8865 226.608 29.5432 226.355 29.3099C226.101 29.0699 225.731 28.9499 225.245 28.9499C224.911 28.9499 224.591 29.0065 224.285 29.1199C223.978 29.2265 223.715 29.3765 223.495 29.5699L223.175 29.0399C223.441 28.8132 223.761 28.6399 224.135 28.5199C224.508 28.3932 224.901 28.3299 225.315 28.3299ZM225.065 33.1199C225.465 33.1199 225.808 33.0299 226.095 32.8499C226.381 32.6632 226.595 32.3965 226.735 32.0499V31.1899H225.085C224.185 31.1899 223.735 31.5032 223.735 32.1299C223.735 32.4366 223.851 32.6799 224.085 32.8599C224.318 33.0332 224.645 33.1199 225.065 33.1199Z" fill="white"/>
<path d="M231.535 33.6799C231.015 33.6799 230.548 33.5665 230.135 33.3399C229.728 33.1132 229.408 32.7965 229.175 32.3899C228.942 31.9765 228.825 31.5132 228.825 30.9999C228.825 30.4865 228.942 30.0265 229.175 29.6199C229.408 29.2132 229.728 28.8965 230.135 28.6699C230.548 28.4432 231.015 28.3299 231.535 28.3299C231.988 28.3299 232.392 28.4199 232.745 28.5999C233.105 28.7732 233.388 29.0299 233.595 29.3699L233.065 29.7299C232.892 29.4699 232.672 29.2765 232.405 29.1499C232.138 29.0165 231.848 28.9499 231.535 28.9499C231.155 28.9499 230.812 29.0365 230.505 29.2099C230.205 29.3765 229.968 29.6165 229.795 29.9299C229.628 30.2432 229.545 30.5999 229.545 30.9999C229.545 31.4065 229.628 31.7665 229.795 32.0799C229.968 32.3865 230.205 32.6265 230.505 32.7999C230.812 32.9665 231.155 33.0499 231.535 33.0499C231.848 33.0499 232.138 32.9865 232.405 32.8599C232.672 32.7332 232.892 32.5399 233.065 32.2799L233.595 32.6399C233.388 32.9799 233.105 33.2399 232.745 33.4199C232.385 33.5932 231.982 33.6799 231.535 33.6799Z" fill="white"/>
<path d="M234.97 28.3699H235.68V30.6999H238.99V28.3699H239.7V33.6299H238.99V31.3099H235.68V33.6299H234.97V28.3699Z" fill="white"/>
<path d="M243.888 33.6799C243.381 33.6799 242.924 33.5665 242.518 33.3399C242.111 33.1066 241.791 32.7866 241.558 32.3799C241.324 31.9732 241.208 31.5132 241.208 30.9999C241.208 30.4865 241.324 30.0265 241.558 29.6199C241.791 29.2132 242.111 28.8965 242.518 28.6699C242.924 28.4432 243.381 28.3299 243.888 28.3299C244.394 28.3299 244.851 28.4432 245.258 28.6699C245.664 28.8965 245.981 29.2132 246.208 29.6199C246.441 30.0265 246.558 30.4865 246.558 30.9999C246.558 31.5132 246.441 31.9732 246.208 32.3799C245.981 32.7866 245.664 33.1066 245.258 33.3399C244.851 33.5665 244.394 33.6799 243.888 33.6799ZM243.888 33.0499C244.261 33.0499 244.594 32.9665 244.888 32.7999C245.188 32.6265 245.421 32.3832 245.588 32.0699C245.754 31.7565 245.838 31.3999 245.838 30.9999C245.838 30.5999 245.754 30.2432 245.588 29.9299C245.421 29.6165 245.188 29.3765 244.888 29.2099C244.594 29.0365 244.261 28.9499 243.888 28.9499C243.514 28.9499 243.178 29.0365 242.878 29.2099C242.584 29.3765 242.351 29.6165 242.178 29.9299C242.011 30.2432 241.928 30.5999 241.928 30.9999C241.928 31.3999 242.011 31.7565 242.178 32.0699C242.351 32.3832 242.584 32.6265 242.878 32.7999C243.178 32.9665 243.514 33.0499 243.888 33.0499Z" fill="white"/>
<defs>
<clipPath id="clip0_1_7008">
<rect width="35" height="35" fill="white" transform="translate(0.442383)"/>
</clipPath>
</defs>
</svg>
