<svg width="247" height="36" viewBox="0 0 247 36" fill="none" xmlns="http://www.w3.org/2000/svg">
<g clip-path="url(#clip0_1_7291)">
<path d="M31.4094 6.87803C29.136 3.90453 25.9135 1.69966 22.3337 0.674812L21.594 0.461903V5.72688H21.6265V8.91329H14.6257C13.2148 8.91329 11.8904 9.47263 10.9016 10.483C9.91288 11.4971 9.38602 12.8323 9.4185 14.2468C9.45097 15.6001 10.0284 16.8811 11.0496 17.8482C12.06 18.8081 13.3627 19.335 14.7232 19.335H19.9665C20.8795 19.335 21.6228 20.0459 21.6301 20.9192C21.6337 21.3486 21.4677 21.7528 21.1646 22.0559C20.8614 22.359 20.4609 22.525 20.0351 22.525H14.6257C12.3487 22.525 10.216 21.6265 8.62099 19.9918C7.02598 18.357 6.17435 16.2027 6.22848 13.9221C6.33674 9.40406 10.1799 5.72688 14.7953 5.72688C16.7729 5.72688 18.3787 4.11743 18.3787 2.14352V0.0144345L17.8121 0C17.7075 0 17.6028 0 17.4982 0C7.84875 0 0 7.84875 0 17.4982C0 21.3702 1.23776 25.0366 3.57975 28.1075C5.84596 31.0774 9.06124 33.2823 12.6302 34.3144L13.3699 34.5273V26.0867H20.2804C21.6409 26.0867 22.9436 25.5599 23.954 24.6C24.9753 23.6292 25.5526 22.3518 25.5851 20.9986C25.6176 19.584 25.0907 18.2488 24.102 17.2348C23.1132 16.2207 21.7888 15.665 20.3779 15.665H15.0371C14.5896 15.665 14.153 15.4846 13.8354 15.167C13.5359 14.8675 13.3735 14.4778 13.3735 14.0664C13.3735 13.6406 13.5395 13.2436 13.8391 12.9441C14.1386 12.6446 14.5427 12.4786 14.9686 12.4786H20.2047C24.8201 12.4786 28.6633 16.1558 28.7715 20.6738C28.8257 22.9508 27.974 25.1052 26.379 26.7399C24.784 28.3746 22.6513 29.2731 20.3743 29.2731C18.2885 29.2731 16.5888 30.9692 16.5888 33.0586V34.9711L17.1446 34.9964C17.2672 35 17.3863 35 17.4982 35C27.1476 35 34.9964 27.1476 34.9964 17.4982C35 13.6225 33.7586 9.94896 31.4094 6.87803Z" fill="#4477FB"/>
</g>
<path d="M53.24 3.44V7.14H59.72V9.74H53.24V14.84H50V0.84H60.58V3.44H53.24Z" fill="white"/>
<path d="M65.3381 5.5C65.7115 4.98 66.2115 4.58667 66.8381 4.32C67.4781 4.05333 68.2115 3.92 69.0381 3.92V6.8C68.6915 6.77333 68.4581 6.76 68.3381 6.76C67.4448 6.76 66.7448 7.01333 66.2381 7.52C65.7315 8.01333 65.4781 8.76 65.4781 9.76V14.84H62.3581V4.08H65.3381V5.5Z" fill="white"/>
<path d="M81.3356 9.5C81.3356 9.54 81.3156 9.82 81.2756 10.34H73.1356C73.2823 11.0067 73.629 11.5333 74.1756 11.92C74.7223 12.3067 75.4023 12.5 76.2156 12.5C76.7756 12.5 77.269 12.42 77.6956 12.26C78.1356 12.0867 78.5423 11.82 78.9156 11.46L80.5756 13.26C79.5623 14.42 78.0823 15 76.1356 15C74.9223 15 73.849 14.7667 72.9156 14.3C71.9823 13.82 71.2623 13.16 70.7556 12.32C70.249 11.48 69.9956 10.5267 69.9956 9.46C69.9956 8.40667 70.2423 7.46 70.7356 6.62C71.2423 5.76667 71.929 5.10667 72.7956 4.64C73.6756 4.16 74.6556 3.92 75.7356 3.92C76.789 3.92 77.7423 4.14667 78.5956 4.6C79.449 5.05333 80.1156 5.70667 80.5956 6.56C81.089 7.4 81.3356 8.38 81.3356 9.5ZM75.7556 6.28C75.049 6.28 74.4556 6.48 73.9756 6.88C73.4956 7.28 73.2023 7.82667 73.0956 8.52H78.3956C78.289 7.84 77.9956 7.3 77.5156 6.9C77.0356 6.48667 76.449 6.28 75.7556 6.28Z" fill="white"/>
<path d="M93.9528 9.5C93.9528 9.54 93.9328 9.82 93.8928 10.34H85.7528C85.8995 11.0067 86.2461 11.5333 86.7928 11.92C87.3395 12.3067 88.0195 12.5 88.8328 12.5C89.3928 12.5 89.8861 12.42 90.3128 12.26C90.7528 12.0867 91.1595 11.82 91.5328 11.46L93.1928 13.26C92.1795 14.42 90.6995 15 88.7528 15C87.5395 15 86.4661 14.7667 85.5328 14.3C84.5995 13.82 83.8795 13.16 83.3728 12.32C82.8661 11.48 82.6128 10.5267 82.6128 9.46C82.6128 8.40667 82.8595 7.46 83.3528 6.62C83.8595 5.76667 84.5461 5.10667 85.4128 4.64C86.2928 4.16 87.2728 3.92 88.3528 3.92C89.4061 3.92 90.3595 4.14667 91.2128 4.6C92.0661 5.05333 92.7328 5.70667 93.2128 6.56C93.7061 7.4 93.9528 8.38 93.9528 9.5ZM88.3728 6.28C87.6661 6.28 87.0728 6.48 86.5928 6.88C86.1128 7.28 85.8195 7.82667 85.7128 8.52H91.0128C90.9061 7.84 90.6128 7.3 90.1328 6.9C89.6528 6.48667 89.0661 6.28 88.3728 6.28Z" fill="white"/>
<path d="M102.95 15.08C101.523 15.08 100.23 14.7733 99.07 14.16C97.9233 13.5333 97.0167 12.6733 96.35 11.58C95.6967 10.4733 95.37 9.22667 95.37 7.84C95.37 6.45333 95.6967 5.21333 96.35 4.12C97.0167 3.01333 97.9233 2.15333 99.07 1.54C100.23 0.913334 101.53 0.600001 102.97 0.600001C104.183 0.600001 105.277 0.813334 106.25 1.24C107.237 1.66667 108.063 2.28 108.73 3.08L106.65 5C105.703 3.90667 104.53 3.36 103.13 3.36C102.263 3.36 101.49 3.55333 100.81 3.94C100.13 4.31333 99.5967 4.84 99.21 5.52C98.8367 6.2 98.65 6.97333 98.65 7.84C98.65 8.70667 98.8367 9.48 99.21 10.16C99.5967 10.84 100.13 11.3733 100.81 11.76C101.49 12.1333 102.263 12.32 103.13 12.32C104.53 12.32 105.703 11.7667 106.65 10.66L108.73 12.58C108.063 13.3933 107.237 14.0133 106.25 14.44C105.263 14.8667 104.163 15.08 102.95 15.08Z" fill="white"/>
<path d="M113.522 5.5C113.895 4.98 114.395 4.58667 115.022 4.32C115.662 4.05333 116.395 3.92 117.222 3.92V6.8C116.875 6.77333 116.642 6.76 116.522 6.76C115.628 6.76 114.928 7.01333 114.422 7.52C113.915 8.01333 113.662 8.76 113.662 9.76V14.84H110.542V4.08H113.522V5.5Z" fill="white"/>
<path d="M130.128 4.08L125.268 15.5C124.775 16.74 124.161 17.6133 123.428 18.12C122.708 18.6267 121.835 18.88 120.808 18.88C120.248 18.88 119.695 18.7933 119.148 18.62C118.601 18.4467 118.155 18.2067 117.808 17.9L118.948 15.68C119.188 15.8933 119.461 16.06 119.768 16.18C120.088 16.3 120.401 16.36 120.708 16.36C121.135 16.36 121.481 16.2533 121.748 16.04C122.015 15.84 122.255 15.5 122.468 15.02L122.508 14.92L117.848 4.08H121.068L124.088 11.38L127.128 4.08H130.128Z" fill="white"/>
<path d="M137.761 3.92C138.761 3.92 139.668 4.15333 140.481 4.62C141.308 5.07333 141.954 5.72 142.421 6.56C142.888 7.38667 143.121 8.35333 143.121 9.46C143.121 10.5667 142.888 11.54 142.421 12.38C141.954 13.2067 141.308 13.8533 140.481 14.32C139.668 14.7733 138.761 15 137.761 15C136.388 15 135.308 14.5667 134.521 13.7V18.72H131.401V4.08H134.381V5.32C135.154 4.38667 136.281 3.92 137.761 3.92ZM137.221 12.44C138.021 12.44 138.674 12.1733 139.181 11.64C139.701 11.0933 139.961 10.3667 139.961 9.46C139.961 8.55333 139.701 7.83333 139.181 7.3C138.674 6.75333 138.021 6.48 137.221 6.48C136.421 6.48 135.761 6.75333 135.241 7.3C134.734 7.83333 134.481 8.55333 134.481 9.46C134.481 10.3667 134.734 11.0933 135.241 11.64C135.761 12.1733 136.421 12.44 137.221 12.44Z" fill="white"/>
<path d="M152.15 14.32C151.843 14.5467 151.463 14.72 151.01 14.84C150.57 14.9467 150.103 15 149.61 15C148.33 15 147.336 14.6733 146.63 14.02C145.936 13.3667 145.59 12.4067 145.59 11.14V6.72H143.93V4.32H145.59V1.7H148.71V4.32H151.39V6.72H148.71V11.1C148.71 11.5533 148.823 11.9067 149.05 12.16C149.29 12.4 149.623 12.52 150.05 12.52C150.543 12.52 150.963 12.3867 151.31 12.12L152.15 14.32Z" fill="white"/>
<path d="M158.689 15C157.556 15 156.536 14.7667 155.629 14.3C154.736 13.82 154.036 13.16 153.529 12.32C153.022 11.48 152.769 10.5267 152.769 9.46C152.769 8.39333 153.022 7.44 153.529 6.6C154.036 5.76 154.736 5.10667 155.629 4.64C156.536 4.16 157.556 3.92 158.689 3.92C159.822 3.92 160.836 4.16 161.729 4.64C162.622 5.10667 163.322 5.76 163.829 6.6C164.336 7.44 164.589 8.39333 164.589 9.46C164.589 10.5267 164.336 11.48 163.829 12.32C163.322 13.16 162.622 13.82 161.729 14.3C160.836 14.7667 159.822 15 158.689 15ZM158.689 12.44C159.489 12.44 160.142 12.1733 160.649 11.64C161.169 11.0933 161.429 10.3667 161.429 9.46C161.429 8.55333 161.169 7.83333 160.649 7.3C160.142 6.75333 159.489 6.48 158.689 6.48C157.889 6.48 157.229 6.75333 156.709 7.3C156.189 7.83333 155.929 8.55333 155.929 9.46C155.929 10.3667 156.189 11.0933 156.709 11.64C157.229 12.1733 157.889 12.44 158.689 12.44Z" fill="white"/>
<path d="M179.735 0.84V14.84H177.075L170.095 6.34V14.84H166.895V0.84H169.575L176.535 9.34V0.84H179.735Z" fill="white"/>
<path d="M187.947 15C186.814 15 185.794 14.7667 184.887 14.3C183.994 13.82 183.294 13.16 182.787 12.32C182.28 11.48 182.027 10.5267 182.027 9.46C182.027 8.39333 182.28 7.44 182.787 6.6C183.294 5.76 183.994 5.10667 184.887 4.64C185.794 4.16 186.814 3.92 187.947 3.92C189.08 3.92 190.094 4.16 190.987 4.64C191.88 5.10667 192.58 5.76 193.087 6.6C193.594 7.44 193.847 8.39333 193.847 9.46C193.847 10.5267 193.594 11.48 193.087 12.32C192.58 13.16 191.88 13.82 190.987 14.3C190.094 14.7667 189.08 15 187.947 15ZM187.947 12.44C188.747 12.44 189.4 12.1733 189.907 11.64C190.427 11.0933 190.687 10.3667 190.687 9.46C190.687 8.55333 190.427 7.83333 189.907 7.3C189.4 6.75333 188.747 6.48 187.947 6.48C187.147 6.48 186.487 6.75333 185.967 7.3C185.447 7.83333 185.187 8.55333 185.187 9.46C185.187 10.3667 185.447 11.0933 185.967 11.64C186.487 12.1733 187.147 12.44 187.947 12.44Z" fill="white"/>
<path d="M206.892 0V14.84H203.912V13.6C203.139 14.5333 202.019 15 200.552 15C199.539 15 198.619 14.7733 197.792 14.32C196.979 13.8667 196.339 13.22 195.872 12.38C195.406 11.54 195.172 10.5667 195.172 9.46C195.172 8.35333 195.406 7.38 195.872 6.54C196.339 5.7 196.979 5.05333 197.792 4.6C198.619 4.14667 199.539 3.92 200.552 3.92C201.926 3.92 202.999 4.35333 203.772 5.22V0H206.892ZM201.092 12.44C201.879 12.44 202.532 12.1733 203.052 11.64C203.572 11.0933 203.832 10.3667 203.832 9.46C203.832 8.55333 203.572 7.83333 203.052 7.3C202.532 6.75333 201.879 6.48 201.092 6.48C200.292 6.48 199.632 6.75333 199.112 7.3C198.592 7.83333 198.332 8.55333 198.332 9.46C198.332 10.3667 198.592 11.0933 199.112 11.64C199.632 12.1733 200.292 12.44 201.092 12.44Z" fill="white"/>
<path d="M220.32 9.5C220.32 9.54 220.3 9.82 220.26 10.34H212.12C212.267 11.0067 212.613 11.5333 213.16 11.92C213.707 12.3067 214.387 12.5 215.2 12.5C215.76 12.5 216.253 12.42 216.68 12.26C217.12 12.0867 217.527 11.82 217.9 11.46L219.56 13.26C218.547 14.42 217.067 15 215.12 15C213.907 15 212.833 14.7667 211.9 14.3C210.967 13.82 210.247 13.16 209.74 12.32C209.233 11.48 208.98 10.5267 208.98 9.46C208.98 8.40667 209.227 7.46 209.72 6.62C210.227 5.76667 210.913 5.10667 211.78 4.64C212.66 4.16 213.64 3.92 214.72 3.92C215.773 3.92 216.727 4.14667 217.58 4.6C218.433 5.05333 219.1 5.70667 219.58 6.56C220.073 7.4 220.32 8.38 220.32 9.5ZM214.74 6.28C214.033 6.28 213.44 6.48 212.96 6.88C212.48 7.28 212.187 7.82667 212.08 8.52H217.38C217.273 7.84 216.98 7.3 216.5 6.9C216.02 6.48667 215.433 6.28 214.74 6.28Z" fill="white"/>
<path d="M50 26.6299H50.73V32.4299L55.21 26.6299H55.88V33.6299H55.15V27.8399L50.67 33.6299H50V26.6299Z" fill="white"/>
<path d="M60.2722 33.6799C59.7522 33.6799 59.2855 33.5665 58.8722 33.3399C58.4655 33.1132 58.1455 32.7965 57.9122 32.3899C57.6789 31.9765 57.5622 31.5132 57.5622 30.9999C57.5622 30.4865 57.6789 30.0265 57.9122 29.6199C58.1455 29.2132 58.4655 28.8965 58.8722 28.6699C59.2855 28.4432 59.7522 28.3299 60.2722 28.3299C60.7255 28.3299 61.1289 28.4199 61.4822 28.5999C61.8422 28.7732 62.1255 29.0299 62.3322 29.3699L61.8022 29.7299C61.6289 29.4699 61.4089 29.2765 61.1422 29.1499C60.8755 29.0165 60.5855 28.9499 60.2722 28.9499C59.8922 28.9499 59.5489 29.0365 59.2422 29.2099C58.9422 29.3765 58.7055 29.6165 58.5322 29.9299C58.3655 30.2432 58.2822 30.5999 58.2822 30.9999C58.2822 31.4065 58.3655 31.7665 58.5322 32.0799C58.7055 32.3865 58.9422 32.6265 59.2422 32.7999C59.5489 32.9665 59.8922 33.0499 60.2722 33.0499C60.5855 33.0499 60.8755 32.9865 61.1422 32.8599C61.4089 32.7332 61.6289 32.5399 61.8022 32.2799L62.3322 32.6399C62.1255 32.9799 61.8422 33.2399 61.4822 33.4199C61.1222 33.5932 60.7189 33.6799 60.2722 33.6799Z" fill="white"/>
<path d="M68.427 28.3699V33.6299H67.717V28.9999H64.417V33.6299H63.707V28.3699H68.427Z" fill="white"/>
<path d="M72.6152 33.6799C72.1086 33.6799 71.6519 33.5665 71.2452 33.3399C70.8386 33.1066 70.5186 32.7866 70.2852 32.3799C70.0519 31.9732 69.9352 31.5132 69.9352 30.9999C69.9352 30.4865 70.0519 30.0265 70.2852 29.6199C70.5186 29.2132 70.8386 28.8965 71.2452 28.6699C71.6519 28.4432 72.1086 28.3299 72.6152 28.3299C73.1219 28.3299 73.5786 28.4432 73.9852 28.6699C74.3919 28.8965 74.7086 29.2132 74.9352 29.6199C75.1686 30.0265 75.2852 30.4865 75.2852 30.9999C75.2852 31.5132 75.1686 31.9732 74.9352 32.3799C74.7086 32.7866 74.3919 33.1066 73.9852 33.3399C73.5786 33.5665 73.1219 33.6799 72.6152 33.6799ZM72.6152 33.0499C72.9886 33.0499 73.3219 32.9665 73.6152 32.7999C73.9152 32.6265 74.1486 32.3832 74.3152 32.0699C74.4819 31.7565 74.5652 31.3999 74.5652 30.9999C74.5652 30.5999 74.4819 30.2432 74.3152 29.9299C74.1486 29.6165 73.9152 29.3765 73.6152 29.2099C73.3219 29.0365 72.9886 28.9499 72.6152 28.9499C72.2419 28.9499 71.9052 29.0365 71.6052 29.2099C71.3119 29.3765 71.0786 29.6165 70.9052 29.9299C70.7386 30.2432 70.6552 30.5999 70.6552 30.9999C70.6552 31.3999 70.7386 31.7565 70.9052 32.0699C71.0786 32.3832 71.3119 32.6265 71.6052 32.7999C71.9052 32.9665 72.2419 33.0499 72.6152 33.0499Z" fill="white"/>
<path d="M81.0734 28.3699V33.6299H80.3634V28.9999H77.8434L77.7734 30.2999C77.72 31.3932 77.5934 32.2332 77.3934 32.8199C77.1934 33.4065 76.8367 33.6999 76.3234 33.6999C76.1834 33.6999 76.0134 33.6732 75.8134 33.6199L75.8634 33.0099C75.9834 33.0365 76.0667 33.0499 76.1134 33.0499C76.3867 33.0499 76.5934 32.9232 76.7334 32.6699C76.8734 32.4165 76.9667 32.1032 77.0134 31.7299C77.06 31.3565 77.1 30.8632 77.1334 30.2499L77.2234 28.3699H81.0734Z" fill="white"/>
<path d="M85.3517 30.2299C86.0117 30.2365 86.5117 30.3832 86.8517 30.6699C87.1984 30.9565 87.3717 31.3699 87.3717 31.9099C87.3717 32.4699 87.1851 32.8999 86.8117 33.1999C86.4451 33.4999 85.9117 33.6465 85.2117 33.6399L83.0917 33.6299V28.3699H83.8017V30.2099L85.3517 30.2299ZM85.1717 33.0999C85.6584 33.1065 86.0251 33.0099 86.2717 32.8099C86.5251 32.6032 86.6517 32.3032 86.6517 31.9099C86.6517 31.5232 86.5284 31.2365 86.2817 31.0499C86.0351 30.8632 85.6651 30.7665 85.1717 30.7599L83.8017 30.7399V33.0799L85.1717 33.0999Z" fill="white"/>
<path d="M91.2377 30.8899C91.611 30.9765 91.8977 31.1265 92.0977 31.3399C92.3043 31.5532 92.4077 31.8132 92.4077 32.1199C92.4077 32.4265 92.301 32.6999 92.0877 32.9399C91.881 33.1799 91.5977 33.3665 91.2377 33.4999C90.8777 33.6265 90.481 33.6899 90.0477 33.6899C89.6677 33.6899 89.2943 33.6365 88.9277 33.5299C88.561 33.4166 88.241 33.2532 87.9677 33.0399L88.2077 32.5099C88.4477 32.6899 88.7277 32.8299 89.0477 32.9299C89.3677 33.0299 89.691 33.0799 90.0177 33.0799C90.5043 33.0799 90.901 32.9899 91.2077 32.8099C91.521 32.6232 91.6777 32.3732 91.6777 32.0599C91.6777 31.7799 91.551 31.5632 91.2977 31.4099C91.0443 31.2499 90.6977 31.1699 90.2577 31.1699H89.3577V30.6499H90.2177C90.611 30.6499 90.9277 30.5765 91.1677 30.4299C91.4077 30.2765 91.5277 30.0732 91.5277 29.8199C91.5277 29.5399 91.391 29.3199 91.1177 29.1599C90.851 28.9999 90.501 28.9199 90.0677 28.9199C89.501 28.9199 88.941 29.0632 88.3877 29.3499L88.1877 28.7999C88.8143 28.4732 89.4643 28.3099 90.1377 28.3099C90.5377 28.3099 90.8977 28.3699 91.2177 28.4899C91.5443 28.6032 91.7977 28.7665 91.9777 28.9799C92.1643 29.1932 92.2577 29.4399 92.2577 29.7199C92.2577 29.9865 92.1643 30.2232 91.9777 30.4299C91.7977 30.6365 91.551 30.7899 91.2377 30.8899Z" fill="white"/>
<path d="M98.4895 28.3699L95.8595 34.2599C95.6461 34.7532 95.3995 35.1032 95.1195 35.3099C94.8395 35.5166 94.5028 35.6199 94.1095 35.6199C93.8561 35.6199 93.6195 35.5799 93.3995 35.4999C93.1795 35.4199 92.9895 35.2999 92.8295 35.1399L93.1595 34.6099C93.4261 34.8765 93.7461 35.0099 94.1195 35.0099C94.3595 35.0099 94.5628 34.9432 94.7295 34.8099C94.9028 34.6765 95.0628 34.4499 95.2095 34.1299L95.4395 33.6199L93.0895 28.3699H93.8295L95.8095 32.8399L97.7895 28.3699H98.4895Z" fill="white"/>
<path d="M99.5956 28.3699H100.306V32.5499L103.816 28.3699H104.446V33.6299H103.736V29.4499L100.236 33.6299H99.5956V28.3699ZM101.986 27.6099C101.532 27.6099 101.172 27.4965 100.906 27.2699C100.639 27.0432 100.502 26.7232 100.496 26.3099H101.006C101.012 26.5699 101.106 26.7799 101.286 26.9399C101.466 27.0932 101.699 27.1699 101.986 27.1699C102.272 27.1699 102.506 27.0932 102.686 26.9399C102.872 26.7799 102.969 26.5699 102.976 26.3099H103.486C103.479 26.7232 103.339 27.0432 103.066 27.2699C102.799 27.4965 102.439 27.6099 101.986 27.6099Z" fill="white"/>
<path d="M109.098 28.3699H109.808V32.5499L113.318 28.3699H113.948V33.6299H113.238V29.4499L109.738 33.6299H109.098V28.3699Z" fill="white"/>
<path d="M121.89 33.6299L120.22 31.4299L118.54 33.6299H117.74L119.82 30.9299L117.84 28.3699H118.64L120.22 30.4299L121.8 28.3699H122.58L120.6 30.9299L122.7 33.6299H121.89Z" fill="white"/>
<path d="M126.573 28.3299C127.067 28.3299 127.513 28.4432 127.913 28.6699C128.313 28.8899 128.627 29.2032 128.853 29.6099C129.08 30.0165 129.193 30.4799 129.193 30.9999C129.193 31.5265 129.08 31.9932 128.853 32.3999C128.627 32.8066 128.313 33.1232 127.913 33.3499C127.52 33.5699 127.073 33.6799 126.573 33.6799C126.147 33.6799 125.76 33.5932 125.413 33.4199C125.073 33.2399 124.793 32.9799 124.573 32.6399V35.5699H123.863V28.3699H124.543V29.4099C124.757 29.0632 125.037 28.7965 125.383 28.6099C125.737 28.4232 126.133 28.3299 126.573 28.3299ZM126.523 33.0499C126.89 33.0499 127.223 32.9665 127.523 32.7999C127.823 32.6265 128.057 32.3832 128.223 32.0699C128.397 31.7565 128.483 31.3999 128.483 30.9999C128.483 30.5999 128.397 30.2466 128.223 29.9399C128.057 29.6265 127.823 29.3832 127.523 29.2099C127.223 29.0365 126.89 28.9499 126.523 28.9499C126.15 28.9499 125.813 29.0365 125.513 29.2099C125.22 29.3832 124.987 29.6265 124.813 29.9399C124.647 30.2466 124.563 30.5999 124.563 30.9999C124.563 31.3999 124.647 31.7565 124.813 32.0699C124.987 32.3832 125.22 32.6265 125.513 32.7999C125.813 32.9665 126.15 33.0499 126.523 33.0499Z" fill="white"/>
<path d="M132.499 28.3299C133.186 28.3299 133.713 28.5032 134.079 28.8499C134.446 29.1899 134.629 29.6965 134.629 30.3699V33.6299H133.949V32.8099C133.789 33.0832 133.553 33.2965 133.239 33.4499C132.933 33.6032 132.566 33.6799 132.139 33.6799C131.553 33.6799 131.086 33.5399 130.739 33.2599C130.393 32.9799 130.219 32.6099 130.219 32.1499C130.219 31.7032 130.379 31.3432 130.699 31.0699C131.026 30.7965 131.543 30.6599 132.249 30.6599H133.919V30.3399C133.919 29.8865 133.793 29.5432 133.539 29.3099C133.286 29.0699 132.916 28.9499 132.429 28.9499C132.096 28.9499 131.776 29.0065 131.469 29.1199C131.163 29.2265 130.899 29.3765 130.679 29.5699L130.359 29.0399C130.626 28.8132 130.946 28.6399 131.319 28.5199C131.693 28.3932 132.086 28.3299 132.499 28.3299ZM132.249 33.1199C132.649 33.1199 132.993 33.0299 133.279 32.8499C133.566 32.6632 133.779 32.3965 133.919 32.0499V31.1899H132.269C131.369 31.1899 130.919 31.5032 130.919 32.1299C130.919 32.4366 131.036 32.6799 131.269 32.8599C131.503 33.0332 131.829 33.1199 132.249 33.1199Z" fill="white"/>
<path d="M136.519 28.3699H137.229V30.6999H140.539V28.3699H141.249V33.6299H140.539V31.3099H137.229V33.6299H136.519V28.3699Z" fill="white"/>
<path d="M143.268 28.3699H143.978V32.5499L147.488 28.3699H148.118V33.6299H147.408V29.4499L143.908 33.6299H143.268V28.3699Z" fill="white"/>
<path d="M154.679 31.2899H153.479V33.6299H152.769V28.3699H153.479V30.6799H154.689L156.539 28.3699H157.309L155.239 30.9199L157.459 33.6299H156.619L154.679 31.2899Z" fill="white"/>
<path d="M161.29 28.3299C161.783 28.3299 162.23 28.4432 162.63 28.6699C163.03 28.8899 163.343 29.2032 163.57 29.6099C163.797 30.0165 163.91 30.4799 163.91 30.9999C163.91 31.5265 163.797 31.9932 163.57 32.3999C163.343 32.8066 163.03 33.1232 162.63 33.3499C162.237 33.5699 161.79 33.6799 161.29 33.6799C160.863 33.6799 160.477 33.5932 160.13 33.4199C159.79 33.2399 159.51 32.9799 159.29 32.6399V35.5699H158.58V28.3699H159.26V29.4099C159.473 29.0632 159.753 28.7965 160.1 28.6099C160.453 28.4232 160.85 28.3299 161.29 28.3299ZM161.24 33.0499C161.607 33.0499 161.94 32.9665 162.24 32.7999C162.54 32.6265 162.773 32.3832 162.94 32.0699C163.113 31.7565 163.2 31.3999 163.2 30.9999C163.2 30.5999 163.113 30.2466 162.94 29.9399C162.773 29.6265 162.54 29.3832 162.24 29.2099C161.94 29.0365 161.607 28.9499 161.24 28.9499C160.867 28.9499 160.53 29.0365 160.23 29.2099C159.937 29.3832 159.703 29.6265 159.53 29.9399C159.363 30.2466 159.28 30.5999 159.28 30.9999C159.28 31.3999 159.363 31.7565 159.53 32.0699C159.703 32.3832 159.937 32.6265 160.23 32.7999C160.53 32.9665 160.867 33.0499 161.24 33.0499Z" fill="white"/>
<path d="M165.435 28.3699H166.145V32.5499L169.655 28.3699H170.285V33.6299H169.575V29.4499L166.075 33.6299H165.435V28.3699Z" fill="white"/>
<path d="M177.04 28.3699V33.6299H176.33V28.9999H173.03V33.6299H172.32V28.3699H177.04Z" fill="white"/>
<path d="M182.759 28.9999H180.769V33.6299H180.059V28.9999H178.069V28.3699H182.759V28.9999Z" fill="white"/>
<path d="M188.275 28.3699L185.645 34.2599C185.431 34.7532 185.185 35.1032 184.905 35.3099C184.625 35.5166 184.288 35.6199 183.895 35.6199C183.641 35.6199 183.405 35.5799 183.185 35.4999C182.965 35.4199 182.775 35.2999 182.615 35.1399L182.945 34.6099C183.211 34.8765 183.531 35.0099 183.905 35.0099C184.145 35.0099 184.348 34.9432 184.515 34.8099C184.688 34.6765 184.848 34.4499 184.995 34.1299L185.225 33.6199L182.875 28.3699H183.615L185.595 32.8399L187.575 28.3699H188.275Z" fill="white"/>
<path d="M194.548 28.4999C195.035 28.4999 195.468 28.6099 195.848 28.8299C196.235 29.0432 196.535 29.3465 196.748 29.7399C196.961 30.1265 197.068 30.5699 197.068 31.0699C197.068 31.5832 196.955 32.0399 196.728 32.4399C196.508 32.8332 196.198 33.1399 195.798 33.3599C195.398 33.5799 194.938 33.6899 194.418 33.6899C193.545 33.6899 192.868 33.3832 192.388 32.7699C191.908 32.1565 191.668 31.3099 191.668 30.2299C191.668 29.1032 191.881 28.2399 192.308 27.6399C192.741 27.0399 193.415 26.6332 194.328 26.4199L196.688 25.8799L196.808 26.5299L194.588 27.0399C193.835 27.2065 193.281 27.5032 192.928 27.9299C192.575 28.3499 192.381 28.9732 192.348 29.7999C192.561 29.3932 192.858 29.0765 193.238 28.8499C193.618 28.6165 194.055 28.4999 194.548 28.4999ZM194.438 33.0999C194.805 33.0999 195.131 33.0165 195.418 32.8499C195.711 32.6765 195.938 32.4366 196.098 32.1299C196.265 31.8232 196.348 31.4765 196.348 31.0899C196.348 30.7032 196.268 30.3632 196.108 30.0699C195.948 29.7766 195.721 29.5499 195.428 29.3899C195.141 29.2232 194.811 29.1399 194.438 29.1399C194.065 29.1399 193.731 29.2232 193.438 29.3899C193.151 29.5499 192.925 29.7766 192.758 30.0699C192.598 30.3632 192.518 30.7032 192.518 31.0899C192.518 31.4765 192.598 31.8232 192.758 32.1299C192.925 32.4366 193.155 32.6765 193.448 32.8499C193.741 33.0165 194.071 33.0999 194.438 33.0999Z" fill="white"/>
<path d="M203.19 31.2199H198.79C198.83 31.7665 199.04 32.2099 199.42 32.5499C199.8 32.8832 200.28 33.0499 200.86 33.0499C201.186 33.0499 201.486 32.9932 201.76 32.8799C202.033 32.7599 202.27 32.5865 202.47 32.3599L202.87 32.8199C202.636 33.0999 202.343 33.3132 201.99 33.4599C201.643 33.6065 201.26 33.6799 200.84 33.6799C200.3 33.6799 199.82 33.5665 199.4 33.3399C198.986 33.1066 198.663 32.7866 198.43 32.3799C198.196 31.9732 198.08 31.5132 198.08 30.9999C198.08 30.4865 198.19 30.0265 198.41 29.6199C198.636 29.2132 198.943 28.8965 199.33 28.6699C199.723 28.4432 200.163 28.3299 200.65 28.3299C201.136 28.3299 201.573 28.4432 201.96 28.6699C202.346 28.8965 202.65 29.2132 202.87 29.6199C203.09 30.0199 203.2 30.4799 203.2 30.9999L203.19 31.2199ZM200.65 28.9399C200.143 28.9399 199.716 29.1032 199.37 29.4299C199.03 29.7499 198.836 30.1699 198.79 30.6899H202.52C202.473 30.1699 202.276 29.7499 201.93 29.4299C201.59 29.1032 201.163 28.9399 200.65 28.9399Z" fill="white"/>
<path d="M207.185 30.8899C207.558 30.9765 207.845 31.1265 208.045 31.3399C208.252 31.5532 208.355 31.8132 208.355 32.1199C208.355 32.4265 208.248 32.6999 208.035 32.9399C207.828 33.1799 207.545 33.3665 207.185 33.4999C206.825 33.6265 206.428 33.6899 205.995 33.6899C205.615 33.6899 205.242 33.6365 204.875 33.5299C204.508 33.4166 204.188 33.2532 203.915 33.0399L204.155 32.5099C204.395 32.6899 204.675 32.8299 204.995 32.9299C205.315 33.0299 205.638 33.0799 205.965 33.0799C206.452 33.0799 206.848 32.9899 207.155 32.8099C207.468 32.6232 207.625 32.3732 207.625 32.0599C207.625 31.7799 207.498 31.5632 207.245 31.4099C206.992 31.2499 206.645 31.1699 206.205 31.1699H205.305V30.6499H206.165C206.558 30.6499 206.875 30.5765 207.115 30.4299C207.355 30.2765 207.475 30.0732 207.475 29.8199C207.475 29.5399 207.338 29.3199 207.065 29.1599C206.798 28.9999 206.448 28.9199 206.015 28.9199C205.448 28.9199 204.888 29.0632 204.335 29.3499L204.135 28.7999C204.762 28.4732 205.412 28.3099 206.085 28.3099C206.485 28.3099 206.845 28.3699 207.165 28.4899C207.492 28.6032 207.745 28.7665 207.925 28.9799C208.112 29.1932 208.205 29.4399 208.205 29.7199C208.205 29.9865 208.112 30.2232 207.925 30.4299C207.745 30.6365 207.498 30.7899 207.185 30.8899Z" fill="white"/>
<path d="M212.137 33.6799C211.63 33.6799 211.173 33.5665 210.767 33.3399C210.36 33.1066 210.04 32.7866 209.807 32.3799C209.573 31.9732 209.457 31.5132 209.457 30.9999C209.457 30.4865 209.573 30.0265 209.807 29.6199C210.04 29.2132 210.36 28.8965 210.767 28.6699C211.173 28.4432 211.63 28.3299 212.137 28.3299C212.643 28.3299 213.1 28.4432 213.507 28.6699C213.913 28.8965 214.23 29.2132 214.457 29.6199C214.69 30.0265 214.807 30.4865 214.807 30.9999C214.807 31.5132 214.69 31.9732 214.457 32.3799C214.23 32.7866 213.913 33.1066 213.507 33.3399C213.1 33.5665 212.643 33.6799 212.137 33.6799ZM212.137 33.0499C212.51 33.0499 212.843 32.9665 213.137 32.7999C213.437 32.6265 213.67 32.3832 213.837 32.0699C214.003 31.7565 214.087 31.3999 214.087 30.9999C214.087 30.5999 214.003 30.2432 213.837 29.9299C213.67 29.6165 213.437 29.3765 213.137 29.2099C212.843 29.0365 212.51 28.9499 212.137 28.9499C211.763 28.9499 211.427 29.0365 211.127 29.2099C210.833 29.3765 210.6 29.6165 210.427 29.9299C210.26 30.2432 210.177 30.5999 210.177 30.9999C210.177 31.3999 210.26 31.7565 210.427 32.0699C210.6 32.3832 210.833 32.6265 211.127 32.7999C211.427 32.9665 211.763 33.0499 212.137 33.0499Z" fill="white"/>
<path d="M221.044 28.3699V33.6299H220.334V28.9999H217.034V33.6299H216.324V28.3699H221.044Z" fill="white"/>
<path d="M224.872 28.3299C225.559 28.3299 226.086 28.5032 226.452 28.8499C226.819 29.1899 227.002 29.6965 227.002 30.3699V33.6299H226.322V32.8099C226.162 33.0832 225.926 33.2965 225.612 33.4499C225.306 33.6032 224.939 33.6799 224.512 33.6799C223.926 33.6799 223.459 33.5399 223.112 33.2599C222.766 32.9799 222.592 32.6099 222.592 32.1499C222.592 31.7032 222.752 31.3432 223.072 31.0699C223.399 30.7965 223.916 30.6599 224.622 30.6599H226.292V30.3399C226.292 29.8865 226.166 29.5432 225.912 29.3099C225.659 29.0699 225.289 28.9499 224.802 28.9499C224.469 28.9499 224.149 29.0065 223.842 29.1199C223.536 29.2265 223.272 29.3765 223.052 29.5699L222.732 29.0399C222.999 28.8132 223.319 28.6399 223.692 28.5199C224.066 28.3932 224.459 28.3299 224.872 28.3299ZM224.622 33.1199C225.022 33.1199 225.366 33.0299 225.652 32.8499C225.939 32.6632 226.152 32.3965 226.292 32.0499V31.1899H224.642C223.742 31.1899 223.292 31.5032 223.292 32.1299C223.292 32.4366 223.409 32.6799 223.642 32.8599C223.876 33.0332 224.202 33.1199 224.622 33.1199Z" fill="white"/>
<path d="M231.092 33.6799C230.572 33.6799 230.106 33.5665 229.693 33.3399C229.286 33.1132 228.966 32.7965 228.732 32.3899C228.499 31.9765 228.383 31.5132 228.383 30.9999C228.383 30.4865 228.499 30.0265 228.732 29.6199C228.966 29.2132 229.286 28.8965 229.693 28.6699C230.106 28.4432 230.572 28.3299 231.092 28.3299C231.546 28.3299 231.949 28.4199 232.303 28.5999C232.663 28.7732 232.946 29.0299 233.152 29.3699L232.622 29.7299C232.449 29.4699 232.229 29.2765 231.962 29.1499C231.696 29.0165 231.406 28.9499 231.092 28.9499C230.712 28.9499 230.369 29.0365 230.062 29.2099C229.762 29.3765 229.526 29.6165 229.352 29.9299C229.186 30.2432 229.102 30.5999 229.102 30.9999C229.102 31.4065 229.186 31.7665 229.352 32.0799C229.526 32.3865 229.762 32.6265 230.062 32.7999C230.369 32.9665 230.712 33.0499 231.092 33.0499C231.406 33.0499 231.696 32.9865 231.962 32.8599C232.229 32.7332 232.449 32.5399 232.622 32.2799L233.152 32.6399C232.946 32.9799 232.663 33.2399 232.303 33.4199C231.943 33.5932 231.539 33.6799 231.092 33.6799Z" fill="white"/>
<path d="M234.527 28.3699H235.237V30.6999H238.547V28.3699H239.257V33.6299H238.547V31.3099H235.237V33.6299H234.527V28.3699Z" fill="white"/>
<path d="M243.445 33.6799C242.939 33.6799 242.482 33.5665 242.075 33.3399C241.669 33.1066 241.349 32.7866 241.115 32.3799C240.882 31.9732 240.765 31.5132 240.765 30.9999C240.765 30.4865 240.882 30.0265 241.115 29.6199C241.349 29.2132 241.669 28.8965 242.075 28.6699C242.482 28.4432 242.939 28.3299 243.445 28.3299C243.952 28.3299 244.409 28.4432 244.815 28.6699C245.222 28.8965 245.539 29.2132 245.765 29.6199C245.999 30.0265 246.115 30.4865 246.115 30.9999C246.115 31.5132 245.999 31.9732 245.765 32.3799C245.539 32.7866 245.222 33.1066 244.815 33.3399C244.409 33.5665 243.952 33.6799 243.445 33.6799ZM243.445 33.0499C243.819 33.0499 244.152 32.9665 244.445 32.7999C244.745 32.6265 244.979 32.3832 245.145 32.0699C245.312 31.7565 245.395 31.3999 245.395 30.9999C245.395 30.5999 245.312 30.2432 245.145 29.9299C244.979 29.6165 244.745 29.3765 244.445 29.2099C244.152 29.0365 243.819 28.9499 243.445 28.9499C243.072 28.9499 242.735 29.0365 242.435 29.2099C242.142 29.3765 241.909 29.6165 241.735 29.9299C241.569 30.2432 241.485 30.5999 241.485 30.9999C241.485 31.3999 241.569 31.7565 241.735 32.0699C241.909 32.3832 242.142 32.6265 242.435 32.7999C242.735 32.9665 243.072 33.0499 243.445 33.0499Z" fill="white"/>
<defs>
<clipPath id="clip0_1_7291">
<rect width="35" height="35" fill="white"/>
</clipPath>
</defs>
</svg>
