<svg width="36" height="36" viewBox="0 0 36 36" fill="none" xmlns="http://www.w3.org/2000/svg">
<path d="M31.9094 7.37803C29.636 4.40453 26.4135 2.19966 22.8337 1.17481L22.094 0.961903V6.22688H22.1265V9.41329H15.1257C13.7148 9.41329 12.3904 9.97263 11.4016 10.983C10.4129 11.9971 9.88602 13.3323 9.9185 14.7468C9.95097 16.1001 10.5284 17.3811 11.5496 18.3482C12.56 19.3081 13.8627 19.835 15.2232 19.835H20.4665C21.3795 19.835 22.1228 20.5459 22.1301 21.4192C22.1337 21.8486 21.9677 22.2528 21.6646 22.5559C21.3614 22.859 20.9609 23.025 20.5351 23.025H15.1257C12.8487 23.025 10.716 22.1265 9.12099 20.4918C7.52598 18.857 6.67435 16.7027 6.72848 14.4221C6.83674 9.90406 10.6799 6.22688 15.2953 6.22688C17.2729 6.22688 18.8787 4.61743 18.8787 2.64352V0.514434L18.3121 0.5C18.2075 0.5 18.1028 0.5 17.9982 0.5C8.34875 0.5 0.5 8.34875 0.5 17.9982C0.5 21.8702 1.73776 25.5366 4.07975 28.6075C6.34596 31.5774 9.56124 33.7823 13.1302 34.8144L13.8699 35.0273V26.5867H20.7804C22.1409 26.5867 23.4436 26.0599 24.454 25.1C25.4753 24.1292 26.0526 22.8518 26.0851 21.4986C26.1176 20.084 25.5907 18.7488 24.602 17.7348C23.6132 16.7207 22.2888 16.165 20.8779 16.165H15.5371C15.0896 16.165 14.653 15.9846 14.3354 15.667C14.0359 15.3675 13.8735 14.9778 13.8735 14.5664C13.8735 14.1406 14.0395 13.7436 14.3391 13.4441C14.6386 13.1446 15.0427 12.9786 15.4686 12.9786H20.7047C25.3201 12.9786 29.1633 16.6558 29.2715 21.1738C29.3257 23.4508 28.474 25.6052 26.879 27.2399C25.284 28.8746 23.1513 29.7731 20.8743 29.7731C18.7885 29.7731 17.0888 31.4692 17.0888 33.5586V35.4711L17.6446 35.4964C17.7672 35.5 17.8863 35.5 17.9982 35.5C27.6476 35.5 35.4964 27.6476 35.4964 17.9982C35.5 14.1225 34.2586 10.449 31.9094 7.37803Z" fill="white"/>
</svg>
