<svg width="25" height="25" viewBox="0 0 25 25" fill="none" xmlns="http://www.w3.org/2000/svg">
<path d="M12.5 25C19.4036 25 25 19.4036 25 12.5C25 5.59644 19.4036 0 12.5 0C5.59644 0 0 5.59644 0 12.5C0 19.4036 5.59644 25 12.5 25Z" fill="#FEDA2C"/>
<path d="M12.5 22.136C17.8218 22.136 22.136 17.8218 22.136 12.5C22.136 7.1782 17.8218 2.86403 12.5 2.86403C7.1782 2.86403 2.86403 7.1782 2.86403 12.5C2.86403 17.8218 7.1782 22.136 12.5 22.136Z" fill="#FCAA17"/>
<path d="M12.5 5.09474L14.6914 9.53509L19.5914 10.2471L16.0458 13.7035L16.8829 18.5838L12.5 16.2796L8.11711 18.5838L8.95417 13.7035L5.40833 10.2471L10.3086 9.53509L12.5 5.09474Z" fill="#FEDA2C"/>
</svg>
