<svg width="16" height="16" viewBox="0 0 16 16" fill="none" xmlns="http://www.w3.org/2000/svg">
<path d="M10.8438 5.68738C8.00059 5.68738 5.6875 8.00047 5.6875 10.8436C5.6875 13.6868 8.00059 15.9999 10.8438 15.9999C13.6869 15.9999 16 13.6868 16 10.8436C16 8.00047 13.6869 5.68738 10.8438 5.68738ZM10.8438 10.3749C11.6192 10.3749 12.25 11.0057 12.25 11.7811C12.25 12.3914 11.8569 12.9069 11.3125 13.101V14.1249H10.375V13.101C9.83056 12.9069 9.4375 12.3914 9.4375 11.7811H10.375C10.375 12.0398 10.5851 12.2499 10.8438 12.2499C11.1024 12.2499 11.3125 12.0398 11.3125 11.7811C11.3125 11.5225 11.1024 11.3124 10.8438 11.3124C10.0683 11.3124 9.4375 10.6816 9.4375 9.90613C9.4375 9.29582 9.83056 8.78038 10.375 8.58622V7.56238H11.3125V8.58622C11.8569 8.78038 12.25 9.29582 12.25 9.90613H11.3125C11.3125 9.6475 11.1024 9.43738 10.8438 9.43738C10.5851 9.43738 10.375 9.6475 10.375 9.90613C10.375 10.1648 10.5851 10.3749 10.8438 10.3749Z" fill="white"/>
<path d="M5.21875 5.68738C8.11 5.68738 10.375 4.45188 10.375 2.87488C10.375 1.29788 8.11 -0.00012207 5.21875 -0.00012207C2.3275 -0.00012207 0 1.29788 0 2.87488C0 4.45188 2.3275 5.68738 5.21875 5.68738Z" fill="white"/>
<path d="M0 10.5486V11.3124C0 12.8894 2.3275 14.1249 5.21875 14.1249C5.38275 14.1249 5.54166 14.1098 5.70312 14.1019C5.34356 13.5365 5.07541 12.9092 4.9175 12.2386C2.82672 12.1809 1.01131 11.5384 0 10.5486Z" fill="white"/>
<path d="M4.77253 11.2885C4.76178 11.1411 4.75 10.9938 4.75 10.8436C4.75 10.355 4.81403 9.88203 4.92322 9.42635C2.82984 9.36963 1.01222 8.72682 0 7.7361V8.49988C0 9.99322 2.10194 11.1668 4.77253 11.2885Z" fill="white"/>
<path d="M5.21875 8.49988C5.21925 8.49988 5.21966 8.49981 5.22019 8.49981C5.52934 7.76094 5.97875 7.09488 6.53684 6.53682C6.1135 6.59032 5.676 6.62488 5.21875 6.62488C2.99322 6.62488 1.06019 5.96122 0 4.9236V5.68738C0 7.26438 2.3275 8.49988 5.21875 8.49988Z" fill="white"/>
</svg>
