<svg width="15" height="16" viewBox="0 0 15 16" fill="none" xmlns="http://www.w3.org/2000/svg">
<path d="M7.49656 0C4.22261 0 1.57085 2.44113 1.57085 5.45503V9.70996L0.259792 11.5272C-0.225376 12.2159 -0.0105687 13.133 0.733848 13.5796C0.993098 13.733 1.28938 13.8149 1.59678 13.8183H13.3926C14.2815 13.8149 15.0037 13.15 15 12.3284C15 12.0386 14.9074 11.7556 14.7333 11.5135L13.4223 9.70655V5.45503C13.4223 2.44113 10.7705 0 7.49656 0Z" fill="white"/>
<path d="M7.49589 16C8.49955 16 9.39211 15.417 9.72914 14.5442H5.26634C5.59966 15.417 6.49222 16 7.49589 16Z" fill="white"/>
</svg>
