<svg width="6" height="11" viewBox="0 0 6 11" fill="none" xmlns="http://www.w3.org/2000/svg">
<path d="M5.83801 5.54433L1.29341 1.09514C1.18753 0.991481 1.04636 0.93457 0.896878 0.93457C0.747398 0.93457 0.606223 0.991481 0.502418 1.09514L0.168165 1.42238C-0.0498265 1.63579 -0.0498265 1.98335 0.168165 2.19473L3.98612 5.93254L0.164012 9.67441C0.058131 9.77603 0 9.91424 0 10.0606C0 10.2069 0.058131 10.3451 0.164012 10.4468L0.498266 10.774C0.604147 10.8777 0.743246 10.9346 0.892726 10.9346C1.04221 10.9346 1.18338 10.8777 1.28719 10.774L5.83801 6.32075C5.94389 6.21709 6.00202 6.07888 5.99995 5.93254C6.00202 5.7862 5.94389 5.64798 5.83801 5.54433Z" fill="#222B45"/>
</svg>
