<svg width="14" height="15" viewBox="0 0 14 15" fill="none" xmlns="http://www.w3.org/2000/svg">
<path d="M7.03955 7.22457C8.03271 7.22457 8.8911 6.86715 9.59422 6.16696C10.2973 5.46384 10.6518 4.60544 10.6518 3.61229C10.6518 2.61913 10.2944 1.76073 9.59422 1.05761C8.8911 0.35449 8.03271 0 7.03955 0C6.04639 0 5.188 0.35742 4.48487 1.05761C3.78175 1.7578 3.42433 2.61913 3.42433 3.61229C3.42433 4.60544 3.78175 5.46384 4.48195 6.16696C5.18507 6.87008 6.04639 7.22457 7.03955 7.22457Z" fill="white"/>
<path d="M13.3593 11.5345C13.3388 11.2416 13.2978 10.9222 13.2392 10.5853C13.1777 10.2455 13.0986 9.92614 13.0048 9.63317C12.9081 9.33141 12.7763 9.02966 12.6122 8.74548C12.4423 8.44665 12.2431 8.18884 12.0204 7.97498C11.7861 7.75232 11.5019 7.57361 11.1708 7.44177C10.8427 7.31287 10.4765 7.24549 10.0869 7.24549C9.93452 7.24549 9.78511 7.30701 9.50093 7.49451C9.32515 7.60877 9.12007 7.7406 8.88863 7.89001C8.69234 8.01599 8.42574 8.13318 8.09762 8.23865C7.77828 8.34118 7.45016 8.39392 7.13083 8.39392C6.81149 8.39392 6.48337 8.34118 6.16403 8.23865C5.83591 8.13318 5.56931 8.01599 5.37302 7.89001C5.14451 7.74353 4.93943 7.6117 4.76072 7.49451C4.47361 7.30701 4.32713 7.24549 4.17479 7.24549C3.78514 7.24549 3.41893 7.31287 3.09081 7.44177C2.75976 7.57361 2.47558 7.75232 2.2412 7.97498C2.01855 8.18884 1.81933 8.44665 1.64941 8.74548C1.48535 9.03259 1.35351 9.33141 1.25683 9.63317C1.16308 9.92614 1.08398 10.2455 1.02246 10.5853C0.960937 10.9222 0.919922 11.2416 0.902344 11.5345C0.881836 11.8216 0.873047 12.1205 0.873047 12.4193C0.873047 13.2015 1.12207 13.8372 1.61132 14.3031C2.10058 14.766 2.74218 15.0003 3.52147 15.0003H10.7431C11.5224 15.0003 12.164 14.766 12.6503 14.306C13.1425 13.8402 13.3915 13.2044 13.3915 12.4222C13.3915 12.1175 13.3798 11.8216 13.3593 11.5345Z" fill="white"/>
</svg>
