<svg width="14" height="15" viewBox="0 0 14 15" fill="none" xmlns="http://www.w3.org/2000/svg">
<path d="M10.0782 6.76628C9.82907 6.66073 9.66667 6.41214 9.66667 6.13635V4.43183H3.66667C3.22464 4.43183 2.80071 4.61141 2.48815 4.93108C2.17559 5.25074 2 5.6843 2 6.13635C2 6.51292 1.70152 6.81817 1.33333 6.81817H0.666667C0.29848 6.81817 0 6.51292 0 6.13635C0 5.14181 0.386307 4.18798 1.07394 3.48472C1.76157 2.78146 2.69421 2.38638 3.66667 2.38638H9.66667V0.681838C9.66667 0.40607 9.82907 0.157452 10.0782 0.0519209C10.3273 -0.0536113 10.6141 0.00471877 10.8047 0.199718L13.4714 2.92698C13.7317 3.19325 13.7317 3.62495 13.4714 3.89122L10.8047 6.61846C10.6141 6.81346 10.3273 6.87182 10.0782 6.76628Z" fill="white"/>
<path d="M3.92179 8.23369C4.17091 8.33923 4.33333 8.58789 4.33333 8.86362V10.5682H10.3333C10.7753 10.5682 11.1993 10.3886 11.5119 10.0689C11.8244 9.7493 12 9.31573 12 8.86362C12 8.48705 12.2985 8.1818 12.6667 8.1818H13.3333C13.7015 8.1818 14 8.48705 14 8.86362C14 9.85818 13.6137 10.812 12.9261 11.5153C12.2384 12.2186 11.3058 12.6136 10.3333 12.6136H4.33333V14.3181C4.33333 14.5939 4.17091 14.8425 3.92179 14.9481C3.67267 15.0536 3.38593 14.9953 3.19526 14.8003L0.528593 12.073C0.268247 11.8067 0.268247 11.375 0.528593 11.1088L3.19526 8.3815C3.38593 8.1865 3.67267 8.12821 3.92179 8.23369Z" fill="white"/>
</svg>
