<svg width="15" height="13" viewBox="0 0 15 13" fill="none" xmlns="http://www.w3.org/2000/svg">
<path d="M1.40666 4.62502H11.8967L10.7532 5.76845C10.6213 5.90031 10.5473 6.07916 10.5473 6.26564C10.5473 6.45213 10.6213 6.63098 10.7532 6.76284C10.8851 6.89471 11.0639 6.96879 11.2504 6.96879C11.4369 6.96879 11.6157 6.89471 11.7476 6.76284L14.0914 4.41909C14.1567 4.3538 14.2084 4.27629 14.2438 4.19098C14.2791 4.10567 14.2973 4.01423 14.2973 3.92189C14.2973 3.82955 14.2791 3.73812 14.2438 3.65281C14.2084 3.5675 14.1567 3.48999 14.0914 3.4247L11.7476 1.08095C11.6157 0.949081 11.4369 0.875 11.2504 0.875C11.0639 0.875 10.8851 0.949081 10.7532 1.08095C10.6213 1.21281 10.5473 1.39166 10.5473 1.57814C10.5473 1.76463 10.6213 1.94348 10.7532 2.07534L11.8967 3.21877H1.40666C1.22018 3.21877 1.04134 3.29285 0.909475 3.42471C0.777613 3.55657 0.703534 3.73541 0.703534 3.92189C0.703534 4.10837 0.777613 4.28722 0.909475 4.41908C1.04134 4.55094 1.22018 4.62502 1.40666 4.62502Z" fill="white"/>
<path d="M13.5938 8.37502H3.10377L4.24722 7.23159C4.37909 7.09973 4.45317 6.92088 4.45317 6.73439C4.45317 6.54791 4.37909 6.36906 4.24722 6.2372C4.11536 6.10533 3.93651 6.03125 3.75003 6.03125C3.56354 6.03125 3.38469 6.10533 3.25283 6.2372L0.909078 8.58095C0.843783 8.64624 0.791988 8.72375 0.756651 8.80906C0.721313 8.89437 0.703125 8.9858 0.703125 9.07814C0.703125 9.17048 0.721313 9.26192 0.756651 9.34723C0.791988 9.43254 0.843783 9.51005 0.909078 9.57534L3.25283 11.9191C3.38469 12.051 3.56354 12.125 3.75003 12.125C3.93651 12.125 4.11536 12.051 4.24722 11.9191C4.37909 11.7872 4.45317 11.6084 4.45317 11.4219C4.45317 11.2354 4.37909 11.0566 4.24722 10.9247L3.10377 9.78127H13.5938C13.7803 9.78127 13.9591 9.70719 14.091 9.57533C14.2228 9.44347 14.2969 9.26462 14.2969 9.07814C14.2969 8.89166 14.2228 8.71282 14.091 8.58096C13.9591 8.4491 13.7803 8.37502 13.5938 8.37502Z" fill="white"/>
</svg>
