<svg width="13" height="16" viewBox="0 0 13 16" fill="none" xmlns="http://www.w3.org/2000/svg">
<path d="M12.5617 1.42099C12.2787 1.14105 11.9022 0.986842 11.5017 0.986842H10.8368V1.64474C10.8368 2.37026 10.2394 2.96053 9.50497 2.96053H3.51163C2.77723 2.96053 2.17977 2.37026 2.17977 1.64474V0.986842H1.51273C0.687468 0.986842 0.0153344 1.65013 0.014401 2.46546L1.04621e-06 14.5181C-0.00046562 14.9138 0.155201 15.2859 0.438234 15.5659C0.721334 15.8458 1.0978 16 1.49833 16H11.4872C12.3125 16 12.9847 15.3367 12.9856 14.5214L13 2.46875C13.0005 2.07306 12.8448 1.70095 12.5617 1.42099ZM6.6698 5.92105H10.2182C10.4941 5.92105 10.7177 6.14197 10.7177 6.41447C10.7177 6.68697 10.4941 6.90789 10.2182 6.90789H6.6698C6.39397 6.90789 6.17037 6.68697 6.17037 6.41447C6.17037 6.14197 6.39397 5.92105 6.6698 5.92105ZM6.6698 9.21053H10.2182C10.4941 9.21053 10.7177 9.43145 10.7177 9.70395C10.7177 9.97645 10.4941 10.1974 10.2182 10.1974H6.6698C6.39397 10.1974 6.17037 9.97645 6.17037 9.70395C6.17037 9.43145 6.39397 9.21053 6.6698 9.21053ZM6.6698 12.5H10.2325C10.5083 12.5 10.7319 12.7209 10.7319 12.9934C10.7319 13.2659 10.5083 13.4868 10.2325 13.4868H6.6698C6.39397 13.4868 6.17037 13.2659 6.17037 12.9934C6.17037 12.7209 6.39397 12.5 6.6698 12.5ZM2.41437 5.94053C2.60943 5.74783 2.92563 5.74783 3.1207 5.94053L3.39227 6.20885L4.54407 5.07095C4.73913 4.87829 5.05533 4.87822 5.25037 5.07095C5.4454 5.26362 5.4454 5.57605 5.25037 5.76875L3.7454 7.25553C3.65173 7.34806 3.5247 7.40007 3.39223 7.40007C3.25977 7.40007 3.13273 7.34809 3.03907 7.25553L2.41433 6.63829C2.2193 6.44562 2.2193 6.13319 2.41437 5.94053ZM2.41437 9.48122C2.60943 9.28852 2.92563 9.28852 3.1207 9.48122L3.39227 9.74951L4.54407 8.61161C4.7391 8.41895 5.05533 8.41895 5.25037 8.61161C5.4454 8.80428 5.4454 9.11671 5.25037 9.30941L3.7454 10.7962C3.65177 10.8888 3.5247 10.9408 3.39223 10.9408C3.25977 10.9408 3.13273 10.8888 3.03907 10.7962L2.41433 10.179C2.2193 9.98632 2.2193 9.67391 2.41437 9.48122ZM2.41437 12.7707C2.60943 12.578 2.92563 12.578 3.1207 12.7707L3.39227 13.039L4.54407 11.9011C4.7391 11.7084 5.05533 11.7084 5.25037 11.9011C5.4454 12.0938 5.4454 12.4062 5.25037 12.5989L3.7454 14.0857C3.65177 14.1782 3.5247 14.2302 3.39223 14.2302C3.25977 14.2302 3.13273 14.1783 3.03907 14.0857L2.41433 13.4685C2.2193 13.2758 2.2193 12.9634 2.41437 12.7707Z" fill="white"/>
<path d="M3.1787 1.64474C3.1787 1.82641 3.32777 1.97368 3.51167 1.97368H9.505C9.6889 1.97368 9.83797 1.82641 9.83797 1.64474V0.328947C9.83797 0.14727 9.6889 0 9.505 0H3.51167C3.32777 0 3.1787 0.14727 3.1787 0.328947V1.64474Z" fill="white"/>
</svg>
