<svg width="15" height="15" viewBox="0 0 15 15" fill="none" xmlns="http://www.w3.org/2000/svg">
<path d="M14.7783 13.6819L11.0701 9.96485C12.0244 8.85764 12.5425 7.48682 12.5425 6.06327C12.5425 2.71529 9.73408 0 6.27126 0C2.80843 0 0 2.71529 0 6.06327C0 9.41125 2.80843 12.1265 6.27126 12.1265C7.58004 12.1265 8.80702 11.7575 9.87041 11.0193L13.5786 14.7627C13.7422 14.9209 13.9331 15 14.1785 15C14.3966 15 14.5875 14.9209 14.7511 14.7891C15.0783 14.4991 15.0783 13.9982 14.7783 13.6819ZM6.27126 1.58172C8.83429 1.58172 10.9065 3.58524 10.9065 6.06327C10.9065 8.5413 8.83429 10.5448 6.27126 10.5448C3.70822 10.5448 1.63598 8.5413 1.63598 6.06327C1.63598 3.58524 3.70822 1.58172 6.27126 1.58172Z" fill="#7D91AE"/>
</svg>
