<svg width="15" height="15" viewBox="0 0 15 15" fill="none" xmlns="http://www.w3.org/2000/svg">
<path d="M14.5583 8.69224L13.9145 8.17854C13.4735 7.82666 13.4743 7.17264 13.9145 6.82146L14.5583 6.30776C15.0165 5.94217 15.1336 5.31527 14.8369 4.81708L13.5657 2.68292C13.2689 2.18476 12.6501 1.96972 12.0944 2.17146L11.3135 2.45502C10.7786 2.6492 10.1947 2.32169 10.1009 1.77647L9.96386 0.979189C9.86629 0.411826 9.36474 0 8.77127 0H6.22877C5.63527 0 5.1337 0.411826 5.03616 0.979219L4.89905 1.77647C4.80513 2.32266 4.22037 2.64888 3.68648 2.45505L2.90558 2.17146C2.34993 1.96972 1.73113 2.18479 1.43434 2.68292L0.163102 4.81705C-0.133632 5.31519 -0.016474 5.94211 0.441729 6.30773L1.08552 6.82143C1.52659 7.17334 1.52571 7.8273 1.08552 8.17852L0.441699 8.69221C-0.016474 9.05783 -0.133662 9.68476 0.163071 10.1829L1.43434 12.3171C1.7311 12.8152 2.34978 13.0303 2.90558 12.8285L3.68645 12.545C4.22143 12.3507 4.80529 12.6784 4.89902 13.2235L5.03612 14.0207C5.1337 14.5882 5.63527 15 6.22874 15H8.77124C9.36471 15 9.86629 14.5882 9.96383 14.0208L10.1009 13.2236C10.1948 12.6775 10.7795 12.3511 11.3135 12.545L12.0944 12.8285C12.6502 13.0303 13.2689 12.8152 13.5657 12.3171L14.837 10.1829C15.1336 9.68476 15.0165 9.05783 14.5583 8.69224ZM12.5186 11.7311L11.7377 11.4476C10.4894 10.9943 9.12704 11.759 8.90835 13.0309L8.77127 13.8281H6.22877L6.09166 13.0309C5.87255 11.7565 4.50822 10.9952 3.26231 11.4476L2.48141 11.7311L1.21018 9.59698L1.85397 9.08329C2.88315 8.2621 2.88101 6.7362 1.85397 5.91671L1.21018 5.40302L2.48144 3.26886L3.26231 3.55242C4.51067 4.00564 5.87298 3.241 6.09166 1.96913L6.22874 1.17188H8.77124L8.90832 1.96913C9.12746 3.2436 10.4919 4.00471 11.7377 3.55242L12.5186 3.26886L13.7901 5.40272C13.7901 5.40272 13.79 5.40281 13.7898 5.40299L13.146 5.91668C12.1169 6.73781 12.1189 8.26374 13.146 9.08326L13.7898 9.59695L12.5186 11.7311ZM7.50001 4.60936C5.85554 4.60936 4.51765 5.9061 4.51765 7.5C4.51765 9.0939 5.85554 10.3906 7.50001 10.3906C9.14448 10.3906 10.4824 9.0939 10.4824 7.5C10.4824 5.9061 9.14448 4.60936 7.50001 4.60936ZM7.50001 9.21876C6.52221 9.21876 5.72671 8.44772 5.72671 7.5C5.72671 6.55228 6.52221 5.78124 7.50001 5.78124C8.4778 5.78124 9.2733 6.55228 9.2733 7.5C9.2733 8.44772 8.4778 9.21876 7.50001 9.21876Z" fill="#222B45"/>
</svg>
