<svg width="16" height="15" viewBox="0 0 16 15" fill="none" xmlns="http://www.w3.org/2000/svg">
<path d="M15.4859 4.8673L14.6375 1.22913C14.5334 0.782143 14.1584 0.46875 13.7281 0.46875H2.27281C1.8425 0.46875 1.4675 0.782143 1.3625 1.22913L0.514062 4.8673C0.504687 4.90647 0.5 4.94766 0.5 4.98884C0.5 6.37299 1.49844 7.5 2.72656 7.5C3.44 7.5 4.07656 7.11931 4.48438 6.52868C4.89219 7.11931 5.52875 7.5 6.24219 7.5C6.95563 7.5 7.59219 7.11931 8 6.52868C8.40781 7.11931 9.04344 7.5 9.75781 7.5C10.4722 7.5 11.1078 7.11931 11.5156 6.52868C11.9234 7.11931 12.5591 7.5 13.2734 7.5C14.5016 7.5 15.5 6.37299 15.5 4.98884C15.5 4.94766 15.4953 4.90647 15.4859 4.8673Z" fill="white"/>
<path d="M13.2734 8.50446C12.635 8.50446 12.0284 8.29554 11.5156 7.91384C10.49 8.67824 9.02563 8.67824 8 7.91384C6.97438 8.67824 5.51 8.67824 4.48438 7.91384C3.97156 8.29554 3.365 8.50446 2.72656 8.50446C2.26625 8.50446 1.83219 8.38895 1.4375 8.19208V13.5268C1.4375 14.0813 1.8575 14.5312 2.375 14.5312H6.125V10.5134H9.875V14.5312H13.625C14.1425 14.5312 14.5625 14.0813 14.5625 13.5268V8.19208C14.1678 8.38895 13.7338 8.50446 13.2734 8.50446Z" fill="white"/>
</svg>
