<svg width="15" height="15" viewBox="0 0 15 15" fill="none" xmlns="http://www.w3.org/2000/svg">
<path d="M7.5 0C3.36291 0 0 3.6579 0 8.1579V9.62631C0 11.0474 0.929023 12.2316 2.15807 12.5105C2.65645 13.9842 3.9629 15 5.44355 15H7.5C7.90162 15 8.22581 14.6473 8.22581 14.2105C8.22581 13.7789 7.90162 13.4211 7.5 13.4211H5.44355C4.79999 13.4211 4.21934 13.0947 3.83709 12.5737H4.03065C4.43224 12.5737 4.75646 12.221 4.75646 11.7842V7.46842C4.75646 7.03157 4.43224 6.67895 4.03065 6.67895H2.70967C2.29839 6.67895 1.90646 6.78422 1.55805 6.96315C2.0758 3.90525 4.53871 1.57895 7.5 1.57895C10.4613 1.57895 12.9242 3.90525 13.4419 6.96315C13.0935 6.78422 12.7016 6.67895 12.2903 6.67895H10.9693C10.5678 6.67895 10.2435 7.03157 10.2435 7.46842V11.7842C10.2435 12.221 10.5678 12.5737 10.9693 12.5737H12.2903C13.7855 12.5737 15 11.2526 15 9.6263V8.1579C15 3.6579 11.6371 0 7.5 0Z" fill="white"/>
</svg>
