<svg width="30" height="25" viewBox="0 0 30 25" fill="none" xmlns="http://www.w3.org/2000/svg">
<path d="M24.9683 12.5C24.9683 19.4039 19.3791 25 12.4841 25C5.5894 25 0 19.4039 0 12.5C0 5.59639 5.5894 0 12.4841 0C19.3791 0 24.9683 5.59639 24.9683 12.5Z" fill="#1BA27A"/>
<path d="M18.3432 6.30328H6.52197V9.16078H11.0056V13.3608H13.8595V9.16078H18.3432V6.30328Z" fill="white"/>
<path d="M12.4596 13.8082C8.75059 13.8082 5.74352 13.2204 5.74352 12.4953C5.74352 11.7703 8.75045 11.1824 12.4596 11.1824C16.1686 11.1824 19.1756 11.7703 19.1756 12.4953C19.1756 13.2204 16.1686 13.8082 12.4596 13.8082ZM20.0006 12.7142C20.0006 11.7792 16.6244 11.0213 12.4596 11.0213C8.29491 11.0213 4.91846 11.7792 4.91846 12.7142C4.91846 13.5376 7.5365 14.2235 11.0057 14.3756V20.4047H13.8593V14.3779C17.3553 14.2307 20.0006 13.5418 20.0006 12.7142Z" fill="white"/>
<path d="M22.8938 20.0512C26.8185 20.0512 30 16.8604 30 12.9243C30 8.9882 26.8185 5.79736 22.8938 5.79736C18.9692 5.79736 15.7876 8.9882 15.7876 12.9243C15.7876 16.8604 18.9692 20.0512 22.8938 20.0512Z" fill="#FF060A"/>
<path d="M27.6312 11.6297C27.1871 11.2185 26.5728 10.5904 26.0723 10.145L26.0427 10.1242C25.9935 10.0845 25.9379 10.0534 25.8784 10.0321C24.6718 9.80644 19.0565 8.75373 18.9469 8.76709C18.9162 8.77141 18.8869 8.78256 18.8611 8.79975L18.8329 8.82203C18.7983 8.85731 18.772 8.89993 18.7559 8.94675L18.7485 8.96606V9.07146V9.08782C19.3807 10.8532 21.8768 16.6364 22.3683 17.9935C22.3979 18.0856 22.4541 18.2608 22.5593 18.2697H22.5829C22.6392 18.2697 22.879 17.9519 22.879 17.9519C22.879 17.9519 27.1664 12.7374 27.6002 12.1821C27.6564 12.1137 27.706 12.0401 27.7482 11.9623C27.7591 11.9015 27.754 11.8389 27.7335 11.7806C27.713 11.7223 27.6778 11.6703 27.6312 11.6297ZM23.9791 12.237L25.8088 10.7151L26.8822 11.707L23.9791 12.237ZM23.2685 12.1375L20.118 9.5481L25.2151 10.4909L23.2685 12.1375ZM23.5527 12.8161L26.7771 12.2949L23.0907 16.7493L23.5527 12.8161ZM19.6901 9.80644L23.005 12.6275L22.5252 16.7521L19.6901 9.80644Z" fill="white"/>
</svg>
