<svg width="141" height="118" viewBox="0 0 141 118" fill="none" xmlns="http://www.w3.org/2000/svg">
<path d="M116.852 59.0001C116.852 91.5864 90.6942 118 58.4257 118C26.1584 118 0 91.5864 0 59.0001C0 26.4149 26.1584 0 58.4257 0C90.6942 0 116.852 26.4149 116.852 59.0001Z" fill="#1BA27A"/>
<path d="M85.8486 29.7512H30.5254V43.2386H51.509V63.0627H64.865V43.2386H85.8486V29.7512Z" fill="white"/>
<path d="M58.3082 65.1743C40.95 65.1743 26.8769 62.4002 26.8769 58.9776C26.8769 55.5555 40.9494 52.7808 58.3082 52.7808C75.6664 52.7808 89.7389 55.5555 89.7389 58.9776C89.7389 62.4002 75.6664 65.1743 58.3082 65.1743ZM93.6002 60.0106C93.6002 55.5975 77.7996 52.0203 58.3082 52.0203C38.8174 52.0203 23.0156 55.5975 23.0156 60.0106C23.0156 63.897 35.2681 67.1349 51.5039 67.8524V96.31H64.8589V67.8636C81.2198 67.1686 93.6002 63.9171 93.6002 60.0106Z" fill="white"/>
<path d="M107.141 94.6419C125.508 94.6419 140.398 79.5811 140.398 61.0027C140.398 42.4243 125.508 27.3636 107.141 27.3636C88.7735 27.3636 73.8838 42.4243 73.8838 61.0027C73.8838 79.5811 88.7735 94.6419 107.141 94.6419Z" fill="#FF060A"/>
<path d="M129.311 54.8924C127.233 52.9511 124.358 49.9867 122.015 47.8842L121.877 47.7861C121.647 47.5989 121.386 47.452 121.108 47.3516C115.461 46.2864 89.1814 41.3176 88.6687 41.3807C88.5251 41.4011 88.3877 41.4537 88.2669 41.5349L88.1352 41.64C87.9731 41.8065 87.85 42.0077 87.7749 42.2287L87.7402 42.3198V42.8173V42.8945C90.6988 51.2271 102.38 78.5239 104.681 84.9292C104.819 85.3641 105.082 86.191 105.574 86.2329H105.685C105.949 86.2329 107.071 84.7332 107.071 84.7332C107.071 84.7332 127.136 60.1205 129.166 57.4994C129.429 57.1766 129.661 56.8293 129.859 56.4623C129.91 56.1751 129.886 55.8796 129.79 55.6044C129.694 55.3293 129.529 55.084 129.311 54.8924ZM112.219 57.7587L120.782 50.5754L125.806 55.2569L112.219 57.7587ZM108.894 57.2892L94.1492 45.067L118.004 49.5172L108.894 57.2892ZM110.224 60.4919L125.314 58.0321L108.062 79.0569L110.224 60.4919ZM92.1468 46.2864L107.66 59.6019L105.415 79.0701L92.1468 46.2864Z" fill="white"/>
</svg>
