<svg width="15" height="15" viewBox="0 0 15 15" fill="none" xmlns="http://www.w3.org/2000/svg">
<path d="M6.17786 2.60408C6.17786 1.84685 6.79391 1.23079 7.55115 1.23079H8.02642L7.88304 0.83226C7.80243 0.608139 7.59122 0.46875 7.36611 0.46875C7.30374 0.46875 7.24029 0.479462 7.17827 0.502039L2.37579 2.24999C2.09028 2.35392 1.94334 2.66986 2.04788 2.95515L2.30163 3.64778H6.17786V2.60408Z" fill="white"/>
<path d="M7.55115 2.05476C7.24776 2.05476 7.00183 2.30069 7.00183 2.60408V3.64778H11.8083V2.60408C11.8083 2.30069 11.5624 2.05476 11.259 2.05476H7.55115Z" fill="white"/>
<path d="M13.264 11.5717H11.3414C10.2056 11.5717 9.28149 10.6476 9.28149 9.51173C9.28149 8.37589 10.2056 7.4518 11.3414 7.4518H13.264V5.57039C13.264 4.96364 12.7722 4.47176 12.1654 4.47176H1.53613C0.929385 4.47176 0.4375 4.96364 0.4375 5.57039V13.4326C0.4375 14.0394 0.929385 14.5312 1.53613 14.5312H12.1654C12.7722 14.5312 13.264 14.0394 13.264 13.4326V11.5717Z" fill="white"/>
<path d="M14.088 8.27577H11.3414C10.6599 8.27577 10.1055 8.83022 10.1055 9.51173C10.1055 10.1932 10.6599 10.7477 11.3414 10.7477H14.088C14.3152 10.7477 14.5 10.5629 14.5 10.3357V8.68776C14.5 8.46059 14.3152 8.27577 14.088 8.27577ZM11.3414 9.92372C11.1139 9.92372 10.9294 9.73926 10.9294 9.51173C10.9294 9.28421 11.1139 9.09975 11.3414 9.09975C11.569 9.09975 11.7534 9.28421 11.7534 9.51173C11.7534 9.73926 11.569 9.92372 11.3414 9.92372Z" fill="white"/>
</svg>
