<svg width="16" height="16" viewBox="0 0 16 16" fill="none" xmlns="http://www.w3.org/2000/svg">
<path d="M6.53125 2.42935C6.53125 1.56779 7.23219 0.866848 8.09375 0.866848H8.6345L8.47138 0.413411C8.37966 0.158411 8.13934 -0.000183105 7.88322 -0.000183105C7.81225 -0.000183105 7.74006 0.0120044 7.6695 0.0376919L2.20534 2.02647C1.8805 2.14472 1.71331 2.50419 1.83225 2.82879L2.12097 3.61685H6.53125V2.42935Z" fill="white"/>
<path d="M8.09375 1.80435C7.74856 1.80435 7.46875 2.08416 7.46875 2.42935V3.61685H12.9375V2.42935C12.9375 2.08416 12.6577 1.80435 12.3125 1.80435H8.09375Z" fill="white"/>
<path d="M14.5938 12.6325H12.4062C11.1139 12.6325 10.0625 11.5811 10.0625 10.2887C10.0625 8.99638 11.1139 7.94497 12.4062 7.94497H14.5938V5.80435C14.5938 5.114 14.0341 4.55435 13.3438 4.55435H1.25C0.559656 4.55435 0 5.114 0 5.80435V14.7498C0 15.4402 0.559656 15.9998 1.25 15.9998H13.3438C14.0341 15.9998 14.5938 15.4402 14.5938 14.7498V12.6325Z" fill="white"/>
<path d="M15.5312 8.88247H12.4062C11.6308 8.88247 11 9.51332 11 10.2887C11 11.0641 11.6308 11.695 12.4062 11.695H15.5312C15.7897 11.695 16 11.4847 16 11.2262V9.35122C16 9.09275 15.7897 8.88247 15.5312 8.88247ZM12.4062 10.7575C12.1474 10.7575 11.9375 10.5476 11.9375 10.2887C11.9375 10.0298 12.1474 9.81997 12.4062 9.81997C12.6651 9.81997 12.875 10.0298 12.875 10.2887C12.875 10.5476 12.6651 10.7575 12.4062 10.7575Z" fill="white"/>
</svg>
