<svg width="34" height="34" viewBox="0 0 34 34" fill="none" xmlns="http://www.w3.org/2000/svg">
<path d="M33.9151 20.2116L29.9815 10.3506C29.8609 10.0473 29.6353 9.81312 29.3364 9.6854C29.0374 9.563 28.707 9.56832 28.4133 9.70136L25.3503 11.085C24.8311 11.3085 24.5531 11.8832 24.6632 12.4314L23.8503 12.8944C23.5775 13.054 23.2471 13.1125 22.9272 13.07L17.2785 12.2238C16.2924 12.0801 15.2802 12.4101 14.5669 13.1072L14.1525 13.5117H11.0161C10.8745 13.5117 10.7329 13.4584 10.628 13.3627L10.35 13.1232C10.5441 12.6389 10.413 12.0748 9.99338 11.7396L7.62271 9.83972C7.37096 9.6375 7.05627 9.54703 6.73633 9.59493C6.42164 9.6375 6.13317 9.81312 5.94436 10.0686L0.232718 17.9233C-0.144911 18.4395 -0.0557482 19.1632 0.447757 19.573L2.81318 21.4675C3.02822 21.6378 3.27998 21.723 3.54222 21.723C3.59467 21.723 3.65236 21.7176 3.70481 21.7123C4.0195 21.6697 4.30272 21.4995 4.49153 21.2334L4.51251 21.2068L4.85343 21.4675C5.05273 21.6112 5.16812 21.856 5.16812 22.1114V23.543L4.28699 24.6924C3.50026 25.7302 3.67858 27.2255 4.69608 28.0238C5.11043 28.3537 5.61393 28.5293 6.13317 28.5293C6.22758 28.5293 6.32723 28.524 6.42164 28.5134C6.52654 28.4974 6.62619 28.4708 6.72584 28.4442C6.72584 28.4761 6.72059 28.5027 6.72059 28.5347C6.72059 29.2158 7.0248 29.8544 7.54928 30.2908C7.95838 30.6208 8.45139 30.7857 8.93916 30.7857C9.24337 30.7857 9.54757 30.7165 9.83079 30.5941V30.6208C9.90422 31.1795 10.1927 31.6744 10.6123 31.9884L10.7067 32.0629C11.0633 32.329 11.4882 32.4727 11.9235 32.4727C12.0231 32.4727 12.1228 32.4674 12.2277 32.4514C12.4532 32.4195 12.6578 32.3396 12.8571 32.2385C12.9672 32.808 13.2871 33.2975 13.7644 33.6062L13.8326 33.6541C14.1735 33.8829 14.5669 34 14.9655 34C15.1124 34 15.254 33.984 15.4008 33.9521C15.9515 33.835 16.4183 33.5051 16.7278 33.0261L16.8169 32.8878C17.1893 33.1751 17.6351 33.3242 18.1124 33.3242C18.6736 33.3242 19.2243 33.09 19.6229 32.6909C20.0582 32.2492 20.289 31.6319 20.2471 31.0092C20.2471 30.972 20.2418 30.9294 20.2366 30.8922C20.8502 30.9826 21.4953 30.7857 21.9621 30.3121C22.3817 29.8864 22.5968 29.2903 22.5495 28.689C22.5443 28.6145 22.5338 28.54 22.5181 28.4655C23.2156 28.5081 23.9027 28.226 24.3748 27.6566C24.7786 27.1723 24.9674 26.5337 24.8887 25.9058C24.8835 25.8579 24.8783 25.8153 24.8678 25.7674C25.5024 25.8366 26.1475 25.6131 26.6195 25.1448C27.1388 24.6179 27.3328 23.8729 27.1912 23.1705C27.2175 23.1651 27.2437 23.1705 27.2699 23.1651L28.9587 22.9257C29.1738 23.1226 29.4623 23.2343 29.7507 23.2343C29.9133 23.2343 30.0759 23.2024 30.228 23.1279L33.3015 21.7496C33.8784 21.4941 34.1511 20.813 33.9151 20.2116ZM3.57893 20.8076C3.50026 20.8183 3.42683 20.797 3.36914 20.7491L1.0142 18.8599C0.898814 18.7641 0.87259 18.5938 0.961752 18.4714L6.66815 10.6007C6.72584 10.5209 6.80451 10.4996 6.85172 10.4943H6.88843C6.93563 10.4943 6.99857 10.5049 7.05626 10.5528L9.43218 12.4527C9.54757 12.5431 9.56855 12.7134 9.48463 12.8252L9.4112 12.9263C9.40596 12.9316 9.40071 12.9369 9.39547 12.9422L6.11219 17.455C6.10695 17.4603 6.10695 17.4603 6.1017 17.4656L5.47757 18.3278L4.04572 20.2968C4.04048 20.3021 4.04048 20.3074 4.04048 20.3074L3.75726 20.7012C3.70481 20.7757 3.63138 20.8023 3.57893 20.8076ZM6.31674 27.6034C5.93911 27.6513 5.56148 27.5448 5.25728 27.3054C4.63839 26.8158 4.523 25.8951 5.01078 25.2565L6.69962 23.0481C6.98284 22.6755 7.40767 22.484 7.83775 22.484C8.14195 22.484 8.4514 22.5851 8.71364 22.7873C9.06504 23.0693 9.26959 23.4897 9.26959 23.9421C9.26959 24.2667 9.16469 24.5754 8.96539 24.8414L7.27655 27.0499C7.03529 27.3586 6.69437 27.5555 6.31674 27.6034ZM8.12097 29.5777C7.80628 29.3169 7.62795 28.9391 7.62795 28.5347C7.62795 28.242 7.72761 27.9546 7.92167 27.7045L9.60526 25.5013C9.8203 25.214 10.135 25.0383 10.4864 24.9958C10.5388 24.9851 10.5913 24.9851 10.6385 24.9851C10.9375 24.9851 11.2312 25.0916 11.5039 25.3151C12.0703 25.7781 12.1595 26.6242 11.7032 27.1989L9.97764 29.3808C9.52134 29.9449 8.68741 30.0354 8.12097 29.5777ZM12.0913 31.5414C11.7871 31.584 11.4882 31.5095 11.2731 31.3498L11.184 31.2753C10.9322 31.0891 10.7749 30.8123 10.7329 30.4984C10.6909 30.1791 10.7801 29.8651 10.9742 29.615L12.2539 28.0078C12.4742 27.7258 12.8099 27.5768 13.1455 27.5768C13.3816 27.5768 13.6228 27.6513 13.8221 27.8056C14.1106 28.0238 14.2784 28.3644 14.2784 28.7316C14.2784 28.971 14.2102 29.1946 14.0791 29.3861C14.0686 29.3968 14.0634 29.4127 14.0529 29.4287C14.0476 29.434 14.0476 29.4393 14.0424 29.4393L14.0214 29.4713L12.8308 31.0891C12.663 31.3392 12.3955 31.4988 12.0913 31.5414ZM16.5652 31.5786L15.962 32.5312C15.7889 32.8026 15.5214 32.9889 15.2068 33.0581C14.8973 33.1219 14.5826 33.0634 14.3256 32.8931L14.2574 32.8452C13.9795 32.6643 13.7959 32.3822 13.7382 32.0576C13.6805 31.733 13.7487 31.4084 13.9427 31.137C14.2574 30.7165 14.6141 30.2482 14.7557 30.0726C14.7819 30.046 14.8082 30.0141 14.8344 29.9928C14.8396 29.9928 14.8396 29.9875 14.8396 29.9875C14.8449 29.9822 14.8554 29.9768 14.8606 29.9715C14.8868 29.9502 14.9078 29.9289 14.9498 29.9023C15.3431 29.6629 15.8361 29.6629 16.219 29.913C16.5547 30.1312 16.7592 30.5143 16.7592 30.9294C16.754 31.1636 16.691 31.3871 16.5652 31.5786ZM25.9797 24.4955C25.5496 24.9266 24.852 24.9798 24.3695 24.6233L21.3537 22.3616L20.1789 21.4782C19.9796 21.3292 19.6963 21.3717 19.5442 21.574C19.3974 21.7762 19.4394 22.0635 19.6387 22.2179L23.4359 25.0703C23.7401 25.2991 23.9342 25.6344 23.9814 26.0175C24.0286 26.4007 23.9185 26.7732 23.6719 27.0712C23.2209 27.614 22.4237 27.7151 21.852 27.3054L18.2383 24.6818C18.0337 24.5328 17.7505 24.5807 17.6089 24.7882C17.462 24.9958 17.5092 25.2831 17.7138 25.4268L21.1702 27.9333C21.4376 28.1302 21.6055 28.4336 21.6369 28.7635C21.6632 29.0988 21.5478 29.4234 21.3118 29.6629C20.9184 30.0673 20.2838 30.1046 19.838 29.764L16.4288 27.0712C16.2295 26.9169 15.9463 26.9488 15.7942 27.151C15.6421 27.3479 15.6735 27.6406 15.8676 27.795L18.8467 30.1578C19.1299 30.3813 19.3082 30.7165 19.3292 31.0784C19.3554 31.4456 19.2243 31.7915 18.9673 32.0523C18.5477 32.478 17.8397 32.5259 17.3676 32.18C17.3676 32.18 17.3414 32.1481 17.3047 32.1108L17.3152 32.0949C17.5355 31.7543 17.6509 31.3551 17.6509 30.9347C17.6509 30.2057 17.2942 29.5405 16.6963 29.1467C16.24 28.8486 15.6945 28.7582 15.1753 28.854C15.1753 28.8167 15.1805 28.7795 15.1805 28.7422C15.1805 28.077 14.8816 27.4703 14.3623 27.0765C13.9113 26.736 13.3711 26.6082 12.8571 26.6827C12.962 25.9164 12.684 25.1129 12.0284 24.5754C11.5616 24.1869 10.9689 24.0166 10.371 24.0858C10.2923 24.0964 10.2189 24.1177 10.1455 24.1337C10.1507 24.0698 10.1612 24.0113 10.1612 23.9474C10.1612 23.2077 9.83603 22.5265 9.2591 22.0689C8.3937 21.3877 7.20312 21.4249 6.37443 22.0848C6.37443 22.0795 6.37443 22.0795 6.37968 22.0742C6.36919 22.0848 6.3587 22.0955 6.34821 22.1008C6.29576 22.1434 6.24331 22.1966 6.19611 22.2445C6.15415 22.2871 6.10695 22.3243 6.06499 22.3722V22.1168C6.06499 21.5633 5.80799 21.0471 5.38316 20.7331L5.037 20.4724L6.53178 18.4129L6.79402 18.0563C6.80976 18.0404 6.82025 18.0244 6.83598 18.0085L9.83079 13.8842L10.0248 14.0491C10.2923 14.2886 10.6437 14.4217 11.0056 14.4217H13.198L11.9392 15.6456C11.6455 15.933 11.4829 16.3215 11.4829 16.7366C11.4829 17.3326 11.8081 17.8594 12.3378 18.1096C13.6281 18.7375 15.1543 18.7056 16.4183 18.0297L16.9638 17.7424C17.4778 17.4656 18.1072 17.5295 18.5635 17.902L23.887 22.2285C24.1964 22.4733 24.5216 22.6755 24.8573 22.8245C24.9674 22.8724 25.0881 22.9203 25.1929 22.9576C25.2874 22.9948 25.387 23.0268 25.4709 23.0481C25.5863 23.0853 25.7017 23.1119 25.8013 23.1279C25.9377 23.1545 26.0688 23.1758 26.179 23.1811C26.2314 23.1864 26.2786 23.1864 26.3311 23.1917C26.3101 23.1971 26.2944 23.2024 26.2734 23.2077C26.4202 23.6494 26.3153 24.155 25.9797 24.4955ZM27.144 22.2605C26.971 22.2817 26.7821 22.2924 26.5671 22.2871C26.4779 22.2871 26.394 22.2817 26.2734 22.2658C26.1685 22.2604 26.0741 22.2392 25.9587 22.2179C25.8853 22.2072 25.8118 22.1913 25.7174 22.1593C25.644 22.1434 25.5758 22.1168 25.5076 22.0902C25.4132 22.0582 25.3136 22.0157 25.2244 21.9784C24.9622 21.8613 24.6999 21.7017 24.4534 21.5048L19.4026 17.3965L19.1299 17.1783C18.6998 16.827 18.1753 16.6461 17.6456 16.6461C17.268 16.6461 16.8904 16.7366 16.5494 16.9228L16.004 17.2102C14.9917 17.753 13.7697 17.7796 12.7364 17.2741C12.4899 17.157 12.4008 16.9175 12.4008 16.7313C12.4008 16.6195 12.4322 16.4492 12.5791 16.3055L15.1963 13.7618C15.7103 13.2615 16.4393 13.0221 17.1474 13.1285L22.8013 13.9746C23.3205 14.0491 23.8555 13.948 24.2961 13.6926L24.9884 13.2988L28.492 22.0689L27.144 22.2605ZM32.9343 20.9194L29.8556 22.2977C29.735 22.3509 29.5881 22.3083 29.499 22.154L26.2262 13.9534L25.8013 12.8997L25.5601 12.293C25.5024 12.1546 25.5653 11.995 25.7069 11.9311L28.7804 10.5475C28.8486 10.5156 28.9273 10.5156 28.9955 10.5422C29.0636 10.5688 29.1161 10.622 29.1423 10.6965L33.076 20.5628C33.1284 20.6959 33.0655 20.8555 32.9343 20.9194Z" fill="white"/>
<path d="M17.0005 10.9466C19.9743 10.9466 22.3922 8.49335 22.3922 5.47597C22.3922 2.4586 19.9743 0 17.0005 0C14.0267 0 11.6035 2.45328 11.6035 5.47597C11.6088 8.49335 14.0267 10.9466 17.0005 10.9466ZM17.0005 0.920645C19.4761 0.920645 21.4848 2.96416 21.4848 5.47597C21.4848 7.98779 19.4708 10.026 17.0005 10.026C14.5249 10.026 12.5109 7.98247 12.5109 5.47597C12.5109 2.96416 14.5249 0.920645 17.0005 0.920645Z" fill="white"/>
<path d="M15.8991 7.14165C15.983 7.2268 16.0984 7.27469 16.219 7.27469C16.3396 7.27469 16.455 7.2268 16.5389 7.14165L19.1771 4.46486C19.3554 4.28393 19.3554 3.99656 19.1771 3.81562C18.9988 3.63468 18.7156 3.63468 18.5372 3.81562L16.219 6.16779L15.469 5.40679C15.2907 5.22586 15.0075 5.22586 14.8291 5.40679C14.6508 5.58773 14.6508 5.8751 14.8291 6.05603L15.8991 7.14165Z" fill="white"/>
</svg>
