<svg width="27" height="34" viewBox="0 0 27 34" fill="none" xmlns="http://www.w3.org/2000/svg">
<path d="M2.25 34H24.75C25.9926 34 27 32.9852 27 31.7333V5.0031C26.9995 4.76887 26.9506 4.53731 26.8566 4.3231C26.8521 4.3112 26.8447 4.30157 26.8391 4.28967C26.7572 4.10842 26.6443 3.94308 26.5056 3.8012L23.2273 0.498101C23.0859 0.356652 22.9208 0.241542 22.7396 0.158101C22.7295 0.153568 22.7211 0.146768 22.7104 0.142801C22.4973 0.0483769 22.267 -0.000257859 22.0343 1.02815e-06L2.25 2.47908e-09C1.00736 1.02815e-06 0 1.01482 0 2.26667V31.7333C0 32.9852 1.00736 34 2.25 34ZM25.0796 3.96667H24.1875C23.5662 3.96667 23.0625 3.45926 23.0625 2.83333V1.9346L25.0796 3.96667ZM1.125 2.26667C1.125 1.64075 1.62868 1.13333 2.25 1.13333H21.9375V2.83333C21.9375 4.08518 22.9449 5.1 24.1875 5.1H25.875V31.7333C25.875 32.3593 25.3713 32.8667 24.75 32.8667H2.25C1.62868 32.8667 1.125 32.3593 1.125 31.7333V2.26667Z" fill="white"/>
<path d="M5.0625 13.0333H8.4375C9.36948 13.0333 10.125 12.2722 10.125 11.3333V8.16793L11.6477 6.63397C11.8609 6.41162 11.8578 6.05819 11.6408 5.8396C11.4239 5.62102 11.073 5.61795 10.8523 5.8327L9.77906 6.91333C9.46303 6.4866 8.966 6.23467 8.4375 6.23333H5.0625C4.13052 6.23333 3.375 6.99445 3.375 7.93333V11.3333C3.375 12.2722 4.13052 13.0333 5.0625 13.0333ZM4.5 7.93333C4.5 7.62037 4.75184 7.36667 5.0625 7.36667H8.4375C8.672 7.3678 8.88089 7.51623 8.96062 7.7384L7.3125 9.39873L6.58519 8.66603C6.36447 8.45128 6.01364 8.45435 5.79666 8.67294C5.57969 8.89152 5.57664 9.24495 5.78981 9.4673L6.91481 10.6006C7.13447 10.8218 7.49053 10.8218 7.71019 10.6006L9 9.30127V11.3333C9 11.6463 8.74816 11.9 8.4375 11.9H5.0625C4.75184 11.9 4.5 11.6463 4.5 11.3333V7.93333Z" fill="white"/>
<path d="M5.0625 20.9667H8.4375C9.36948 20.9667 10.125 20.2056 10.125 19.2667V15.8667C10.125 14.9278 9.36948 14.1667 8.4375 14.1667H5.0625C4.13052 14.1667 3.375 14.9278 3.375 15.8667V19.2667C3.375 20.2056 4.13052 20.9667 5.0625 20.9667ZM4.5 15.8667C4.5 15.5537 4.75184 15.3 5.0625 15.3H8.4375C8.74816 15.3 9 15.5537 9 15.8667V19.2667C9 19.5796 8.74816 19.8333 8.4375 19.8333H5.0625C4.75184 19.8333 4.5 19.5796 4.5 19.2667V15.8667Z" fill="white"/>
<path d="M5.0625 28.9H8.4375C9.36948 28.9 10.125 28.1389 10.125 27.2V23.8C10.125 22.8611 9.36948 22.1 8.4375 22.1H5.0625C4.13052 22.1 3.375 22.8611 3.375 23.8V27.2C3.375 28.1389 4.13052 28.9 5.0625 28.9ZM4.5 23.8C4.5 23.487 4.75184 23.2333 5.0625 23.2333H8.4375C8.74816 23.2333 9 23.487 9 23.8V27.2C9 27.513 8.74816 27.7667 8.4375 27.7667H5.0625C4.75184 27.7667 4.5 27.513 4.5 27.2V23.8Z" fill="white"/>
<path d="M13.5 8.5H23.0625C23.3732 8.5 23.625 8.24629 23.625 7.93333C23.625 7.62037 23.3732 7.36667 23.0625 7.36667H13.5C13.1893 7.36667 12.9375 7.62037 12.9375 7.93333C12.9375 8.24629 13.1893 8.5 13.5 8.5Z" fill="white"/>
<path d="M13.5 11.3333H19.125C19.4357 11.3333 19.6875 11.0796 19.6875 10.7667C19.6875 10.4537 19.4357 10.2 19.125 10.2H13.5C13.1893 10.2 12.9375 10.4537 12.9375 10.7667C12.9375 11.0796 13.1893 11.3333 13.5 11.3333Z" fill="white"/>
<path d="M13.5 16.4333H23.0625C23.3732 16.4333 23.625 16.1796 23.625 15.8667C23.625 15.5537 23.3732 15.3 23.0625 15.3H13.5C13.1893 15.3 12.9375 15.5537 12.9375 15.8667C12.9375 16.1796 13.1893 16.4333 13.5 16.4333Z" fill="white"/>
<path d="M13.5 19.2667H19.125C19.4357 19.2667 19.6875 19.013 19.6875 18.7C19.6875 18.387 19.4357 18.1333 19.125 18.1333H13.5C13.1893 18.1333 12.9375 18.387 12.9375 18.7C12.9375 19.013 13.1893 19.2667 13.5 19.2667Z" fill="white"/>
<path d="M13.5 24.3667H23.0625C23.3732 24.3667 23.625 24.113 23.625 23.8C23.625 23.487 23.3732 23.2333 23.0625 23.2333H13.5C13.1893 23.2333 12.9375 23.487 12.9375 23.8C12.9375 24.113 13.1893 24.3667 13.5 24.3667Z" fill="white"/>
<path d="M13.5 27.2H19.125C19.4357 27.2 19.6875 26.9463 19.6875 26.6333C19.6875 26.3204 19.4357 26.0667 19.125 26.0667H13.5C13.1893 26.0667 12.9375 26.3204 12.9375 26.6333C12.9375 26.9463 13.1893 27.2 13.5 27.2Z" fill="white"/>
</svg>
