<svg width="34" height="34" viewBox="0 0 34 34" fill="none" xmlns="http://www.w3.org/2000/svg">
<path d="M31.7333 2.83332H15.7596C15.2293 2.83309 14.7159 2.64724 14.3083 2.30803L12.4837 0.788231C11.8725 0.279282 11.1024 0.000401747 10.3071 0H2.26667C1.66551 0 1.08897 0.238808 0.663891 0.663889C0.238809 1.08897 0 1.6655 0 2.26666V28.3332C0 28.9344 0.238809 29.5109 0.663891 29.936C1.08897 30.3611 1.66551 30.5999 2.26667 30.5999H9.1698C10.1724 31.6729 11.3847 32.5284 12.7317 33.1133C14.0787 33.6982 15.5315 34 17 34C18.4685 34 19.9213 33.6982 21.2683 33.1133C22.6153 32.5284 23.8276 31.6729 24.8302 30.5999H31.7333C32.3345 30.5999 32.911 30.3611 33.3361 29.936C33.7612 29.5109 34 28.9344 34 28.3332V5.09998C34 4.49883 33.7612 3.92229 33.3361 3.49721C32.911 3.07213 32.3345 2.83332 31.7333 2.83332ZM2.26667 1.13333H10.3071C10.8373 1.13356 11.3508 1.31941 11.7583 1.65863L13.583 3.17842C14.1942 3.68737 14.9642 3.96625 15.7596 3.96665H31.7333C32.0339 3.96665 32.3222 4.08606 32.5347 4.2986C32.7473 4.51114 32.8667 4.79941 32.8667 5.09998V8.24837C32.5236 8.04442 32.1324 7.93566 31.7333 7.93331H31.1667V7.36664C31.1667 6.76549 30.9279 6.18895 30.5028 5.76387C30.0777 5.33879 29.5012 5.09998 28.9 5.09998H5.1C4.49884 5.09998 3.92231 5.33879 3.49722 5.76387C3.07214 6.18895 2.83333 6.76549 2.83333 7.36664V7.93331H2.26667C1.86759 7.93566 1.47636 8.04442 1.13333 8.24837V2.26666C1.13333 1.96608 1.25274 1.67781 1.46528 1.46527C1.67782 1.25273 1.96609 1.13333 2.26667 1.13333ZM30.0333 7.93331H3.96667V7.36664C3.96667 7.06606 4.08607 6.7778 4.29861 6.56526C4.51115 6.35272 4.79942 6.23331 5.1 6.23331H28.9C29.2006 6.23331 29.4888 6.35272 29.7014 6.56526C29.9139 6.7778 30.0333 7.06606 30.0333 7.36664V7.93331ZM17 32.8666C15.0947 32.8666 13.2322 32.3016 11.648 31.2431C10.0638 30.1845 8.82908 28.68 8.09996 26.9198C7.37084 25.1595 7.18006 23.2226 7.55177 21.3539C7.92347 19.4852 8.84096 17.7687 10.1882 16.4215C11.5355 15.0742 13.2519 14.1568 15.1206 13.7851C16.9893 13.4134 18.9263 13.6041 20.6865 14.3332C22.4468 15.0624 23.9513 16.2971 25.0098 17.8813C26.0683 19.4655 26.6333 21.328 26.6333 23.2333C26.6305 25.7873 25.6146 28.2359 23.8086 30.0419C22.0027 31.8479 19.554 32.8637 17 32.8666ZM32.8667 28.3332C32.8667 28.6338 32.7473 28.9221 32.5347 29.1346C32.3222 29.3472 32.0339 29.4666 31.7333 29.4666H25.7624C26.9118 27.8567 27.5955 25.9614 27.7385 23.9885C27.8815 22.0156 27.4782 20.0415 26.5729 18.2827C25.6676 16.524 24.2953 15.0486 22.6066 14.0186C20.9179 12.9885 18.9781 12.4436 17 12.4436C15.0219 12.4436 13.0821 12.9885 11.3934 14.0186C9.70468 15.0486 8.33238 16.524 7.42709 18.2827C6.5218 20.0415 6.11851 22.0156 6.2615 23.9885C6.40448 25.9614 7.08821 27.8567 8.23763 29.4666H2.26667C1.96609 29.4666 1.67782 29.3472 1.46528 29.1346C1.25274 28.9221 1.13333 28.6338 1.13333 28.3332V10.2C1.13333 9.89939 1.25274 9.61112 1.46528 9.39858C1.67782 9.18604 1.96609 9.06664 2.26667 9.06664H31.7333C32.0339 9.06664 32.3222 9.18604 32.5347 9.39858C32.7473 9.61112 32.8667 9.89939 32.8667 10.2V28.3332Z" fill="white"/>
<path d="M21.8858 17.8363C21.5067 17.5926 21.0463 17.5094 20.6058 17.6051C20.1653 17.7007 19.7809 17.9673 19.537 18.3463L15.5771 24.5066L14.2352 23.1647C13.9146 22.855 13.4852 22.6837 13.0395 22.6875C12.5937 22.6914 12.1673 22.8702 11.8521 23.1854C11.5369 23.5006 11.3582 23.927 11.3543 24.3727C11.3504 24.8184 11.5218 25.2479 11.8314 25.5685L14.6648 28.4018C14.8457 28.5785 15.0635 28.7131 15.3025 28.7958C15.5415 28.8785 15.7959 28.9073 16.0473 28.8803C16.2988 28.8532 16.5412 28.7709 16.7571 28.6392C16.973 28.5075 17.1572 28.3297 17.2964 28.1185L22.3964 20.1852C22.64 19.806 22.7232 19.3455 22.6274 18.905C22.5317 18.4646 22.2649 18.0802 21.8858 17.8363ZM21.4438 19.5726L16.3438 27.5059C16.2973 27.5762 16.2359 27.6354 16.1639 27.6792C16.0919 27.7231 16.0111 27.7504 15.9273 27.7594C15.8435 27.7684 15.7588 27.7588 15.6791 27.7312C15.5995 27.7037 15.5269 27.6588 15.4666 27.6L12.6333 24.7667C12.53 24.6598 12.4729 24.5166 12.4742 24.3681C12.4755 24.2195 12.5351 24.0774 12.6402 23.9723C12.7452 23.8672 12.8874 23.8076 13.0359 23.8063C13.1845 23.805 13.3277 23.8622 13.4345 23.9654L15.2734 25.8042C15.3337 25.8631 15.4063 25.9079 15.4859 25.9355C15.5656 25.963 15.6503 25.9726 15.7341 25.9637C15.8179 25.9547 15.8987 25.9273 15.9707 25.8835C16.0427 25.8396 16.1041 25.7805 16.1506 25.7101L20.4895 18.9606C20.5707 18.8341 20.6988 18.7449 20.8457 18.7128C20.9925 18.6808 21.1461 18.7083 21.2727 18.7895C21.3992 18.8706 21.4883 18.9987 21.5204 19.1456C21.5525 19.2925 21.525 19.4461 21.4438 19.5726Z" fill="white"/>
</svg>
