<svg width="30" height="30" viewBox="0 0 30 30" fill="none" xmlns="http://www.w3.org/2000/svg">
<g clip-path="url(#clip0_1_6984)">
<path d="M29 16.5925V10.5007C28.9998 10.2914 28.9551 10.0846 28.8689 9.89395C28.7827 9.70329 28.6569 9.53312 28.5 9.39471V5.50084C28.5 5.10303 28.342 4.72151 28.0607 4.44022C27.7794 4.15892 27.3978 4.00089 27 4.00089H23.6115C22.7157 2.84313 21.4522 2.02498 20.0292 1.68118C18.6063 1.33737 17.1086 1.48843 15.783 2.10946C15.0464 1.30431 14.1187 0.697872 13.0856 0.346224C12.0526 -0.00542405 10.9475 -0.0909314 9.87268 0.0976084C8.79782 0.286148 7.78786 0.742648 6.93617 1.4249C6.08448 2.10715 5.41856 2.99312 5 4.00089H3C2.20516 4.00353 1.44363 4.32043 0.881592 4.88245C0.319553 5.44447 0.0026363 6.20598 0 7.00079V27.0001C0.000794215 27.7955 0.31712 28.5581 0.879557 29.1205C1.44199 29.6829 2.20459 29.9992 3 30H27.5C27.8978 30 28.2794 29.842 28.5607 29.5607C28.842 29.2794 29 28.8979 29 28.5001V22.4083C29.2915 22.3052 29.544 22.1147 29.723 21.8626C29.902 21.6106 29.9987 21.3094 30 21.0003V18.0004C29.9987 17.6913 29.902 17.3901 29.723 17.1381C29.544 16.8861 29.2915 16.6955 29 16.5925ZM27.5 5.50084V9.00072H24.9145C24.9686 8.67008 24.9972 8.33577 25 8.00075C25.0017 6.95619 24.75 5.92679 24.2665 5.00086H27C27.1326 5.00086 27.2598 5.05353 27.3536 5.1473C27.4473 5.24106 27.5 5.36824 27.5 5.50084ZM22.969 4.79336C23.4062 5.39241 23.7147 6.0755 23.8749 6.7996C24.0351 7.52371 24.0437 8.27314 23.9 9.00072H13.1C12.8702 7.77146 13.0666 6.50059 13.6568 5.39806C14.247 4.29554 15.1957 3.42733 16.3461 2.93689C17.4965 2.44645 18.7798 2.36311 19.984 2.70066C21.1882 3.0382 22.2412 3.77643 22.969 4.79336ZM11 1.00099C11.7206 0.999976 12.4344 1.14097 13.1005 1.41593C13.7666 1.69089 14.3719 2.09441 14.882 2.60344C13.8476 3.28555 13.0329 4.25276 12.5366 5.38808C12.0403 6.52341 11.8836 7.77821 12.0855 9.00072H6.1095C5.67792 8.16337 5.46922 7.229 5.50351 6.28761C5.5378 5.34621 5.81391 4.4295 6.30526 3.62576C6.79662 2.82203 7.48665 2.15834 8.30891 1.69863C9.13117 1.23891 10.058 0.998654 11 1.00099ZM1 7.00079C1.00211 6.47102 1.2135 5.96355 1.58811 5.58895C1.96273 5.21435 2.47022 5.00296 3 5.00086H4.6815C4.3582 6.33373 4.46873 7.73501 4.997 9.00072H3.105C2.59275 9.01013 2.09507 8.83001 1.70749 8.49495C1.31991 8.15989 1.06974 7.6935 1.005 7.18528C0.999839 7.1256 0.998169 7.06566 1 7.00579V7.00079ZM27.5 29H3C2.46957 29 1.96086 28.7893 1.58579 28.4143C1.21071 28.0392 1 27.5305 1 27.0001V23.0002H4.295C4.44201 23.0003 4.58721 23.0326 4.72041 23.0948C4.85361 23.1569 4.97158 23.2476 5.066 23.3602L5.879 24.3377C5.58695 24.7373 5.45092 25.2299 5.49646 25.7228C5.54201 26.2157 5.76599 26.675 6.12633 27.0143C6.48666 27.3537 6.95854 27.5498 7.45328 27.5658C7.94803 27.5818 8.43158 27.4165 8.81306 27.1011C9.19455 26.7857 9.4477 26.3418 9.52496 25.8529C9.60221 25.364 9.49825 24.8637 9.2326 24.446C8.96695 24.0283 8.55791 23.7221 8.08234 23.5847C7.60677 23.4474 7.09742 23.4885 6.65 23.7002L5.8355 22.7213C5.6475 22.4952 5.41198 22.3135 5.14571 22.1888C4.87945 22.0642 4.58898 21.9998 4.295 22.0003H1V20.0003H9.571C9.6927 20.4717 9.98211 20.8824 10.385 21.1556C10.7879 21.4288 11.2766 21.5457 11.7595 21.4844C12.2424 21.423 12.6864 21.1877 13.0082 20.8224C13.33 20.4572 13.5075 19.9871 13.5075 19.5004C13.5075 19.0136 13.33 18.5435 13.0082 18.1783C12.6864 17.813 12.2424 17.5777 11.7595 17.5164C11.2766 17.455 10.7879 17.5719 10.385 17.8451C9.98211 18.1183 9.6927 18.5291 9.571 19.0004H1V17.0004H4.295C4.58869 17.0005 4.87881 16.9361 5.14483 16.8117C5.41086 16.6873 5.6463 16.5059 5.8345 16.2805L6.65 15.3005C6.91487 15.4297 7.2053 15.4981 7.5 15.5005C7.95244 15.5035 8.3927 15.3541 8.7498 15.0762C9.1069 14.7984 9.36003 14.4084 9.46835 13.9692C9.57668 13.5299 9.5339 13.0669 9.3469 12.655C9.15991 12.243 8.8396 11.906 8.43764 11.6983C8.03567 11.4906 7.57547 11.4244 7.13125 11.5103C6.68703 11.5961 6.28468 11.8291 5.98907 12.1716C5.69347 12.5142 5.52185 12.9463 5.50188 13.3982C5.48191 13.8502 5.61476 14.2958 5.879 14.663L5.0675 15.639C4.97299 15.752 4.85484 15.843 4.72137 15.9055C4.5879 15.9679 4.44236 16.0004 4.295 16.0005H1V9.20071C1.58016 9.71592 2.32909 10.0005 3.105 10.0007H27.5C27.6326 10.0007 27.7598 10.0534 27.8536 10.1471C27.9473 10.2409 28 10.3681 28 10.5007V16.5005H25.5C24.7044 16.5005 23.9413 16.8165 23.3787 17.3791C22.8161 17.9417 22.5 18.7047 22.5 19.5004C22.5 20.296 22.8161 21.059 23.3787 21.6216C23.9413 22.1842 24.7044 22.5003 25.5 22.5003H28V28.5001C28 28.6327 27.9473 28.7598 27.8536 28.8536C27.7598 28.9474 27.6326 29 27.5 29ZM7.5 24.5002C7.69778 24.5002 7.89112 24.5588 8.05557 24.6687C8.22002 24.7786 8.34819 24.9348 8.42388 25.1175C8.49957 25.3002 8.51937 25.5013 8.48079 25.6952C8.4422 25.8892 8.34696 26.0674 8.20711 26.2072C8.06726 26.3471 7.88907 26.4423 7.69509 26.4809C7.50111 26.5195 7.30004 26.4997 7.11732 26.424C6.93459 26.3483 6.77841 26.2201 6.66853 26.0557C6.55865 25.8913 6.5 25.6979 6.5 25.5002C6.5 25.2349 6.60536 24.9806 6.79289 24.7931C6.98043 24.6055 7.23478 24.5002 7.5 24.5002ZM10.5 19.5004C10.5 19.3026 10.5587 19.1093 10.6685 18.9448C10.7784 18.7804 10.9346 18.6522 11.1173 18.5765C11.3 18.5008 11.5011 18.481 11.6951 18.5196C11.8891 18.5582 12.0673 18.6534 12.2071 18.7933C12.347 18.9331 12.4422 19.1113 12.4808 19.3053C12.5194 19.4992 12.4996 19.7003 12.4239 19.883C12.3482 20.0658 12.22 20.2219 12.0556 20.3318C11.8911 20.4417 11.6978 20.5003 11.5 20.5003C11.2348 20.5003 10.9804 20.395 10.7929 20.2074C10.6054 20.0199 10.5 19.7656 10.5 19.5004ZM6.5 13.5006C6.5 13.3028 6.55865 13.1095 6.66853 12.945C6.77841 12.7806 6.93459 12.6524 7.11732 12.5767C7.30004 12.501 7.50111 12.4812 7.69509 12.5198C7.88907 12.5584 8.06726 12.6536 8.20711 12.7935C8.34696 12.9333 8.4422 13.1115 8.48079 13.3055C8.51937 13.4995 8.49957 13.7005 8.42388 13.8832C8.34819 14.066 8.22002 14.2221 8.05557 14.332C7.89112 14.4419 7.69778 14.5005 7.5 14.5005C7.23478 14.5005 6.98043 14.3952 6.79289 14.2076C6.60536 14.0201 6.5 13.7658 6.5 13.5006ZM29 21.0003C29 21.1329 28.9473 21.2601 28.8536 21.3538C28.7598 21.4476 28.6326 21.5003 28.5 21.5003H25.5C24.9696 21.5003 24.4609 21.2896 24.0858 20.9145C23.7107 20.5395 23.5 20.0308 23.5 19.5004C23.5 18.9699 23.7107 18.4613 24.0858 18.0862C24.4609 17.7111 24.9696 17.5004 25.5 17.5004H28.5C28.6326 17.5004 28.7598 17.5531 28.8536 17.6469C28.9473 17.7406 29 17.8678 29 18.0004V21.0003Z" fill="white"/>
</g>
<defs>
<clipPath id="clip0_1_6984">
<rect width="30" height="30" fill="white"/>
</clipPath>
</defs>
</svg>
