<svg width="31" height="30" viewBox="0 0 31 30" fill="none" xmlns="http://www.w3.org/2000/svg">
<g clip-path="url(#clip0_1_6989)">
<path d="M9.35517 4.15148L9.22434 5.55715C9.19995 5.81859 9.31355 6.06686 9.52815 6.22125C9.74276 6.37559 10.0165 6.40582 10.2603 6.30211L11.5706 5.74453L12.8809 6.30217C12.9766 6.34289 13.077 6.36293 13.1766 6.36293C13.3305 6.36293 13.4826 6.315 13.613 6.22125C13.8276 6.06686 13.9412 5.81859 13.9168 5.55715L13.786 4.15148L14.7267 3.09041C14.9017 2.89301 14.9571 2.626 14.8751 2.37627C14.7932 2.12648 14.5897 1.94291 14.3309 1.88502L12.9398 1.57377L12.2109 0.360469C12.0753 0.134766 11.8359 0 11.5706 0C11.3052 0 11.0659 0.134766 10.9303 0.360469L10.2014 1.57383L8.81023 1.88502C8.5514 1.94285 8.34799 2.12654 8.266 2.37627C8.18401 2.626 8.23948 2.89295 8.41453 3.09041L9.35517 4.15148ZM10.4572 2.4177C10.6557 2.37328 10.8293 2.24848 10.9333 2.07533L11.5706 1.01443L12.208 2.07539C12.312 2.24853 12.4855 2.37328 12.6841 2.4177L13.9005 2.68986L13.0779 3.61758C12.9436 3.7691 12.8774 3.97102 12.8961 4.17152L13.0105 5.40064L11.8647 4.91309C11.7713 4.8733 11.671 4.85344 11.5706 4.85344C11.4703 4.85344 11.3699 4.8733 11.2763 4.91314L10.1306 5.40064L10.2451 4.17152C10.2637 3.9709 10.1975 3.76898 10.0632 3.61764L9.24068 2.68975L10.4572 2.4177Z" fill="white"/>
<path d="M2.63295 6.30656L3.67435 5.86348L4.71574 6.30656C4.80454 6.34441 4.89749 6.36299 4.98984 6.36299C5.13251 6.36299 5.27353 6.31851 5.39436 6.23162C5.59333 6.08859 5.69865 5.85844 5.67603 5.61603L5.57196 4.49883L6.31966 3.65549C6.48181 3.4725 6.53326 3.22506 6.4573 2.99355C6.38129 2.76211 6.19274 2.59189 5.95286 2.53822L4.84717 2.2909L4.26783 1.32656C4.14215 1.11738 3.92027 0.992461 3.67435 0.992461C3.42843 0.992461 3.2066 1.11738 3.08086 1.32656L2.50158 2.29096L1.39584 2.53828C1.15595 2.59195 0.967401 2.76217 0.891388 2.99361C0.815374 3.22512 0.866819 3.47256 1.02909 3.65561L1.77673 4.49883L1.67272 5.61603C1.65016 5.85844 1.75548 6.08853 1.95445 6.23162C2.15337 6.37471 2.4071 6.40266 2.63295 6.30656ZM1.91568 3.32303L2.78018 3.12967C2.96412 3.08848 3.12491 2.97287 3.2214 2.81238L3.67429 2.0584L4.12735 2.8125C4.22379 2.97293 4.38457 3.08853 4.56857 3.12967L5.43302 3.32303L4.84841 3.98238C4.72403 4.12271 4.66264 4.3098 4.67987 4.49584L4.76121 5.36924L3.94696 5.02277C3.77368 4.94906 3.57489 4.949 3.40161 5.02283L2.58742 5.3693L2.66877 4.4959C2.68605 4.31004 2.62472 4.12295 2.50022 3.98232L1.91568 3.32303Z" fill="white"/>
<path d="M17.1807 4.49883L17.0767 5.61603C17.0541 5.85844 17.1595 6.08853 17.3584 6.23162C17.5574 6.37471 17.8111 6.40266 18.037 6.3065L19.0784 5.86342L20.1198 6.30656C20.2085 6.34436 20.3015 6.36293 20.3939 6.36293C20.5366 6.36293 20.6776 6.31846 20.7984 6.23156C20.9974 6.08853 21.1027 5.85838 21.0801 5.61598L20.9761 4.49883L21.7238 3.65549C21.8859 3.4725 21.9374 3.22506 21.8614 2.99355C21.7854 2.76211 21.5968 2.59189 21.357 2.53822L20.2512 2.2909L19.6718 1.32656C19.5461 1.11738 19.3242 0.992461 19.0783 0.992461C18.8324 0.992461 18.6106 1.11738 18.4849 1.32656L17.9056 2.29096L16.7999 2.53828C16.56 2.59195 16.3714 2.76217 16.2954 2.99361C16.2194 3.22512 16.2709 3.47256 16.4331 3.65555L17.1807 4.49883ZM18.1842 3.12967C18.3682 3.08848 18.5289 2.97287 18.6254 2.81238L19.0783 2.0584L19.5313 2.8125C19.6278 2.97293 19.7886 3.08853 19.9726 3.12967L20.837 3.32303L20.2524 3.98238C20.128 4.12271 20.0666 4.3098 20.0838 4.49584L20.1652 5.3693L19.3509 5.02277C19.1777 4.94906 18.9789 4.949 18.8056 5.02283L17.9914 5.3693L18.0727 4.4959C18.0901 4.30998 18.0286 4.12283 17.9041 3.98238L17.3196 3.32303L18.1842 3.12967Z" fill="white"/>
<path d="M30.8569 23.487C30.8569 23.0073 30.6496 22.5747 30.319 22.2723C30.6496 21.9699 30.8569 21.5372 30.8569 21.0576C30.8569 20.1455 30.1072 19.4034 29.1863 19.4034L24.7257 19.3967C24.3868 19.3962 24.1112 19.1229 24.1112 18.7876V15.6506C24.1112 14.8479 23.7015 14.1131 23.0153 13.685C22.6864 13.4797 22.2889 13.4402 21.9248 13.5766C21.5602 13.7132 21.2883 14.0037 21.1788 14.3737L19.4062 20.3645C19.1791 21.1321 18.4561 21.6681 17.648 21.6681H16.8796V21.4173C16.8796 20.9092 16.462 20.4958 15.9486 20.4958H13.012C12.4986 20.4958 12.0809 20.9092 12.0809 21.4173V24.2393H4.49599C4.10473 24.2393 3.73953 24.0663 3.49408 23.7647C3.24864 23.4631 3.15569 23.0731 3.23904 22.6947C3.601 21.0521 4.52891 19.5666 5.8518 18.512C7.17476 17.4574 8.83883 16.8766 10.5375 16.8766H11.3829C13.8429 16.8766 16.1827 17.9291 17.8023 19.7643C17.9636 19.9471 18.2441 19.9658 18.4288 19.8062C18.6135 19.6465 18.6324 19.3689 18.4711 19.1861C17.1998 17.7456 15.5264 16.7423 13.6891 16.2824C15.1418 15.4789 16.1268 13.9421 16.1268 12.1813C16.1268 9.59227 13.9987 7.486 11.383 7.486C10.2965 7.486 9.23464 7.85883 8.39299 8.53582C8.20266 8.68887 8.17377 8.96566 8.32846 9.15404C8.48315 9.3423 8.76281 9.37096 8.95302 9.21791C9.63685 8.66783 10.4998 8.3649 11.383 8.3649C13.5091 8.3649 15.2388 10.077 15.2388 12.1813C15.2388 14.2856 13.5091 15.9977 11.383 15.9977C9.25678 15.9977 7.52706 14.2856 7.52706 12.1813C7.52706 11.6031 7.65422 11.0479 7.905 10.5312C8.0112 10.3124 7.91808 10.0499 7.69702 9.94476C7.47597 9.83971 7.21075 9.93187 7.10455 10.1507C6.79564 10.7871 6.63899 11.4703 6.63899 12.1813C6.63899 13.8596 7.53381 15.3342 8.87547 16.1645C7.57229 16.4273 6.33861 16.9954 5.29478 17.8274C3.81459 19.0075 2.77633 20.6695 2.3714 22.5074C2.2305 23.1469 2.38756 23.8061 2.80244 24.3159C3.21726 24.8257 3.83454 25.1181 4.49593 25.1181H12.0809V28.8275C12.0809 29.3357 12.4985 29.749 13.0119 29.749H15.9485C16.4619 29.749 16.8796 29.3357 16.8796 28.8275V28.8137H18.3108C19.2768 28.8137 20.1889 28.9954 21.0216 29.3538C21.9889 29.77 23.014 29.981 24.0668 29.981L29.1856 30C30.1072 30 30.8569 29.2579 30.8569 28.3458C30.8569 27.8662 30.6496 27.4336 30.3189 27.1312C30.6496 26.8288 30.8569 26.3961 30.8569 25.9165C30.8569 25.4368 30.6496 25.0042 30.3189 24.7018C30.6496 24.3993 30.8569 23.9666 30.8569 23.487ZM15.9916 28.8276C15.9916 28.851 15.9723 28.8702 15.9485 28.8702H13.0119C12.9882 28.8702 12.9689 28.8511 12.9689 28.8276V21.4172C12.9689 21.3938 12.9882 21.3746 13.0119 21.3746H15.9485C15.9723 21.3746 15.9916 21.3937 15.9916 21.4172V28.8276ZM27.7281 22.7117H29.1856C29.6176 22.7117 29.9689 23.0595 29.9689 23.487C29.9689 23.9144 29.6175 24.2621 29.1856 24.2621H27.7281C27.4829 24.2621 27.2841 24.4588 27.2841 24.7016C27.2841 24.9444 27.4829 25.1411 27.7281 25.1411H29.1856C29.6176 25.1411 29.9689 25.4889 29.9689 25.9163C29.9689 26.3437 29.6175 26.6916 29.1856 26.6916H27.7281C27.4829 26.6916 27.2841 26.8883 27.2841 27.131C27.2841 27.3738 27.4829 27.5705 27.7281 27.5705H29.1856C29.6176 27.5705 29.9689 27.9183 29.9689 28.3457C29.9689 28.7732 29.6175 29.1209 29.1872 29.1209L24.0684 29.102C23.1365 29.102 22.2305 28.9154 21.3757 28.5476C20.4305 28.1409 19.3994 27.9346 18.3108 27.9346H16.8796V22.5469H17.648C18.8477 22.5469 19.9211 21.751 20.2583 20.6115L22.031 14.6206C22.0614 14.5175 22.1373 14.4365 22.239 14.3984C22.3402 14.3606 22.4506 14.3714 22.5419 14.4284C22.9685 14.6945 23.2232 15.1513 23.2232 15.6504V18.7873C23.2232 19.6065 23.8966 20.274 24.7243 20.2754L29.1856 20.2821C29.6175 20.2821 29.9689 20.6299 29.9689 21.0574C29.9689 21.4848 29.6175 21.8326 29.1856 21.8326H27.728C27.4828 21.8326 27.284 22.0293 27.284 22.2721C27.284 22.5148 27.4828 22.7117 27.7281 22.7117Z" fill="white"/>
</g>
<defs>
<clipPath id="clip0_1_6989">
<rect width="30" height="30" fill="white" transform="translate(0.856934)"/>
</clipPath>
</defs>
</svg>
