<svg width="34" height="33" viewBox="0 0 34 33" fill="none" xmlns="http://www.w3.org/2000/svg">
<path d="M9.80294 12.1C9.65611 12.1 9.5153 12.0421 9.41148 11.9389C9.30765 11.8358 9.24932 11.6959 9.24932 11.55C9.24932 11.4041 9.191 11.2642 9.08717 11.1611C8.98335 11.0579 8.84253 11 8.6957 11H6.48123C6.3344 11 6.19358 11.0579 6.08976 11.1611C5.98593 11.2642 5.92761 11.4041 5.92761 11.55C5.92878 12.2779 6.13738 12.9906 6.52928 13.6057C6.92117 14.2207 7.48034 14.713 8.14208 15.0254V15.95C8.14208 16.0959 8.20041 16.2358 8.30424 16.3389C8.40806 16.4421 8.54887 16.5 8.6957 16.5H10.9102C11.057 16.5 11.1978 16.4421 11.3017 16.3389C11.4055 16.2358 11.4638 16.0959 11.4638 15.95V15.0254C12.257 14.6499 12.8982 14.0176 13.2822 13.2324C13.6662 12.4472 13.7702 11.5556 13.5771 10.704C13.384 9.85237 12.9053 9.09121 12.2196 8.54538C11.5338 7.99955 10.6817 7.70146 9.80294 7.7C9.69345 7.7 9.58641 7.66775 9.49537 7.60731C9.40433 7.54688 9.33337 7.46098 9.29146 7.36048C9.24956 7.25998 9.2386 7.14939 9.25996 7.0427C9.28132 6.93601 9.33405 6.83801 9.41148 6.76109C9.4889 6.68417 9.58755 6.63179 9.69494 6.61057C9.80233 6.58935 9.91364 6.60024 10.0148 6.64187C10.116 6.6835 10.2024 6.75399 10.2633 6.84444C10.3241 6.93489 10.3566 7.04122 10.3566 7.15C10.3566 7.29587 10.4149 7.43577 10.5187 7.53891C10.6225 7.64206 10.7634 7.7 10.9102 7.7H13.1247C13.2715 7.7 13.4123 7.64206 13.5161 7.53891C13.62 7.43577 13.6783 7.29587 13.6783 7.15C13.6771 6.42202 13.4685 5.70926 13.0766 5.09413C12.6847 4.479 12.1256 3.98665 11.4638 3.674V2.75C11.4638 2.60413 11.4055 2.46424 11.3017 2.36109C11.1978 2.25795 11.057 2.2 10.9102 2.2H8.6957C8.54887 2.2 8.40806 2.25795 8.30424 2.36109C8.20041 2.46424 8.14208 2.60413 8.14208 2.75V3.66795C7.60479 3.91804 7.13306 4.28831 6.76385 4.74976C6.39465 5.21121 6.13799 5.75131 6.01397 6.32775C5.89097 6.89006 5.89628 7.4726 6.02951 8.0326C6.16274 8.5926 6.42051 9.11586 6.78389 9.56396C7.14728 10.0121 7.60706 10.3736 8.12949 10.6221C8.65191 10.8706 9.22372 10.9997 9.80294 11C9.94977 11 10.0906 11.0579 10.1944 11.1611C10.2982 11.2642 10.3566 11.4041 10.3566 11.55C10.3566 11.6959 10.2982 11.8358 10.1944 11.9389C10.0906 12.0421 9.94977 12.1 9.80294 12.1ZM9.80294 9.9C9.39102 9.90065 8.98417 9.80965 8.61227 9.63367C8.24038 9.4577 7.91287 9.20121 7.65379 8.88305C7.39215 8.56026 7.20662 8.18335 7.11082 7.78C7.01502 7.37664 7.01138 6.95709 7.10017 6.55215C7.19913 6.09553 7.41492 5.67196 7.72669 5.32233C8.03847 4.97271 8.43571 4.70884 8.88006 4.5562C8.98814 4.51828 9.08171 4.44797 9.14785 4.35497C9.21399 4.26198 9.24945 4.15087 9.24932 4.037V3.3H10.3566V4.0414C10.3567 4.15509 10.3922 4.26594 10.4584 4.35872C10.5245 4.4515 10.6179 4.52165 10.7258 4.5595C11.1756 4.71799 11.5766 4.98905 11.8902 5.3465C12.2037 5.70394 12.4192 6.13568 12.5157 6.6H11.3691C11.2676 6.31482 11.0892 6.06284 10.8533 5.8716C10.6174 5.68036 10.3331 5.55723 10.0315 5.51566C9.72993 5.47409 9.42265 5.51568 9.14324 5.63588C8.86384 5.75609 8.62308 5.95028 8.44727 6.19725C8.27145 6.44421 8.16736 6.73443 8.14636 7.03619C8.12536 7.33796 8.18826 7.63965 8.32819 7.9083C8.46811 8.17695 8.67969 8.40221 8.93978 8.55947C9.19987 8.71674 9.49847 8.79994 9.80294 8.8C10.4546 8.80179 11.0846 9.03189 11.5823 9.4498C12.0799 9.8677 12.4132 10.4466 12.5235 11.0846C12.6337 11.7226 12.5139 12.3789 12.1851 12.9377C11.8563 13.4966 11.3395 13.9223 10.7258 14.1399C10.6179 14.1778 10.5245 14.248 10.4584 14.3407C10.3922 14.4335 10.3567 14.5444 10.3566 14.658V15.4H9.24932V14.658C9.24922 14.5444 9.21366 14.4335 9.14753 14.3407C9.0814 14.248 8.98796 14.1778 8.88006 14.1399C8.43032 13.9816 8.0293 13.7106 7.71576 13.3532C7.40222 12.9959 7.18676 12.5642 7.09021 12.1H8.23565C8.33712 12.3851 8.51553 12.6371 8.75139 12.8283C8.98724 13.0195 9.27146 13.1427 9.57299 13.1843C9.87452 13.2259 10.1818 13.1844 10.4612 13.0643C10.7405 12.9442 10.9813 12.7501 11.1572 12.5032C11.3331 12.2563 11.4373 11.9662 11.4584 11.6645C11.4795 11.3628 11.4167 11.0611 11.277 10.7924C11.1372 10.5238 10.9258 10.2984 10.6658 10.141C10.4059 9.98364 10.1074 9.90026 9.80294 9.9Z" fill="white"/>
<path d="M9.80294 18.7C11.6644 18.7 13.484 18.1516 15.0317 17.1242C16.5794 16.0968 17.7857 14.6366 18.4981 12.9281C19.2104 11.2196 19.3968 9.33963 19.0336 7.52591C18.6705 5.71219 17.7741 4.04618 16.4579 2.73855C15.1417 1.43093 13.4647 0.540433 11.639 0.179662C9.81339 -0.18111 7.92104 0.0040512 6.20131 0.71173C4.48157 1.41941 3.01169 2.61782 1.97754 4.15542C0.943386 5.69302 0.391409 7.50075 0.391409 9.35C0.394193 11.8289 1.38666 14.2055 3.15106 15.9584C4.91546 17.7113 7.3077 18.6972 9.80294 18.7ZM9.80294 1.1C11.4454 1.1 13.0509 1.58386 14.4166 2.49038C15.7822 3.3969 16.8466 4.68537 17.4751 6.19286C18.1036 7.70035 18.2681 9.35915 17.9477 10.9595C17.6273 12.5598 16.8363 14.0298 15.675 15.1836C14.5136 16.3374 13.0339 17.1231 11.423 17.4415C9.81216 17.7598 8.14244 17.5964 6.62503 16.972C5.10762 16.3476 3.81066 15.2902 2.89817 13.9335C1.98569 12.5767 1.49865 10.9817 1.49865 9.35C1.50114 7.16273 2.37685 5.06574 3.93367 3.51911C5.49049 1.97247 7.60127 1.10248 9.80294 1.1Z" fill="white"/>
<path d="M24.1971 14.3C22.3356 14.3 20.516 14.8484 18.9683 15.8758C17.4206 16.9032 16.2143 18.3634 15.5019 20.0719C14.7896 21.7804 14.6032 23.6604 14.9664 25.4741C15.3295 27.2878 16.2259 28.9538 17.5421 30.2614C18.8583 31.5691 20.5353 32.4596 22.361 32.8203C24.1866 33.1811 26.079 32.9959 27.7987 32.2883C29.5184 31.5806 30.9883 30.3822 32.0225 28.8446C33.0566 27.307 33.6086 25.4993 33.6086 23.65C33.6051 21.1713 32.6124 18.7951 30.8481 17.0424C29.0839 15.2897 26.6921 14.3035 24.1971 14.3ZM24.1971 31.9C22.5546 31.9 20.9491 31.4161 19.5834 30.5096C18.2178 29.6031 17.1534 28.3146 16.5249 26.8071C15.8964 25.2996 15.7319 23.6408 16.0523 22.0405C16.3727 20.4402 17.1637 18.9701 18.325 17.8164C19.4864 16.6626 20.9661 15.8768 22.577 15.5585C24.1878 15.2402 25.8576 15.4036 27.375 16.028C28.8924 16.6524 30.1893 17.7098 31.1018 19.0665C32.0143 20.4232 32.5014 22.0183 32.5014 23.65C32.4987 25.8372 31.623 27.9341 30.0662 29.4807C28.5094 31.0273 26.3987 31.8974 24.1971 31.9Z" fill="white"/>
<path d="M30.1263 22.1595L24.5901 16.6595C24.4856 16.5565 24.3443 16.4986 24.1971 16.4986C24.0498 16.4986 23.9085 16.5565 23.804 16.6595L18.2678 22.1595C18.191 22.2368 18.1389 22.3351 18.1182 22.4417C18.0975 22.5484 18.1091 22.6588 18.1515 22.759C18.1923 22.86 18.2626 22.9465 18.3534 23.0073C18.4442 23.0681 18.5513 23.1004 18.6609 23.1H20.3217V26.95H19.7681C19.6213 26.95 19.4805 27.0079 19.3766 27.1111C19.2728 27.2142 19.2145 27.3541 19.2145 27.5V29.7C19.2145 29.8459 19.2728 29.9858 19.3766 30.0889C19.4805 30.192 19.6213 30.25 19.7681 30.25H28.626C28.7728 30.25 28.9137 30.192 29.0175 30.0889C29.1213 29.9858 29.1796 29.8459 29.1796 29.7V27.5C29.1796 27.3541 29.1213 27.2142 29.0175 27.1111C28.9137 27.0079 28.7728 26.95 28.626 26.95H28.0724V23.1H29.7333C29.8428 23.1004 29.9499 23.0681 30.0407 23.0073C30.1315 22.9465 30.2019 22.86 30.2426 22.759C30.285 22.6588 30.2966 22.5484 30.2759 22.4417C30.2552 22.3351 30.2031 22.2368 30.1263 22.1595ZM28.0724 29.15H20.3217V28.05H28.0724V29.15ZM21.429 26.95V23.1H22.5362V26.95H21.429ZM23.6434 26.95V23.1H24.7507V26.95H23.6434ZM25.8579 26.95V23.1H26.9652V26.95H25.8579ZM19.9951 22L24.1971 17.8255L28.399 22H19.9951Z" fill="white"/>
<path d="M24.1971 21.45C24.8086 21.45 25.3043 20.9575 25.3043 20.35C25.3043 19.7425 24.8086 19.25 24.1971 19.25C23.5855 19.25 23.0898 19.7425 23.0898 20.35C23.0898 20.9575 23.5855 21.45 24.1971 21.45Z" fill="white"/>
<path d="M3.24034 19.558L4.42896 20.7388L5.21178 19.9611L2.9973 17.7611C2.89348 17.658 2.75269 17.6001 2.60589 17.6001C2.45909 17.6001 2.3183 17.658 2.21448 17.7611L0 19.9611L0.782818 20.7388L2.11151 19.4188C2.4336 22.8298 4.02428 25.9989 6.57273 28.3069C9.12118 30.615 12.4443 31.8961 15.8928 31.9V30.8C12.7624 30.796 9.74297 29.648 7.40969 27.5748C5.07641 25.5016 3.59238 22.6481 3.24034 19.558Z" fill="white"/>
<path d="M30.7597 13.442L29.571 12.2612L28.7882 13.0389L31.0027 15.2388C31.1065 15.342 31.2473 15.3999 31.3941 15.3999C31.5409 15.3999 31.6817 15.342 31.7855 15.2388L34 13.0389L33.2172 12.2612L31.8885 13.5812C31.5664 10.1702 29.9757 7.00111 27.4273 4.69308C24.8788 2.38505 21.5557 1.10391 18.1072 1.1V2.2C21.2376 2.20404 24.257 3.35201 26.5903 5.42519C28.9236 7.49836 30.4076 10.3519 30.7597 13.442Z" fill="white"/>
</svg>
