<svg width="34" height="34" viewBox="0 0 34 34" fill="none" xmlns="http://www.w3.org/2000/svg">
<g clip-path="url(#clip0_1_7170)">
<path d="M11.5756 34C9.28606 33.9999 7.04799 33.3209 5.14438 32.0488C3.24077 30.7768 1.75712 28.9688 0.881031 26.8535C0.00494474 24.7382 -0.224225 22.4107 0.222501 20.1652C0.669228 17.9197 1.77179 15.857 3.39075 14.2381C5.00972 12.6192 7.07239 11.5168 9.31791 11.0702C11.5634 10.6235 13.891 10.8528 16.0062 11.729C18.1214 12.6052 19.9293 14.0889 21.2013 15.9926C22.4733 17.8963 23.1522 20.1344 23.1522 22.4239C23.1487 25.4931 21.9279 28.4355 19.7576 30.6057C17.5873 32.7759 14.6448 33.9966 11.5756 34ZM11.5756 12.3055C9.57423 12.3055 7.61783 12.899 5.95378 14.0109C4.28973 15.1228 2.99277 16.7032 2.22691 18.5522C1.46106 20.4012 1.2607 22.4358 1.65118 24.3987C2.04166 26.3616 3.00545 28.1646 4.42065 29.5797C5.83585 30.9949 7.63891 31.9585 9.60181 32.3489C11.5647 32.7393 13.5993 32.5388 15.4483 31.7729C17.2972 31.0069 18.8775 29.7099 19.9894 28.0458C21.1012 26.3817 21.6945 24.4252 21.6944 22.4239C21.6913 19.7412 20.6242 17.1693 18.7272 15.2724C16.8302 13.3755 14.2583 12.3085 11.5756 12.3055Z" fill="white"/>
<path d="M24.593 18.814C24.3997 18.814 24.2143 18.7372 24.0776 18.6005C23.9409 18.4638 23.8641 18.2784 23.8641 18.0851C23.8641 17.8918 23.9409 17.7064 24.0776 17.5697C24.2143 17.433 24.3997 17.3562 24.593 17.3562C26.1652 17.3562 27.7021 16.89 29.0094 16.0165C30.3166 15.143 31.3355 13.9015 31.9371 12.4489C32.5388 10.9963 32.6962 9.39799 32.3894 7.85598C32.0826 6.31397 31.3255 4.89756 30.2137 3.78586C29.1019 2.67416 27.6855 1.91712 26.1435 1.61045C24.6014 1.30379 23.0031 1.46129 21.5506 2.06303C20.0981 2.66477 18.8566 3.68372 17.9832 4.99103C17.1098 6.29834 16.6437 7.8353 16.6438 9.40753C16.6438 9.60084 16.567 9.78623 16.4303 9.92292C16.2936 10.0596 16.1082 10.1364 15.9149 10.1364C15.7216 10.1364 15.5362 10.0596 15.3995 9.92292C15.2628 9.78623 15.186 9.60084 15.186 9.40753C15.1859 7.54698 15.7375 5.72818 16.7711 4.18114C17.8047 2.6341 19.2738 1.4283 20.9927 0.716221C22.7116 0.00414697 24.603 -0.182219 26.4279 0.180692C28.2527 0.543603 29.9289 1.43949 31.2445 2.75506C32.5602 4.07063 33.4561 5.74679 33.8192 7.57159C34.1822 9.39638 33.9959 11.2878 33.2839 13.0068C32.572 14.7257 31.3662 16.1949 29.8193 17.2286C28.2723 18.2623 26.4535 18.814 24.593 18.814Z" fill="white"/>
<path d="M12.6604 29.6612C12.4672 29.6609 12.2819 29.584 12.1453 29.4474C12.0087 29.3108 11.9318 29.1256 11.9315 28.9323V27.8475C11.9315 27.7531 11.894 27.6626 11.8273 27.5958C11.7605 27.5291 11.67 27.4916 11.5756 27.4916H10.4913C10.4445 27.4915 10.3981 27.5006 10.3549 27.5185C10.3117 27.5364 10.2724 27.5626 10.2392 27.5956C10.2061 27.6287 10.1799 27.6679 10.1619 27.7112C10.144 27.7544 10.1348 27.8007 10.1348 27.8475V28.9323C10.1374 29.0297 10.1205 29.1265 10.0851 29.2172C10.0497 29.3079 9.99641 29.3906 9.92849 29.4604C9.86057 29.5302 9.77936 29.5856 9.68965 29.6235C9.59995 29.6614 9.50356 29.6809 9.40618 29.6809C9.30881 29.6809 9.21242 29.6614 9.12271 29.6235C9.033 29.5856 8.95179 29.5302 8.88387 29.4604C8.81596 29.3906 8.76271 29.3079 8.72727 29.2172C8.69184 29.1265 8.67493 29.0297 8.67756 28.9323V27.8475C8.67756 27.7531 8.64006 27.6626 8.57331 27.5958C8.50656 27.5291 8.41602 27.4916 8.32162 27.4916H7.23679C7.13945 27.4942 7.04258 27.4773 6.95188 27.4418C6.86118 27.4064 6.7785 27.3532 6.70872 27.2852C6.63894 27.2173 6.58348 27.1361 6.54561 27.0464C6.50774 26.9567 6.48823 26.8603 6.48823 26.7629C6.48823 26.6656 6.50774 26.5692 6.54561 26.4795C6.58348 26.3898 6.63894 26.3085 6.70872 26.2406C6.7785 26.1727 6.86118 26.1195 6.95188 26.084C7.04258 26.0486 7.13945 26.0317 7.23679 26.0343H8.32162C8.41602 26.0343 8.50656 25.9968 8.57331 25.9301C8.64006 25.8633 8.67756 25.7728 8.67756 25.6784V19.1699C8.67756 19.0755 8.64006 18.985 8.57331 18.9182C8.50656 18.8515 8.41602 18.814 8.32162 18.814H7.23679C7.04348 18.814 6.85809 18.7372 6.72139 18.6005C6.5847 18.4638 6.50791 18.2784 6.50791 18.0851C6.50791 17.8918 6.5847 17.7064 6.72139 17.5697C6.85809 17.433 7.04348 17.3562 7.23679 17.3562H8.32162C8.36836 17.3562 8.41465 17.347 8.45783 17.3291C8.50102 17.3112 8.54026 17.285 8.57331 17.252C8.60636 17.2189 8.63258 17.1797 8.65047 17.1365C8.66836 17.0933 8.67756 17.047 8.67756 17.0003V15.9154C8.68269 15.7256 8.7617 15.5453 8.89779 15.4128C9.03387 15.2803 9.21628 15.2062 9.40618 15.2062C9.59609 15.2062 9.77849 15.2803 9.91458 15.4128C10.0507 15.5453 10.1297 15.7256 10.1348 15.9154V16.9997C10.1348 17.0465 10.144 17.0929 10.1619 17.1361C10.1799 17.1793 10.2061 17.2186 10.2392 17.2516C10.2724 17.2847 10.3117 17.3109 10.3549 17.3287C10.3981 17.3466 10.4445 17.3557 10.4913 17.3557H11.5756C11.67 17.3557 11.7605 17.3182 11.8273 17.2514C11.894 17.1847 11.9315 17.0941 11.9315 16.9997V15.9154C11.9315 15.7221 12.0083 15.5367 12.145 15.4C12.2817 15.2633 12.4671 15.1866 12.6604 15.1866C12.8537 15.1866 13.0391 15.2633 13.1758 15.4C13.3125 15.5367 13.3893 15.7221 13.3893 15.9154V17.2006C13.3893 17.274 13.412 17.3456 13.4543 17.4056C13.4967 17.4657 13.5565 17.5111 13.6257 17.5358C14.0244 17.674 14.3877 17.8985 14.6896 18.1934C14.9915 18.4882 15.2245 18.8461 15.372 19.2415C15.5196 19.6369 15.578 20.0599 15.5431 20.4805C15.5081 20.901 15.3808 21.3087 15.1701 21.6743C15.1241 21.7538 15.1107 21.8481 15.1328 21.9372C15.1549 22.0264 15.2107 22.1035 15.2885 22.1524C15.8179 22.4878 16.2242 22.9858 16.4464 23.5718C16.6686 24.1578 16.6947 24.8 16.5207 25.402C16.3468 26.0041 15.9822 26.5334 15.4817 26.9106C14.9812 27.2878 14.3719 27.4924 13.7452 27.4937C13.6508 27.4937 13.5603 27.5312 13.4935 27.5979C13.4268 27.6647 13.3893 27.7552 13.3893 27.8496V28.9345C13.3884 29.1273 13.3113 29.312 13.1747 29.4482C13.0382 29.5843 12.8533 29.6609 12.6604 29.6612ZM10.4913 23.1528C10.4445 23.1527 10.3981 23.1619 10.3549 23.1797C10.3117 23.1976 10.2724 23.2238 10.2392 23.2568C10.2061 23.2899 10.1799 23.3292 10.1619 23.3724C10.144 23.4156 10.1348 23.4619 10.1348 23.5087V25.6784C10.1348 25.7252 10.144 25.7715 10.1619 25.8147C10.1799 25.8579 10.2061 25.8972 10.2392 25.9302C10.2724 25.9633 10.3117 25.9895 10.3549 26.0074C10.3981 26.0252 10.4445 26.0344 10.4913 26.0343H13.7452C15.6519 26.0343 15.6498 23.1528 13.7452 23.1528H10.4913ZM10.4913 18.814C10.4445 18.8139 10.3981 18.8231 10.3549 18.8409C10.3117 18.8588 10.2724 18.885 10.2392 18.918C10.2061 18.9511 10.1799 18.9904 10.1619 19.0336C10.144 19.0768 10.1348 19.1231 10.1348 19.1699V21.3391C10.1348 21.3858 10.144 21.4322 10.1619 21.4754C10.1799 21.5186 10.2061 21.5579 10.2392 21.5909C10.2724 21.624 10.3117 21.6502 10.3549 21.6681C10.3981 21.6859 10.4445 21.6951 10.4913 21.695H12.6604C14.5676 21.695 14.565 18.814 12.6604 18.814H10.4913Z" fill="white"/>
<path d="M23.8641 14.8311C23.8519 14.778 23.9241 14.4322 23.6139 14.3355C23.1921 14.208 22.8046 13.9869 22.4804 13.6885C22.1562 13.3902 21.9037 13.0223 21.7417 12.6126C21.6735 12.4318 21.6799 12.2314 21.7595 12.0553C21.8391 11.8793 21.9854 11.7421 22.1662 11.6739C22.347 11.6057 22.5474 11.6121 22.7235 11.6917C22.8995 11.7713 23.0367 11.9176 23.1049 12.0983C23.2315 12.3763 23.4387 12.6097 23.6996 12.7685C23.9604 12.9272 24.263 13.004 24.568 12.9887C25.9328 12.9887 27.1489 11.1957 24.3258 10.0854C20.6813 8.65101 21.1913 5.3859 23.6271 4.52473C23.9422 4.41263 23.8492 4.062 23.8641 3.98391C23.8641 3.7906 23.9409 3.6052 24.0776 3.46851C24.2143 3.33182 24.3997 3.25502 24.593 3.25502C24.7863 3.25502 24.9717 3.33182 25.1084 3.46851C25.2451 3.6052 25.3219 3.7906 25.3219 3.98391C25.3341 4.03704 25.2618 4.38288 25.5721 4.47957C25.9938 4.60696 26.3812 4.82805 26.7054 5.12631C27.0296 5.42457 27.2822 5.79227 27.4442 6.20191C27.5126 6.38276 27.5063 6.58334 27.4267 6.75953C27.3472 6.93573 27.2009 7.07311 27.02 7.14144C26.8392 7.20978 26.6386 7.20348 26.4624 7.12392C26.2862 7.04437 26.1488 6.89808 26.0805 6.71723C25.58 5.38909 23.1522 5.56121 23.1522 7.15127C23.1522 8.8513 27.491 8.77692 27.491 11.6638C27.4861 12.2492 27.2968 12.8181 26.9499 13.2897C26.603 13.7613 26.1162 14.1114 25.5588 14.2903C25.2432 14.4019 25.3367 14.753 25.3219 14.8311C25.3219 15.0245 25.2451 15.2098 25.1084 15.3465C24.9717 15.4832 24.7863 15.56 24.593 15.56C24.3997 15.56 24.2143 15.4832 24.0776 15.3465C23.9409 15.2098 23.8641 15.0245 23.8641 14.8311Z" fill="white"/>
<path d="M22.3707 32.0019C28.2443 31.5769 32.8928 25.9663 32.5209 19.7559C32.5147 19.5662 32.5828 19.3815 32.7106 19.2411C32.8385 19.1008 33.0161 19.0159 33.2056 19.0045C33.3951 18.993 33.5816 19.056 33.7254 19.18C33.8691 19.3039 33.9589 19.4791 33.9755 19.6682C34.4005 26.7781 29.2436 32.963 22.4764 33.456C22.2836 33.47 22.0931 33.4069 21.9469 33.2804C21.8006 33.154 21.7106 32.9746 21.6966 32.7818C21.6825 32.589 21.7457 32.3985 21.8721 32.2523C21.9986 32.106 22.1779 32.016 22.3707 32.0019Z" fill="white"/>
<path d="M0.545607 11.5023C0.869307 8.3444 2.34985 5.41793 4.70216 3.28637C5.99592 2.10219 7.524 1.20299 9.18743 0.647019C10.8509 0.0910486 12.6125 -0.109292 14.3583 0.0589739C14.5478 0.0809439 14.7211 0.176333 14.8411 0.324665C14.9611 0.472997 15.0181 0.662449 14.9999 0.852354C14.9818 1.04226 14.8899 1.21748 14.744 1.3404C14.5981 1.46333 14.4099 1.52416 14.2196 1.50984C11.2543 1.23641 8.30163 2.15076 6.00977 4.05218C3.71791 5.9536 2.27415 8.68671 1.99541 11.6516C1.972 11.8409 1.87533 12.0134 1.72614 12.1323C1.57694 12.2511 1.38711 12.3067 1.19737 12.2872C1.00764 12.2676 0.833123 12.1745 0.711272 12.0278C0.589421 11.881 0.529945 11.6924 0.545607 11.5023Z" fill="white"/>
</g>
<defs>
<clipPath id="clip0_1_7170">
<rect width="34" height="34" fill="white"/>
</clipPath>
</defs>
</svg>
