<svg width="34" height="34" viewBox="0 0 34 34" fill="none" xmlns="http://www.w3.org/2000/svg">
<path d="M32.8667 18.8048V11.9008C32.8664 11.6636 32.8157 11.4292 32.718 11.2131C32.6204 10.9971 32.4779 10.8042 32.3 10.6473V6.23428C32.3 5.78343 32.1209 5.35104 31.8021 5.03224C31.4833 4.71344 31.0509 4.53434 30.6 4.53434H26.7597C25.7444 3.22221 24.3125 2.29497 22.6998 1.90533C21.0871 1.51569 19.3898 1.68688 17.8874 2.39072C17.0526 1.47821 16.0012 0.790921 14.8304 0.392387C13.6596 -0.00614726 12.4072 -0.103056 11.189 0.110623C9.97087 0.324301 8.82624 0.841668 7.86099 1.61488C6.89574 2.3881 6.14104 3.3922 5.66667 4.53434H3.4C2.49918 4.53733 1.63611 4.89649 0.999138 5.53345C0.362161 6.1704 0.00298781 7.03344 0 7.93423V30.6001C0.00090011 31.5015 0.359402 32.3658 0.996831 33.0032C1.63426 33.6406 2.49854 33.9991 3.4 34H31.1667C31.6175 34 32.0499 33.8209 32.3687 33.5021C32.6876 33.1833 32.8667 32.7509 32.8667 32.3001V25.396C33.197 25.2793 33.4831 25.0633 33.686 24.7776C33.8889 24.492 33.9985 24.1507 34 23.8004V20.4005C33.9985 20.0501 33.8889 19.7088 33.686 19.4232C33.4831 19.1375 33.197 18.9216 32.8667 18.8048ZM31.1667 6.23428V10.2008H28.2364C28.2978 9.82609 28.3302 9.44721 28.3333 9.06752C28.3353 7.88368 28.05 6.71703 27.502 5.66764H30.6C30.7503 5.66764 30.8944 5.72734 31.0007 5.8336C31.107 5.93987 31.1667 6.084 31.1667 6.23428ZM26.0315 5.43248C26.527 6.1114 26.8766 6.88556 27.0582 7.70621C27.2398 8.52687 27.2495 9.37623 27.0867 10.2008H14.8467C14.5862 8.80766 14.8088 7.36733 15.4777 6.1178C16.1466 4.86828 17.2218 3.88431 18.5256 3.32848C19.8294 2.77264 21.2838 2.6782 22.6485 3.06075C24.0132 3.4433 25.2066 4.27995 26.0315 5.43248ZM12.4667 1.13446C13.2834 1.13331 14.0923 1.2931 14.8472 1.60472C15.6021 1.91634 16.2882 2.37367 16.8663 2.95056C15.6939 3.72362 14.7707 4.81979 14.2082 6.1065C13.6457 7.3932 13.4681 8.81531 13.6969 10.2008H6.9241C6.43498 9.25182 6.19845 8.19287 6.23731 7.12596C6.27617 6.05904 6.5891 5.0201 7.14597 4.1092C7.70283 3.1983 8.48487 2.44612 9.41676 1.92511C10.3487 1.4041 11.399 1.13181 12.4667 1.13446ZM1.13333 7.93423C1.13572 7.33382 1.3753 6.75869 1.79986 6.33414C2.22443 5.90959 2.79958 5.67002 3.4 5.66764H5.3057C4.93929 7.17823 5.06456 8.76634 5.66327 10.2008H3.519C2.93845 10.2115 2.37441 10.0073 1.93516 9.62761C1.4959 9.24788 1.21237 8.71929 1.139 8.14332C1.13315 8.07568 1.13126 8.00775 1.13333 7.93989V7.93423ZM31.1667 32.8667H3.4C2.79884 32.8667 2.22231 32.6279 1.79722 32.2028C1.37214 31.7778 1.13333 31.2013 1.13333 30.6001V26.0669H4.86767C5.03427 26.067 5.19884 26.1036 5.3498 26.1741C5.50076 26.2445 5.63445 26.3472 5.74147 26.4749L6.66287 27.5827C6.33188 28.0357 6.17771 28.5939 6.22932 29.1525C6.28094 29.7111 6.53479 30.2316 6.94317 30.6162C7.35155 31.0009 7.88635 31.2231 8.44706 31.2412C9.00777 31.2593 9.55579 31.0721 9.98814 30.7146C10.4205 30.3571 10.7074 29.8541 10.795 29.2999C10.8825 28.7458 10.7647 28.1788 10.4636 27.7055C10.1625 27.2321 9.69897 26.885 9.15999 26.7294C8.62101 26.5737 8.04374 26.6203 7.53667 26.8602L6.61357 25.7507C6.4005 25.4946 6.13358 25.2886 5.83181 25.1474C5.53004 25.0061 5.20085 24.9332 4.86767 24.9336H1.13333V22.6671H10.8471C10.9851 23.2012 11.3131 23.6667 11.7697 23.9764C12.2263 24.286 12.7801 24.4184 13.3274 24.3489C13.8747 24.2794 14.3779 24.0127 14.7426 23.5988C15.1073 23.1848 15.3085 22.6521 15.3085 22.1004C15.3085 21.5487 15.1073 21.016 14.7426 20.6021C14.3779 20.1881 13.8747 19.9214 13.3274 19.8519C12.7801 19.7824 12.2263 19.9148 11.7697 20.2245C11.3131 20.5341 10.9851 20.9996 10.8471 21.5338H1.13333V19.2672H4.86767C5.20051 19.2673 5.52931 19.1942 5.83081 19.0532C6.13231 18.9122 6.39914 18.7067 6.61243 18.4512L7.53667 17.3406C7.83686 17.487 8.166 17.5645 8.5 17.5672C9.01276 17.5706 9.51173 17.4013 9.91644 17.0864C10.3212 16.7716 10.608 16.3296 10.7308 15.8317C10.8536 15.3339 10.8051 14.8092 10.5932 14.3423C10.3812 13.8754 10.0182 13.4935 9.56266 13.2581C9.10709 13.0227 8.58554 12.9477 8.08209 13.045C7.57863 13.1423 7.12263 13.4063 6.78762 13.7945C6.4526 14.1827 6.25809 14.6724 6.23546 15.1847C6.21283 15.6969 6.36339 16.2019 6.66287 16.6181L5.74317 17.7242C5.63605 17.8523 5.50215 17.9554 5.35088 18.0262C5.19962 18.097 5.03467 18.1337 4.86767 18.1339H1.13333V10.4275C1.79085 11.0114 2.63963 11.3339 3.519 11.3341H31.1667C31.317 11.3341 31.4611 11.3938 31.5674 11.5001C31.6736 11.6063 31.7333 11.7505 31.7333 11.9008V18.7005H28.9C27.9983 18.7005 27.1335 19.0587 26.4958 19.6963C25.8582 20.3339 25.5 21.1987 25.5 22.1004C25.5 23.0021 25.8582 23.8669 26.4958 24.5045C27.1335 25.1421 27.9983 25.5003 28.9 25.5003H31.7333V32.3001C31.7333 32.4503 31.6736 32.5945 31.5674 32.7007C31.4611 32.807 31.317 32.8667 31.1667 32.8667ZM8.5 27.7669C8.72415 27.7669 8.94327 27.8333 9.12965 27.9579C9.31602 28.0824 9.46128 28.2594 9.54706 28.4665C9.63284 28.6736 9.65529 28.9014 9.61156 29.1213C9.56783 29.3411 9.45989 29.543 9.30139 29.7015C9.14289 29.86 8.94095 29.968 8.7211 30.0117C8.50126 30.0554 8.27338 30.033 8.06629 29.9472C7.8592 29.8614 7.6822 29.7162 7.55767 29.5298C7.43314 29.3434 7.36667 29.1243 7.36667 28.9002C7.36667 28.5996 7.48607 28.3113 7.69861 28.0988C7.91115 27.8863 8.19942 27.7669 8.5 27.7669ZM11.9 22.1004C11.9 21.8763 11.9665 21.6572 12.091 21.4708C12.2155 21.2844 12.3925 21.1392 12.5996 21.0534C12.8067 20.9676 13.0346 20.9452 13.2544 20.9889C13.4743 21.0326 13.6762 21.1406 13.8347 21.299C13.9932 21.4575 14.1012 21.6595 14.1449 21.8793C14.1886 22.0991 14.1662 22.327 14.0804 22.5341C13.9946 22.7412 13.8494 22.9182 13.663 23.0427C13.4766 23.1672 13.2575 23.2337 13.0333 23.2337C12.7328 23.2337 12.4445 23.1143 12.2319 22.9018C12.0194 22.6892 11.9 22.401 11.9 22.1004ZM7.36667 15.3006C7.36667 15.0765 7.43314 14.8574 7.55767 14.671C7.6822 14.4846 7.8592 14.3394 8.06629 14.2536C8.27338 14.1678 8.50126 14.1454 8.7211 14.1891C8.94095 14.2328 9.14289 14.3408 9.30139 14.4993C9.45989 14.6578 9.56783 14.8597 9.61156 15.0795C9.65529 15.2994 9.63284 15.5273 9.54706 15.7343C9.46128 15.9414 9.31602 16.1184 9.12965 16.2429C8.94327 16.3675 8.72415 16.4339 8.5 16.4339C8.19942 16.4339 7.91115 16.3145 7.69861 16.102C7.48607 15.8895 7.36667 15.6012 7.36667 15.3006ZM32.8667 23.8004C32.8667 23.9506 32.807 24.0948 32.7007 24.201C32.5944 24.3073 32.4503 24.367 32.3 24.367H28.9C28.2988 24.367 27.7223 24.1282 27.2972 23.7031C26.8721 23.2781 26.6333 22.7015 26.6333 22.1004C26.6333 21.4993 26.8721 20.9228 27.2972 20.4977C27.7223 20.0726 28.2988 19.8338 28.9 19.8338H32.3C32.4503 19.8338 32.5944 19.8935 32.7007 19.9998C32.807 20.1061 32.8667 20.2502 32.8667 20.4005V23.8004Z" fill="white"/>
</svg>
