<svg width="34" height="34" viewBox="0 0 34 34" fill="none" xmlns="http://www.w3.org/2000/svg">
<path d="M13.5097 19.7105L19.7127 13.5057L20.4881 14.2813L14.2851 20.4861L13.5097 19.7105Z" fill="white"/>
<path d="M18.0309 17.7693C17.3893 18.4111 17.3893 19.4533 18.0309 20.095C18.3435 20.4077 18.7547 20.5777 19.1934 20.5777C19.6321 20.5777 20.0434 20.4077 20.3559 20.095C20.9975 19.4533 20.9975 18.4111 20.3559 17.7693C19.7363 17.1495 18.6505 17.1495 18.0309 17.7693ZM19.5827 19.3216C19.3744 19.53 19.0125 19.53 18.8096 19.3216C18.5957 19.1077 18.5957 18.7621 18.8096 18.5482C18.9137 18.444 19.0508 18.3891 19.1989 18.3891C19.3469 18.3891 19.484 18.444 19.5882 18.5482C19.8021 18.7621 19.8021 19.1077 19.5882 19.3216H19.5827Z" fill="white"/>
<path d="M13.6441 13.8913C13.0025 14.533 13.0025 15.5752 13.6441 16.217C13.9566 16.5296 14.3679 16.6997 14.8066 16.6997C15.2453 16.6997 15.6565 16.5296 15.9691 16.217C16.6107 15.5752 16.6107 14.533 15.9691 13.8913C15.3275 13.2495 14.2637 13.2714 13.6441 13.8913ZM15.1959 15.4436C14.9875 15.652 14.6256 15.652 14.4227 15.4436C14.2089 15.2297 14.2089 14.8841 14.4227 14.6702C14.5269 14.5659 14.664 14.5111 14.8121 14.5111C14.9601 14.5111 15.0972 14.5659 15.2014 14.6702C15.4153 14.8841 15.4153 15.2297 15.2014 15.4436H15.1959Z" fill="white"/>
<path d="M30.1604 7.12253V31.8059H31.2571V7.67105H33.4506C33.6644 7.67105 33.8563 7.55037 33.9496 7.35291C34.0373 7.16093 34.0099 6.93055 33.8728 6.77148L28.3893 0.189239C28.1809 -0.0630798 27.7532 -0.0630798 27.5448 0.189239L22.0613 6.77148C21.9242 6.93603 21.8968 7.16093 21.9845 7.35291C22.0723 7.54489 22.2697 7.67105 22.4835 7.67105H24.6769V16.9959C24.6769 21.2305 21.2333 24.6752 17 24.6752C14.8724 24.6752 12.8216 23.7811 11.3684 22.2178L10.5623 22.9638C12.2184 24.7465 14.5653 25.7722 16.9945 25.7722C21.831 25.7722 25.7681 21.8338 25.7681 16.9959V7.12253C25.7681 6.82084 25.5214 6.57401 25.2198 6.57401H23.6515L27.9616 1.39598L32.2716 6.57401H30.7033C30.4017 6.57401 30.155 6.82084 30.155 7.12253H30.1604Z" fill="white"/>
<path d="M3.83955 26.8692V2.18585H2.74285V26.3207H0.549443C0.335585 26.3207 0.143662 26.4414 0.0504424 26.6389C-0.0372939 26.8308 -0.00987633 27.0612 0.127212 27.2203L5.61073 33.8025C5.71492 33.9287 5.86846 34 6.03296 34C6.19747 34 6.35101 33.9287 6.45519 33.8025L11.9387 27.2203C12.0758 27.0557 12.1032 26.8308 12.0155 26.6389C11.9277 26.4469 11.7303 26.3207 11.5165 26.3207H9.32307V16.9959C9.32307 12.7613 12.7667 9.31661 17 9.31661C19.1276 9.31661 21.1784 10.2107 22.6316 11.774L23.4377 11.028C21.7816 9.2453 19.4347 8.21957 17.0055 8.21957C12.169 8.21957 8.23185 12.1579 8.23185 16.9959V26.8692C8.23185 27.1709 8.47861 27.4178 8.7802 27.4178H10.3485L6.03845 32.5958L1.7284 27.4178H3.29669C3.59828 27.4178 3.84504 27.1709 3.84504 26.8692H3.83955Z" fill="white"/>
</svg>
