<svg width="45" height="44" viewBox="0 0 45 44" fill="none" xmlns="http://www.w3.org/2000/svg">
<path d="M37.3087 36.3206C37.3613 36.4896 37.4673 36.6365 37.6105 36.7387C37.7536 36.8408 37.926 36.8925 38.101 36.8859C38.276 36.8792 38.4441 36.8146 38.5792 36.7019C38.7144 36.5892 38.8093 36.4346 38.8492 36.2621L40.2355 29.9595C40.2772 29.7507 40.2364 29.5337 40.1218 29.3551C40.0071 29.1765 39.8278 29.0505 39.6224 29.0042C39.4169 28.9579 39.2017 28.9951 39.023 29.1076C38.8443 29.2202 38.7164 29.3992 38.6668 29.6062L37.9939 32.6656C37.3057 31.3928 36.2489 30.3636 34.9657 29.7164C33.6825 29.0691 32.2342 28.8349 30.8155 29.045C29.3969 29.2552 28.0757 29.8997 27.0297 30.892C25.9836 31.8843 25.2628 33.1767 24.964 34.5958C24.2048 34.1831 23.3565 33.967 22.4947 33.9668C21.6329 33.9666 20.7844 34.1824 20.0251 34.5948C19.7254 33.1762 19.0043 31.8843 17.9583 30.8923C16.9123 29.9004 15.5916 29.2558 14.1733 29.0451C12.755 28.8343 11.3069 29.0675 10.0233 29.7134C8.73965 30.3592 7.6819 31.3868 6.99191 32.6583L6.33323 29.6637C6.28396 29.4563 6.15614 29.2768 5.9773 29.1638C5.79847 29.0509 5.58295 29.0136 5.37718 29.06C5.17142 29.1063 4.9919 29.2326 4.8773 29.4117C4.76271 29.5907 4.72222 29.8081 4.76456 30.0171L6.12478 36.201C6.58185 45.3144 19.3671 45.5462 20.1633 36.4809C20.8106 35.9133 21.6386 35.6011 22.4951 35.6014C23.3516 35.6017 24.1793 35.9147 24.8263 36.4828C24.9097 38.0135 25.48 39.4759 26.452 40.6519C27.424 41.8278 28.7456 42.6544 30.2197 43.0081C31.6938 43.3619 33.2415 43.224 34.6318 42.6149C36.0222 42.0059 37.1807 40.9584 37.9346 39.6286C38.0407 39.4415 38.0689 39.2194 38.0131 39.0112C37.9573 38.803 37.8221 38.6258 37.6372 38.5185C37.4523 38.4112 37.2328 38.3826 37.0271 38.439C36.8213 38.4955 36.6462 38.6323 36.5401 38.8194C33.7985 43.646 26.4179 41.6622 26.4135 36.0849C26.7605 28.6572 37.1583 28.8922 37.3087 36.3206ZM13.151 41.5749C11.7127 41.5733 10.3338 40.9944 9.31678 39.9653C8.29975 38.9362 7.72769 37.5408 7.72611 36.0854C7.98066 28.82 18.3224 28.8219 18.5759 36.0855C18.5743 37.5409 18.0023 38.9362 16.9852 39.9653C15.9682 40.9944 14.5893 41.5733 13.151 41.5749Z" fill="#FFA395"/>
<path d="M40.1617 15.0744C38.9697 14.6091 37.7476 14.2265 36.5041 13.9295C35.449 11.2758 33.9553 7.3988 32.0483 2.36239C31.8546 1.85786 31.5531 1.40284 31.1655 1.02982C30.7779 0.656806 30.3137 0.374993 29.806 0.20451C29.2983 0.0340261 28.7597 -0.0209227 28.2286 0.0435873C27.6975 0.108097 27.187 0.290475 26.7337 0.577695L23.6143 2.55774C23.2906 2.75712 22.9191 2.8629 22.5402 2.8636C22.1612 2.8643 21.7893 2.75989 21.4649 2.56171L18.2903 0.545121C17.839 0.265006 17.333 0.0875827 16.8072 0.0251595C16.2815 -0.0372637 15.7486 0.016808 15.2455 0.183624C14.7425 0.350439 14.2813 0.626004 13.894 0.991201C13.5068 1.3564 13.2026 1.80248 13.0028 2.29851L7.41072 16.4458C7.33605 16.6449 7.34155 16.8657 7.42604 17.0607C7.51053 17.2558 7.66726 17.4095 7.86256 17.4888C8.05785 17.5682 8.27612 17.5668 8.47044 17.4851C8.66476 17.4033 8.81962 17.2477 8.90175 17.0516L14.4953 2.90152C14.6048 2.62426 14.773 2.37464 14.9881 2.1702C15.2032 1.96577 15.4599 1.81149 15.7402 1.7182C16.0205 1.62492 16.3176 1.5949 16.6106 1.63024C16.9036 1.66559 17.1854 1.76546 17.4361 1.92281L20.6171 3.94335C21.1968 4.29918 21.862 4.487 22.54 4.4863C23.2181 4.4856 23.8829 4.29641 24.4619 3.93938L27.5852 1.95695C27.8377 1.79657 28.1221 1.69458 28.4181 1.65826C28.7141 1.62195 29.0144 1.65221 29.2975 1.74688C29.5806 1.84154 29.8396 1.99829 30.0559 2.20592C30.2723 2.41355 30.4407 2.66695 30.5491 2.94803C32.5486 8.22866 35.3775 15.4389 35.3775 15.4389C35.8618 16.2955 35.8892 17.8561 37.1012 17.4973C37.8318 17.1686 37.5649 16.3862 37.2715 15.8147C39.4419 16.3286 43.5899 18.1664 43.3928 19.7005C43.3929 22.3681 34.4578 25.3518 22.5 25.3518C10.5422 25.3518 1.60714 22.3681 1.60714 19.7004C1.60714 18.6931 2.97455 17.5667 5.35858 16.6102C5.55284 16.5279 5.70745 16.3718 5.78917 16.1755C5.87088 15.9791 5.87317 15.7581 5.79554 15.56C5.71791 15.3619 5.56657 15.2026 5.37405 15.1162C5.18154 15.0299 4.96323 15.0234 4.76606 15.0983C0.826722 16.6789 0 18.4735 0 19.7004C0 24.4275 11.5925 26.9781 22.5 26.9781C33.4075 26.9781 45 24.4275 45 19.7004C45 18.4596 44.1595 16.6491 40.1617 15.0744Z" fill="#FFA395"/>
</svg>
