<svg width="45" height="45" viewBox="0 0 45 45" fill="none" xmlns="http://www.w3.org/2000/svg">
<path d="M42.1875 0.703125H2.8125C1.65234 0.703125 0.703125 1.65234 0.703125 2.8125V33.75C0.703125 34.9102 1.65234 35.8594 2.8125 35.8594H9.63281C10.0195 35.8594 10.3359 35.543 10.3359 35.1562C10.3359 34.7695 10.0195 34.4531 9.63281 34.4531H2.8125C2.42578 34.4531 2.10938 34.1367 2.10938 33.75V9.14062H42.8906V33.75C42.8906 34.1367 42.5742 34.4531 42.1875 34.4531H35.3672C34.9805 34.4531 34.6641 34.7695 34.6641 35.1562C34.6641 35.543 34.9805 35.8594 35.3672 35.8594H42.1875C43.3477 35.8594 44.2969 34.9102 44.2969 33.75V2.8125C44.2969 1.65234 43.3477 0.703125 42.1875 0.703125ZM2.10938 7.73438V2.8125C2.10938 2.42578 2.42578 2.10938 2.8125 2.10938H42.1875C42.5742 2.10938 42.8906 2.42578 42.8906 2.8125V7.73438H2.10938ZM7.73438 4.92188C7.73438 5.30859 7.41797 5.625 7.03125 5.625H4.92188C4.53516 5.625 4.21875 5.30859 4.21875 4.92188C4.21875 4.53516 4.53516 4.21875 4.92188 4.21875H7.03125C7.41797 4.21875 7.73438 4.53516 7.73438 4.92188ZM13.3594 4.92188C13.3594 5.30859 13.043 5.625 12.6562 5.625H10.5469C10.1602 5.625 9.84375 5.30859 9.84375 4.92188C9.84375 4.53516 10.1602 4.21875 10.5469 4.21875H12.6562C13.043 4.21875 13.3594 4.53516 13.3594 4.92188ZM18.9844 4.92188C18.9844 5.30859 18.668 5.625 18.2812 5.625H16.1719C15.7852 5.625 15.4688 5.30859 15.4688 4.92188C15.4688 4.53516 15.7852 4.21875 16.1719 4.21875H18.2812C18.668 4.21875 18.9844 4.53516 18.9844 4.92188ZM4.92188 16.3125V12.6562C4.92188 12.2695 5.23828 11.9531 5.625 11.9531C6.01172 11.9531 6.32812 12.2695 6.32812 12.6562V16.3125C6.32812 16.6992 6.01172 17.0156 5.625 17.0156C5.23828 17.0156 4.92188 16.6992 4.92188 16.3125ZM13.8305 14.9063V14.0625C13.8305 12.9023 12.8813 11.9531 11.7211 11.9531H10.7859C9.62578 11.9531 8.67656 12.9023 8.67656 14.0625V14.9063C8.67656 16.0664 9.62578 17.0156 10.7859 17.0156H11.7211C12.8813 17.0156 13.8305 16.0664 13.8305 14.9063ZM12.4242 14.9063C12.4242 15.293 12.1078 15.6094 11.7211 15.6094H10.7859C10.3992 15.6094 10.0828 15.293 10.0828 14.9063V14.0625C10.0828 13.6758 10.3992 13.3594 10.7859 13.3594H11.7211C12.1078 13.3594 12.4242 13.6758 12.4242 14.0625V14.9063ZM16.875 17.0156C16.4883 17.0156 16.1719 16.6992 16.1719 16.3125V12.6562C16.1719 12.2695 16.4883 11.9531 16.875 11.9531C17.2617 11.9531 17.5781 12.2695 17.5781 12.6562V16.3125C17.5781 16.6992 17.2617 17.0156 16.875 17.0156ZM20.6227 17.0156C20.2359 17.0156 19.9195 16.6992 19.9195 16.3125V12.6562C19.9195 12.2695 20.2359 11.9531 20.6227 11.9531C21.0094 11.9531 21.3258 12.2695 21.3258 12.6562V16.3125C21.3258 16.6992 21.0094 17.0156 20.6227 17.0156ZM24.3703 17.0156C23.9836 17.0156 23.6672 16.6992 23.6672 16.3125V12.6562C23.6672 12.2695 23.9836 11.9531 24.3703 11.9531C24.757 11.9531 25.0734 12.2695 25.0734 12.6562V16.3125C25.0734 16.6992 24.757 17.0156 24.3703 17.0156ZM28.118 17.0156C27.7313 17.0156 27.4148 16.6992 27.4148 16.3125V12.6562C27.4148 12.2695 27.7313 11.9531 28.118 11.9531C28.5047 11.9531 28.8211 12.2695 28.8211 12.6562V16.3125C28.8211 16.6992 28.5047 17.0156 28.118 17.0156ZM32.5688 12.6562V16.3125C32.5688 16.6992 32.2523 17.0156 31.8656 17.0156C31.4789 17.0156 31.1625 16.6992 31.1625 16.3125V12.6562C31.1625 12.2695 31.4789 11.9531 31.8656 11.9531C32.2523 11.9531 32.5688 12.2695 32.5688 12.6562ZM40.0711 14.0625C40.0711 12.9023 39.1219 11.9531 37.9617 11.9531H37.0266C35.8664 11.9531 34.9172 12.9023 34.9172 14.0625V14.9063C34.9172 16.0664 35.8664 17.0156 37.0266 17.0156H37.9617C39.1219 17.0156 40.0711 16.0664 40.0711 14.9063V14.0625ZM38.6648 14.9063C38.6648 15.293 38.3484 15.6094 37.9617 15.6094H37.0266C36.6398 15.6094 36.3234 15.293 36.3234 14.9063V14.0625C36.3234 13.6758 36.6398 13.3594 37.0266 13.3594H37.9617C38.3484 13.3594 38.6648 13.6758 38.6648 14.0625V14.9063ZM4.92188 19.9688C4.92188 19.582 5.23828 19.2656 5.625 19.2656C6.01172 19.2656 6.32812 19.582 6.32812 19.9688V23.625C6.32812 24.0117 6.01172 24.3281 5.625 24.3281C5.23828 24.3281 4.92188 24.0117 4.92188 23.625V19.9688ZM10.0758 23.625C10.0758 24.0117 9.75937 24.3281 9.37266 24.3281C8.98594 24.3281 8.66953 24.0117 8.66953 23.625V19.9688C8.66953 19.582 8.98594 19.2656 9.37266 19.2656C9.75937 19.2656 10.0758 19.582 10.0758 19.9688V23.625ZM12.4172 23.625V19.9688C12.4172 19.582 12.7336 19.2656 13.1203 19.2656C13.507 19.2656 13.8234 19.582 13.8234 19.9688V23.625C13.8234 24.0117 13.507 24.3281 13.1203 24.3281C12.7336 24.3281 12.4172 24.0117 12.4172 23.625ZM32.5758 19.9688V23.625C32.5758 24.0117 32.2594 24.3281 31.8727 24.3281C31.4859 24.3281 31.1695 24.0117 31.1695 23.625V19.9688C31.1695 19.582 31.4859 19.2656 31.8727 19.2656C32.2594 19.2656 32.5758 19.582 32.5758 19.9688ZM34.9172 19.9688C34.9172 19.582 35.2336 19.2656 35.6203 19.2656C36.007 19.2656 36.3234 19.582 36.3234 19.9688V23.625C36.3234 24.0117 36.007 24.3281 35.6203 24.3281C35.2336 24.3281 34.9172 24.0117 34.9172 23.625V19.9688ZM40.0711 23.625C40.0711 24.0117 39.7547 24.3281 39.368 24.3281C38.9813 24.3281 38.6648 24.0117 38.6648 23.625V19.9688C38.6648 19.582 38.9813 19.2656 39.368 19.2656C39.7547 19.2656 40.0711 19.582 40.0711 19.9688V23.625ZM4.92188 29.5312C4.92188 30.6914 5.87109 31.6406 7.03125 31.6406H7.96641C9.12656 31.6406 10.0758 30.6914 10.0758 29.5312V28.6875C10.0758 27.5273 9.12656 26.5781 7.96641 26.5781H7.03125C5.87109 26.5781 4.92188 27.5273 4.92188 28.6875V29.5312ZM6.32812 28.6875C6.32812 28.3008 6.64453 27.9844 7.03125 27.9844H7.96641C8.35313 27.9844 8.66953 28.3008 8.66953 28.6875V29.5312C8.66953 29.918 8.35313 30.2344 7.96641 30.2344H7.03125C6.64453 30.2344 6.32812 29.918 6.32812 29.5312V28.6875ZM34.9242 27.2812C34.9242 26.8945 35.2406 26.5781 35.6273 26.5781C36.0141 26.5781 36.3305 26.8945 36.3305 27.2812V30.9375C36.3305 31.3242 36.0141 31.6406 35.6273 31.6406C35.2406 31.6406 34.9242 31.3242 34.9242 30.9375V27.2812ZM40.0781 27.2812V30.9375C40.0781 31.3242 39.7617 31.6406 39.375 31.6406C38.9883 31.6406 38.6719 31.3242 38.6719 30.9375V27.2812C38.6719 26.8945 38.9883 26.5781 39.375 26.5781C39.7617 26.5781 40.0781 26.8945 40.0781 27.2812ZM31.8516 28.3359H28.3992V23.843C28.3992 21.1641 26.2195 18.9844 23.5406 18.9844H21.4594C18.7805 18.9844 16.6008 21.1641 16.6008 23.843V28.3359H13.1484C12.7617 28.3359 12.4453 28.6523 12.4453 29.0391V42.1875C12.4453 43.3477 13.3945 44.2969 14.5547 44.2969H30.4523C31.6125 44.2969 32.5617 43.3477 32.5617 42.1875V29.0391C32.5617 28.6523 32.2453 28.3359 31.8586 28.3359H31.8516ZM18 23.843C18 21.9375 19.5469 20.3906 21.4523 20.3906H23.5336C25.4391 20.3906 26.9859 21.9375 26.9859 23.843V28.3359H18V23.843ZM31.1484 42.1875C31.1484 42.5742 30.832 42.8906 30.4453 42.8906H14.5547C14.168 42.8906 13.8516 42.5742 13.8516 42.1875V29.7422H31.1555V42.1875H31.1484ZM22.5 31.6406C20.7563 31.6406 19.3359 33.0609 19.3359 34.8047C19.3359 36.3094 20.3906 37.5609 21.7969 37.8844V40.0781C21.7969 40.4648 22.1133 40.7812 22.5 40.7812C22.8867 40.7812 23.2031 40.4648 23.2031 40.0781V37.8844C24.6094 37.5609 25.6641 36.3094 25.6641 34.8047C25.6641 33.0609 24.2437 31.6406 22.5 31.6406ZM22.5 36.5625C21.5297 36.5625 20.7422 35.775 20.7422 34.8047C20.7422 33.8344 21.5297 33.0469 22.5 33.0469C23.4703 33.0469 24.2578 33.8344 24.2578 34.8047C24.2578 35.775 23.4703 36.5625 22.5 36.5625Z" fill="#FFA395"/>
</svg>
