<svg width="45" height="45" viewBox="0 0 45 45" fill="none" xmlns="http://www.w3.org/2000/svg">
<path d="M25.8072 6.06912C24.568 5.78136 23.304 5.63555 22.05 5.63555C20.796 5.63555 19.5318 5.78145 18.2927 6.06912C17.9745 6.14295 17.7491 6.42982 17.7491 6.76047V9.42399C16.6191 9.80148 15.5462 10.3257 14.5484 10.9878L12.4915 9.3259C12.2364 9.11963 11.8746 9.11963 11.6191 9.32555C10.6244 10.128 9.72378 11.0385 8.94206 12.0317C8.16026 13.025 7.48454 14.1173 6.9339 15.2785C6.7926 15.5765 6.87327 15.934 7.12846 16.1402L9.18208 17.7995C8.76867 18.9304 8.50428 20.1076 8.3929 21.3119L5.83002 21.9046C5.51185 21.9783 5.28606 22.2649 5.2858 22.5955C5.28476 23.884 5.42571 25.1652 5.70476 26.4036C5.98364 27.642 6.40538 28.8585 6.95793 30.0187C7.09984 30.3166 7.42599 30.4753 7.74416 30.4019L10.3068 29.8093C10.9225 30.8409 11.6656 31.7842 12.5238 32.6232L11.3823 35.0244C11.2407 35.3224 11.3211 35.68 11.5762 35.8864C12.5697 36.6906 13.6462 37.3777 14.7756 37.9287C15.9055 38.48 17.1068 38.9044 18.3465 39.1899C18.6645 39.2634 18.9906 39.104 19.1323 38.806L20.2734 36.405C21.4641 36.5628 22.636 36.5628 23.8265 36.405L24.9677 38.806C25.0862 39.0554 25.3339 39.2077 25.5981 39.2076C25.6495 39.2076 25.7016 39.2019 25.7535 39.1898C26.9933 38.9042 28.1946 38.4798 29.3243 37.9287C30.4537 37.3776 31.5302 36.6904 32.5238 35.8863C32.7789 35.6799 32.8592 35.3223 32.7176 35.0243L31.5763 32.6229C32.4345 31.7839 33.1775 30.8407 33.7933 29.809L36.3559 30.4016C36.6739 30.475 37.0003 30.3162 37.1422 30.0184C37.6947 28.8582 38.1164 27.6419 38.3953 26.4034C38.6743 25.1649 38.8153 23.8838 38.8143 22.5953C38.814 22.2645 38.5882 21.9779 38.2701 21.9044L35.7072 21.3116C35.5959 20.1074 35.3314 18.9302 34.9181 17.7993L36.9716 16.1399C37.2268 15.9337 37.3075 15.5762 37.1662 15.2782C36.6155 14.1171 35.9398 13.0248 35.158 12.0314C34.3763 11.0381 33.4756 10.1276 32.481 9.3252C32.2256 9.11927 31.8637 9.11945 31.6085 9.32555L29.5517 10.9875C28.5539 10.3254 27.481 9.80122 26.351 9.42364V6.76047C26.3508 6.42973 26.1253 6.14295 25.8072 6.06912ZM29.1783 12.4468C29.4328 12.6303 29.7765 12.6205 30.0204 12.4233L32.0373 10.7937C32.781 11.4386 33.4609 12.1506 34.0633 12.9161C34.6658 13.6816 35.1997 14.5115 35.6547 15.3898L33.6413 17.0167C33.3972 17.2138 33.3115 17.5509 33.4312 17.843C33.9632 19.142 34.2718 20.5156 34.3485 21.9257C34.3656 22.2416 34.5873 22.5078 34.8916 22.5782L37.4048 23.1595C37.3709 24.1509 37.2454 25.1336 37.0304 26.0879C36.8154 27.0423 36.5078 27.9827 36.1138 28.8908L33.602 28.3098C33.2981 28.2395 32.9847 28.3815 32.8338 28.6579C32.1612 29.8889 31.2937 30.9901 30.2552 31.9308C30.0225 32.1413 29.9557 32.4825 30.091 32.7673L31.21 35.1216C30.4237 35.7129 29.5873 36.2261 28.7169 36.6508C27.8465 37.0756 26.9289 37.4182 25.9826 37.6723L24.8639 35.3186C24.7459 35.0702 24.4988 34.917 24.2336 34.917C24.1949 34.917 24.1558 34.9203 24.1166 34.9269C23.4251 35.0453 22.7298 35.1054 22.05 35.1054C21.3703 35.1054 20.6749 35.0453 19.9833 34.9269C19.6755 34.8745 19.3712 35.034 19.236 35.3186L18.1173 37.6723C17.1711 37.4182 16.2536 37.0756 15.383 36.6508C14.5126 36.2261 13.6762 35.713 12.89 35.1216L14.0089 32.7673C14.1442 32.4825 14.0774 32.1414 13.8447 31.9308C12.8062 30.9901 11.9387 29.889 11.2661 28.6579C11.1153 28.3815 10.802 28.2395 10.498 28.3098L7.98608 28.8908C7.5921 27.9827 7.28451 27.0423 7.06948 26.0878C6.85453 25.1335 6.72893 24.1509 6.6951 23.1594L9.20827 22.5781C9.51265 22.5077 9.73428 22.2415 9.75145 21.9256C9.82813 20.5155 10.1367 19.1419 10.6687 17.8429C10.7885 17.5509 10.7028 17.2137 10.4587 17.0166L8.44529 15.3897C8.90025 14.5115 9.43415 13.6814 10.0366 12.916C10.639 12.1505 11.3189 11.4385 12.0626 10.7936L14.0795 12.4233C14.3235 12.6205 14.6671 12.6302 14.9216 12.4467C16.0566 11.629 17.3084 11.0174 18.6424 10.6289C18.9425 10.5415 19.1491 10.2635 19.1491 9.9472V7.33589C21.0715 6.96165 23.0284 6.96165 24.9509 7.33589V9.94738C24.9509 10.2637 25.1575 10.5417 25.4576 10.6291C26.7915 11.0174 28.0434 11.629 29.1783 12.4468Z" fill="#FFA395"/>
<path d="M14 22.3034C14 26.8009 17.6112 30.46 22.05 30.46C26.4888 30.46 30.1 26.8009 30.1 22.3034C30.1 17.8059 26.4888 14.1468 22.05 14.1468C17.6112 14.1468 14 17.8059 14 22.3034ZM28.7 22.3034C28.7 26.0188 25.7168 29.0414 22.05 29.0414C18.3832 29.0414 15.4 26.0188 15.4 22.3034C15.4 18.588 18.3832 15.5653 22.05 15.5653C25.7168 15.5653 28.7 18.588 28.7 22.3034Z" fill="#FFA395"/>
<path d="M19.212 21.9883C18.9375 21.7128 18.4943 21.7146 18.2221 21.993C17.95 22.2712 17.952 22.7203 18.2267 22.996L20.6879 25.467C20.8243 25.604 21.0024 25.6724 21.1806 25.6724C21.3598 25.6724 21.5389 25.6031 21.6756 25.4646L26.2256 20.8544C26.4989 20.5775 26.4989 20.1284 26.2256 19.8514C25.9522 19.5745 25.509 19.5745 25.2355 19.8514L21.1782 23.9624L19.212 21.9883Z" fill="#FFA395"/>
<path d="M29.2222 5.9756C29.3254 6.26406 29.594 6.44336 29.8803 6.44336C29.9595 6.44336 30.0402 6.42964 30.1188 6.40073C30.4823 6.26722 30.6701 5.86047 30.5384 5.4922L29.7286 3.22884C37.5446 6.38763 42.7 14.0175 42.7 22.658C42.7 34.1953 33.4365 43.5814 22.05 43.5814C18.0017 43.5814 14.0822 42.3951 10.7154 40.1507C10.3924 39.9354 9.95842 40.0263 9.7459 40.3534C9.53338 40.6807 9.62299 41.1205 9.94593 41.3358C13.5419 43.733 17.7275 45 22.05 45C27.9398 45 33.477 42.676 37.6417 38.4562C41.8064 34.2364 44.1 28.6257 44.1 22.658C44.1 17.8274 42.603 13.2291 39.7708 9.36045C37.3843 6.10049 34.2395 3.60343 30.5985 2.05674L32.4512 1.3762C32.8147 1.24269 33.0025 0.835934 32.8708 0.467673C32.7391 0.0994111 32.3373 -0.0906963 31.9742 0.0425458L28.3237 1.38341C28.1492 1.44757 28.0069 1.57931 27.9282 1.74965C27.8497 1.92007 27.841 2.11509 27.9042 2.29193L29.2222 5.9756Z" fill="#FFA395"/>
<path d="M3.82775 38.262C3.44114 38.262 3.12774 38.5795 3.12774 38.9712C3.12774 39.363 3.44114 39.6805 3.82775 39.6805H8.02772C8.41432 39.6805 8.72772 39.363 8.72772 38.9712V35.0703C8.72772 34.6786 8.41432 34.361 8.02772 34.361C7.64111 34.361 7.32771 34.6786 7.32771 35.0703V37.3255C3.54402 33.4252 1.39993 28.1662 1.39993 22.6581C1.40002 11.1208 10.6635 1.73462 22.05 1.73462C23.1907 1.73462 24.3348 1.82954 25.4507 2.01683C25.8307 2.08126 26.1924 1.81952 26.2557 1.43298C26.3188 1.04652 26.0609 0.681335 25.6795 0.617351C24.4882 0.417399 23.2671 0.316061 22.05 0.316061C16.1602 0.316061 10.623 2.64007 6.45829 6.85987C2.29355 11.0797 0 16.6903 0 22.658C0 28.5123 2.26778 34.1033 6.27301 38.262H3.82775Z" fill="#FFA395"/>
</svg>
