<svg width="14" height="13" viewBox="0 0 14 13" fill="none" xmlns="http://www.w3.org/2000/svg">
<path d="M4.66641 4.37845C7.33719 4.37845 9.33283 3.32816 9.33283 2.38903C9.33283 1.44999 7.33715 0.399658 4.66641 0.399658C1.99568 0.399658 4.44492e-05 1.44999 4.44492e-05 2.38903C4.44492e-05 3.32816 1.99564 4.37845 4.66641 4.37845Z" fill="#3D8BFF"/>
<path d="M4.66641 12.3364C5.05623 12.3364 5.43143 12.3138 5.78831 12.2728C5.48748 11.8882 5.2387 11.4614 5.05232 11.003C4.92426 11.0073 4.79576 11.0103 4.66637 11.0103C3.14029 11.0103 1.69507 10.7095 0.597042 10.1633C0.380841 10.0558 0.181886 9.94023 4.44492e-05 9.81792V10.347C4.44492e-05 11.2861 1.99564 12.3364 4.66641 12.3364Z" fill="#3D8BFF"/>
<path d="M4.66641 9.68377C4.68011 9.68377 4.69357 9.68355 4.70722 9.6835C4.67988 9.46613 4.66561 9.24473 4.66561 9.02011C4.66561 8.79558 4.67984 8.57431 4.70722 8.35712C4.69357 8.35712 4.68006 8.3576 4.66641 8.3576C3.14034 8.3576 1.69516 8.05679 0.597087 7.51062C0.380841 7.40309 0.181842 7.28755 0 7.16529V7.69435C4.44492e-05 8.63343 1.99564 9.68377 4.66641 9.68377Z" fill="#3D8BFF"/>
<path d="M4.66641 7.03104C4.7987 7.03104 4.9292 7.02839 5.05806 7.02335C5.26501 6.51826 5.54784 6.05172 5.89268 5.63798C5.49344 5.68176 5.08313 5.70497 4.66641 5.70497C3.14034 5.70497 1.69516 5.40416 0.597087 4.85799C0.380841 4.75041 0.181842 4.63491 0 4.51261V5.04171C4.44492e-05 5.9808 1.99564 7.03104 4.66641 7.03104Z" fill="#3D8BFF"/>
<path d="M6.66663 6.82176C6.37815 7.25319 6.17204 7.74352 6.07066 8.27041C6.02385 8.51329 5.99914 8.76387 5.99914 9.02011C5.99914 9.21276 6.01327 9.40219 6.03999 9.58759C6.10564 10.0431 6.24907 10.4738 6.45647 10.8661C6.6741 11.2778 6.962 11.6472 7.30439 11.9583C8.01593 12.6048 8.96226 12.9997 9.99957 12.9997C12.2054 12.9997 14 11.2144 14 9.02011C14 6.82574 12.2054 5.04056 9.99957 5.04056C9.77159 5.04056 9.54805 5.05993 9.33034 5.09654C8.22142 5.28309 7.26629 5.92508 6.66663 6.82176Z" fill="#3D8BFF"/>
</svg>
