<svg width="15" height="15" viewBox="0 0 15 15" fill="none" xmlns="http://www.w3.org/2000/svg">
<path d="M9.58582 1.91999L7.78674 0.122945C7.70518 0.0414834 7.5964 -0.000223195 7.48396 2.07033e-05C7.36944 -0.00107684 7.25822 0.0414834 7.17666 0.122945L5.41469 1.88291C5.24963 2.04779 5.24963 2.31583 5.41469 2.48059L5.64189 2.70753C5.80122 2.86668 6.07934 2.86668 6.23878 2.70753L6.91332 2.0323V4.5136C6.91332 4.52116 6.91771 4.52738 6.91906 4.53445C6.93737 4.75067 7.11892 4.92176 7.34026 4.92176H7.66135C7.89466 4.92176 8.08646 4.7325 8.08646 4.49945V4.22238C8.08646 4.22117 8.08646 4.22031 8.08646 4.21934V2.06913L8.76124 2.74448C8.92631 2.90936 9.19405 2.90936 9.35899 2.74448L9.58582 2.51778C9.75089 2.35278 9.75089 2.08462 9.58582 1.91999Z" fill="#222B45"/>
<path d="M9.58558 12.4826L9.3585 12.2553C9.19917 12.0959 8.92093 12.0959 8.76136 12.2553L8.08658 12.9306V10.79C8.08658 10.7887 8.08658 10.788 8.08658 10.7869V10.5098C8.08658 10.2767 7.89466 10.0781 7.6616 10.0781H7.34026C7.11916 10.0781 6.93761 10.2536 6.91918 10.4701C6.91784 10.4773 6.91344 10.4883 6.91344 10.4957V12.9677L6.2389 12.2925C6.07946 12.1332 5.80073 12.1332 5.64128 12.2925L5.4142 12.5194C5.24938 12.6842 5.24963 12.9524 5.41469 13.1172L7.17678 14.8771C7.25626 14.9567 7.36236 15 7.47187 15H7.48774C7.60116 15 7.70701 14.9568 7.78661 14.8771L9.58558 13.0802C9.75064 12.9154 9.75064 12.6474 9.58558 12.4826Z" fill="#222B45"/>
<path d="M4.48584 6.91392H4.20712C4.20626 6.91392 4.20541 6.91392 4.20443 6.91392H2.07155L2.74768 6.24223C2.8274 6.16272 2.87123 6.05833 2.87123 5.94528C2.87123 5.83211 2.8274 5.72687 2.74768 5.64748L2.52047 5.42102C2.35541 5.25615 2.08694 5.25639 1.92212 5.42127L0.12303 7.21819C0.0414756 7.29953 -0.00210977 7.40867 8.78112e-05 7.52062C-0.00223186 7.63708 0.0414756 7.7461 0.12303 7.82756L1.885 9.58766C1.96754 9.67009 2.07583 9.71131 2.18424 9.71131C2.29266 9.71131 2.40095 9.67009 2.48348 9.58766L2.71056 9.36083C2.79029 9.28132 2.83424 9.1751 2.83424 9.06206C2.83424 8.94889 2.79041 8.84157 2.71056 8.76218L2.03468 8.08585H4.49866C4.50611 8.08585 4.51832 8.08402 4.5254 8.08268C4.74198 8.06439 4.91889 7.88549 4.91889 7.66452V7.34331C4.91889 7.11051 4.71915 6.91392 4.48584 6.91392Z" fill="#222B45"/>
<path d="M14.8769 7.21831L13.0778 5.42151C12.9128 5.25664 12.6444 5.25664 12.4794 5.42151L12.2525 5.64846C12.1727 5.72785 12.1288 5.83406 12.1288 5.94711C12.1288 6.06028 12.1726 6.16272 12.2525 6.24223L12.9285 6.91392H10.7819C10.7808 6.91392 10.78 6.91392 10.779 6.91392H10.5017C10.2684 6.91392 10.0811 7.11038 10.0811 7.34331V7.66452C10.0811 7.88549 10.251 8.06415 10.4677 8.08256C10.4749 8.08402 10.4801 8.08585 10.4874 8.08585H12.9655L12.2892 8.76206C12.2096 8.84145 12.1657 8.94852 12.1657 9.06132C12.1657 9.17461 12.2095 9.28108 12.2892 9.36059L12.5165 9.58753C12.599 9.66997 12.7072 9.71131 12.8157 9.71131C12.9241 9.71131 13.0322 9.67009 13.1148 9.58766L14.877 7.82756C14.9583 7.74635 15.0019 7.6372 14.9999 7.52513C15.0018 7.40867 14.9582 7.29953 14.8769 7.21831Z" fill="#222B45"/>
<path d="M7.5002 6.32735C6.85301 6.32735 6.32644 6.85331 6.32644 7.49989C6.32644 8.14634 6.85301 8.67243 7.5002 8.67243C8.14738 8.67243 8.67407 8.14634 8.67407 7.49989C8.67407 6.85331 8.14738 6.32735 7.5002 6.32735Z" fill="#222B45"/>
</svg>
