<svg width="12" height="15" viewBox="0 0 12 15" fill="none" xmlns="http://www.w3.org/2000/svg">
<path d="M10.6667 4.0907C10.4899 4.0907 10.3203 4.16253 10.1953 4.29039C10.0702 4.41825 10 4.59166 10 4.77248V12.4023C9.98088 12.7471 9.82932 13.0702 9.57833 13.3012C9.32734 13.5322 8.99727 13.6524 8.66 13.6357H3.34C3.00273 13.6524 2.67266 13.5322 2.42167 13.3012C2.17069 13.0702 2.01912 12.7471 2 12.4023V4.77248C2 4.59166 1.92976 4.41825 1.80474 4.29039C1.67971 4.16253 1.51014 4.0907 1.33333 4.0907C1.15652 4.0907 0.986953 4.16253 0.861929 4.29039C0.736905 4.41825 0.666667 4.59166 0.666667 4.77248V12.4023C0.685696 13.1088 0.977722 13.7788 1.47879 14.2655C1.97985 14.7523 2.64912 15.0161 3.34 14.9992H8.66C9.35089 15.0161 10.0201 14.7523 10.5212 14.2655C11.0223 13.7788 11.3143 13.1088 11.3333 12.4023V4.77248C11.3333 4.59166 11.2631 4.41825 11.1381 4.29039C11.013 4.16253 10.8435 4.0907 10.6667 4.0907Z" fill="#222B45"/>
<path d="M11.3333 2.04535H8.66667V0.681784C8.66667 0.500963 8.59643 0.327549 8.47141 0.19969C8.34638 0.0718305 8.17681 0 8 0H4C3.82319 0 3.65362 0.0718305 3.5286 0.19969C3.40357 0.327549 3.33333 0.500963 3.33333 0.681784V2.04535H0.666667C0.489856 2.04535 0.320286 2.11718 0.195262 2.24504C0.0702379 2.3729 0 2.54631 0 2.72713C0 2.90795 0.0702379 3.08137 0.195262 3.20923C0.320286 3.33709 0.489856 3.40892 0.666667 3.40892H11.3333C11.5101 3.40892 11.6797 3.33709 11.8047 3.20923C11.9298 3.08137 12 2.90795 12 2.72713C12 2.54631 11.9298 2.3729 11.8047 2.24504C11.6797 2.11718 11.5101 2.04535 11.3333 2.04535ZM4.66667 2.04535V1.36357H7.33333V2.04535H4.66667Z" fill="#222B45"/>
<path d="M5.33333 10.9085V6.13605C5.33333 5.95523 5.2631 5.78182 5.13807 5.65396C5.01305 5.5261 4.84348 5.45427 4.66667 5.45427C4.48986 5.45427 4.32029 5.5261 4.19526 5.65396C4.07024 5.78182 4 5.95523 4 6.13605V10.9085C4 11.0894 4.07024 11.2628 4.19526 11.3906C4.32029 11.5185 4.48986 11.5903 4.66667 11.5903C4.84348 11.5903 5.01305 11.5185 5.13807 11.3906C5.2631 11.2628 5.33333 11.0894 5.33333 10.9085Z" fill="#222B45"/>
<path d="M8 10.9085V6.13605C8 5.95523 7.92976 5.78182 7.80474 5.65396C7.67971 5.5261 7.51015 5.45427 7.33333 5.45427C7.15652 5.45427 6.98695 5.5261 6.86193 5.65396C6.73691 5.78182 6.66667 5.95523 6.66667 6.13605V10.9085C6.66667 11.0894 6.73691 11.2628 6.86193 11.3906C6.98695 11.5185 7.15652 11.5903 7.33333 11.5903C7.51015 11.5903 7.67971 11.5185 7.80474 11.3906C7.92976 11.2628 8 11.0894 8 10.9085Z" fill="#222B45"/>
</svg>
